<?xml version="1.0" encoding="utf-8" standalone="no"?>
<!DOCTYPE svg PUBLIC "-//W3C//DTD SVG 1.1//EN"
  "http://www.w3.org/Graphics/SVG/1.1/DTD/svg11.dtd">
<svg xmlns:xlink="http://www.w3.org/1999/xlink" width="515.297443pt" height="436.399707pt" viewBox="0 0 515.297443 436.399707" xmlns="http://www.w3.org/2000/svg" version="1.1">
 <metadata>
  <rdf:RDF xmlns:dc="http://purl.org/dc/elements/1.1/" xmlns:cc="http://creativecommons.org/ns#" xmlns:rdf="http://www.w3.org/1999/02/22-rdf-syntax-ns#">
   <cc:Work>
    <dc:type rdf:resource="http://purl.org/dc/dcmitype/StillImage"/>
    <dc:date>2026-04-16T18:57:44.662030</dc:date>
    <dc:format>image/svg+xml</dc:format>
    <dc:creator>
     <cc:Agent>
      <dc:title>Matplotlib v3.10.8, https://matplotlib.org/</dc:title>
     </cc:Agent>
    </dc:creator>
   </cc:Work>
  </rdf:RDF>
 </metadata>
 <defs>
  <style type="text/css">*{stroke-linejoin: round; stroke-linecap: butt}</style>
 </defs>
 <g id="figure_1">
  <g id="patch_1">
   <path d="M 0 436.399707 
L 515.297443 436.399707 
L 515.297443 0 
L 0 0 
z
" style="fill: #ffffff"/>
  </g>
  <g id="axes_1">
   <g id="PathCollection_1">
    <defs>
     <path id="m47f62cda09" d="M -3 3 
L 3 -3 
M -3 -3 
L 3 3 
" style="stroke: #e67e80; stroke-width: 1.5"/>
    </defs>
    <g clip-path="url(#pd0ca58fbb4)">
     <use xlink:href="#m47f62cda09" x="420.272013" y="379.647047" style="fill: #e67e80; stroke: #e67e80; stroke-width: 1.5"/>
     <use xlink:href="#m47f62cda09" x="396.932925" y="381.003574" style="fill: #e67e80; stroke: #e67e80; stroke-width: 1.5"/>
     <use xlink:href="#m47f62cda09" x="292.284494" y="372.372317" style="fill: #e67e80; stroke: #e67e80; stroke-width: 1.5"/>
     <use xlink:href="#m47f62cda09" x="268.946861" y="373.672058" style="fill: #e67e80; stroke: #e67e80; stroke-width: 1.5"/>
     <use xlink:href="#m47f62cda09" x="222.697876" y="367.900762" style="fill: #e67e80; stroke: #e67e80; stroke-width: 1.5"/>
     <use xlink:href="#m47f62cda09" x="200.782917" y="361.714676" style="fill: #e67e80; stroke: #e67e80; stroke-width: 1.5"/>
     <use xlink:href="#m47f62cda09" x="179.068804" y="358.112191" style="fill: #e67e80; stroke: #e67e80; stroke-width: 1.5"/>
     <use xlink:href="#m47f62cda09" x="173.698217" y="350.573058" style="fill: #e67e80; stroke: #e67e80; stroke-width: 1.5"/>
     <use xlink:href="#m47f62cda09" x="210.739506" y="202.925476" style="fill: #e67e80; stroke: #e67e80; stroke-width: 1.5"/>
     <use xlink:href="#m47f62cda09" x="218.884236" y="157.035514" style="fill: #e67e80; stroke: #e67e80; stroke-width: 1.5"/>
    </g>
   </g>
   <g id="PathCollection_2">
    <defs>
     <path id="m0c39fc8bb0" d="M -3 3 
L 3 -3 
M -3 -3 
L 3 3 
" style="stroke: #a7c080; stroke-width: 1.5"/>
    </defs>
    <g clip-path="url(#pd0ca58fbb4)">
     <use xlink:href="#m0c39fc8bb0" x="268.322986" y="346.65748" style="fill: #a7c080; stroke: #a7c080; stroke-width: 1.5"/>
     <use xlink:href="#m0c39fc8bb0" x="226.263523" y="337.021352" style="fill: #a7c080; stroke: #a7c080; stroke-width: 1.5"/>
     <use xlink:href="#m0c39fc8bb0" x="208.079499" y="322.220764" style="fill: #a7c080; stroke: #a7c080; stroke-width: 1.5"/>
     <use xlink:href="#m0c39fc8bb0" x="183.08567" y="342.299884" style="fill: #a7c080; stroke: #a7c080; stroke-width: 1.5"/>
     <use xlink:href="#m0c39fc8bb0" x="186.207348" y="305.434619" style="fill: #a7c080; stroke: #a7c080; stroke-width: 1.5"/>
    </g>
   </g>
   <g id="PathCollection_3">
    <defs>
     <path id="me7acd7f8ee" d="M -3 3 
L 3 -3 
M -3 -3 
L 3 3 
" style="stroke: #7fbbb3; stroke-width: 1.5"/>
    </defs>
    <g clip-path="url(#pd0ca58fbb4)">
     <use xlink:href="#me7acd7f8ee" x="268.136577" y="338.585767" style="fill: #7fbbb3; stroke: #7fbbb3; stroke-width: 1.5"/>
     <use xlink:href="#me7acd7f8ee" x="230.196364" y="302.961949" style="fill: #7fbbb3; stroke: #7fbbb3; stroke-width: 1.5"/>
     <use xlink:href="#me7acd7f8ee" x="216.036719" y="279.151051" style="fill: #7fbbb3; stroke: #7fbbb3; stroke-width: 1.5"/>
     <use xlink:href="#me7acd7f8ee" x="208.423968" y="242.556203" style="fill: #7fbbb3; stroke: #7fbbb3; stroke-width: 1.5"/>
     <use xlink:href="#me7acd7f8ee" x="207.963674" y="226.928241" style="fill: #7fbbb3; stroke: #7fbbb3; stroke-width: 1.5"/>
    </g>
   </g>
   <g id="line2d_1">
    <path d="M 58.218537 386.538201 
L 464.036719 386.538201 
L 261.127628 35.089347 
L 58.218537 386.538201 
" clip-path="url(#pd0ca58fbb4)" style="fill: none; stroke: #000000; stroke-width: 2; stroke-linecap: square"/>
   </g>
   <g id="line2d_2">
    <path d="M 78.509446 351.393316 
L 98.800355 386.538201 
" clip-path="url(#pd0ca58fbb4)" style="fill: none; stroke: #808080; stroke-opacity: 0.6; stroke-width: 0.5; stroke-linecap: square"/>
   </g>
   <g id="line2d_3">
    <path d="M 78.509446 351.393316 
L 443.74581 351.393316 
" clip-path="url(#pd0ca58fbb4)" style="fill: none; stroke: #808080; stroke-opacity: 0.6; stroke-width: 0.5; stroke-linecap: square"/>
   </g>
   <g id="line2d_4">
    <path d="M 98.800355 386.538201 
L 281.418537 70.234232 
" clip-path="url(#pd0ca58fbb4)" style="fill: none; stroke: #808080; stroke-opacity: 0.6; stroke-width: 0.5; stroke-linecap: square"/>
   </g>
   <g id="line2d_5">
    <path d="M 98.800355 316.24843 
L 139.382173 386.538201 
" clip-path="url(#pd0ca58fbb4)" style="fill: none; stroke: #808080; stroke-opacity: 0.6; stroke-width: 0.5; stroke-linecap: square"/>
   </g>
   <g id="line2d_6">
    <path d="M 98.800355 316.24843 
L 423.454901 316.24843 
" clip-path="url(#pd0ca58fbb4)" style="fill: none; stroke: #808080; stroke-opacity: 0.6; stroke-width: 0.5; stroke-linecap: square"/>
   </g>
   <g id="line2d_7">
    <path d="M 139.382173 386.538201 
L 301.709446 105.379118 
" clip-path="url(#pd0ca58fbb4)" style="fill: none; stroke: #808080; stroke-opacity: 0.6; stroke-width: 0.5; stroke-linecap: square"/>
   </g>
   <g id="line2d_8">
    <path d="M 119.091264 281.103545 
L 179.963991 386.538201 
" clip-path="url(#pd0ca58fbb4)" style="fill: none; stroke: #808080; stroke-opacity: 0.6; stroke-width: 0.5; stroke-linecap: square"/>
   </g>
   <g id="line2d_9">
    <path d="M 119.091264 281.103545 
L 403.163991 281.103545 
" clip-path="url(#pd0ca58fbb4)" style="fill: none; stroke: #808080; stroke-opacity: 0.6; stroke-width: 0.5; stroke-linecap: square"/>
   </g>
   <g id="line2d_10">
    <path d="M 179.963991 386.538201 
L 322.000355 140.524003 
" clip-path="url(#pd0ca58fbb4)" style="fill: none; stroke: #808080; stroke-opacity: 0.6; stroke-width: 0.5; stroke-linecap: square"/>
   </g>
   <g id="line2d_11">
    <path d="M 139.382173 245.958659 
L 220.54581 386.538201 
" clip-path="url(#pd0ca58fbb4)" style="fill: none; stroke: #808080; stroke-opacity: 0.6; stroke-width: 0.5; stroke-linecap: square"/>
   </g>
   <g id="line2d_12">
    <path d="M 139.382173 245.958659 
L 382.873082 245.958659 
" clip-path="url(#pd0ca58fbb4)" style="fill: none; stroke: #808080; stroke-opacity: 0.6; stroke-width: 0.5; stroke-linecap: square"/>
   </g>
   <g id="line2d_13">
    <path d="M 220.54581 386.538201 
L 342.291264 175.668888 
" clip-path="url(#pd0ca58fbb4)" style="fill: none; stroke: #808080; stroke-opacity: 0.6; stroke-width: 0.5; stroke-linecap: square"/>
   </g>
   <g id="line2d_14">
    <path d="M 159.673082 210.813774 
L 261.127628 386.538201 
" clip-path="url(#pd0ca58fbb4)" style="fill: none; stroke: #808080; stroke-opacity: 0.6; stroke-width: 0.5; stroke-linecap: square"/>
   </g>
   <g id="line2d_15">
    <path d="M 159.673082 210.813774 
L 362.582173 210.813774 
" clip-path="url(#pd0ca58fbb4)" style="fill: none; stroke: #808080; stroke-opacity: 0.6; stroke-width: 0.5; stroke-linecap: square"/>
   </g>
   <g id="line2d_16">
    <path d="M 261.127628 386.538201 
L 362.582173 210.813774 
" clip-path="url(#pd0ca58fbb4)" style="fill: none; stroke: #808080; stroke-opacity: 0.6; stroke-width: 0.5; stroke-linecap: square"/>
   </g>
   <g id="line2d_17">
    <path d="M 179.963991 175.668888 
L 301.709446 386.538201 
" clip-path="url(#pd0ca58fbb4)" style="fill: none; stroke: #808080; stroke-opacity: 0.6; stroke-width: 0.5; stroke-linecap: square"/>
   </g>
   <g id="line2d_18">
    <path d="M 179.963991 175.668888 
L 342.291264 175.668888 
" clip-path="url(#pd0ca58fbb4)" style="fill: none; stroke: #808080; stroke-opacity: 0.6; stroke-width: 0.5; stroke-linecap: square"/>
   </g>
   <g id="line2d_19">
    <path d="M 301.709446 386.538201 
L 382.873082 245.958659 
" clip-path="url(#pd0ca58fbb4)" style="fill: none; stroke: #808080; stroke-opacity: 0.6; stroke-width: 0.5; stroke-linecap: square"/>
   </g>
   <g id="line2d_20">
    <path d="M 200.254901 140.524003 
L 342.291264 386.538201 
" clip-path="url(#pd0ca58fbb4)" style="fill: none; stroke: #808080; stroke-opacity: 0.6; stroke-width: 0.5; stroke-linecap: square"/>
   </g>
   <g id="line2d_21">
    <path d="M 200.254901 140.524003 
L 322.000355 140.524003 
" clip-path="url(#pd0ca58fbb4)" style="fill: none; stroke: #808080; stroke-opacity: 0.6; stroke-width: 0.5; stroke-linecap: square"/>
   </g>
   <g id="line2d_22">
    <path d="M 342.291264 386.538201 
L 403.163991 281.103545 
" clip-path="url(#pd0ca58fbb4)" style="fill: none; stroke: #808080; stroke-opacity: 0.6; stroke-width: 0.5; stroke-linecap: square"/>
   </g>
   <g id="line2d_23">
    <path d="M 220.54581 105.379118 
L 382.873082 386.538201 
" clip-path="url(#pd0ca58fbb4)" style="fill: none; stroke: #808080; stroke-opacity: 0.6; stroke-width: 0.5; stroke-linecap: square"/>
   </g>
   <g id="line2d_24">
    <path d="M 220.54581 105.379118 
L 301.709446 105.379118 
" clip-path="url(#pd0ca58fbb4)" style="fill: none; stroke: #808080; stroke-opacity: 0.6; stroke-width: 0.5; stroke-linecap: square"/>
   </g>
   <g id="line2d_25">
    <path d="M 382.873082 386.538201 
L 423.454901 316.24843 
" clip-path="url(#pd0ca58fbb4)" style="fill: none; stroke: #808080; stroke-opacity: 0.6; stroke-width: 0.5; stroke-linecap: square"/>
   </g>
   <g id="line2d_26">
    <path d="M 240.836719 70.234232 
L 423.454901 386.538201 
" clip-path="url(#pd0ca58fbb4)" style="fill: none; stroke: #808080; stroke-opacity: 0.6; stroke-width: 0.5; stroke-linecap: square"/>
   </g>
   <g id="line2d_27">
    <path d="M 240.836719 70.234232 
L 281.418537 70.234232 
" clip-path="url(#pd0ca58fbb4)" style="fill: none; stroke: #808080; stroke-opacity: 0.6; stroke-width: 0.5; stroke-linecap: square"/>
   </g>
   <g id="line2d_28">
    <path d="M 423.454901 386.538201 
L 443.74581 351.393316 
" clip-path="url(#pd0ca58fbb4)" style="fill: none; stroke: #808080; stroke-opacity: 0.6; stroke-width: 0.5; stroke-linecap: square"/>
   </g>
   <g id="line2d_29">
    <path d="M 464.036719 386.538201 
L 459.789171 384.560184 
L 455.527904 382.957738 
L 451.253955 381.697077 
L 446.96836 380.744412 
L 442.672154 380.065953 
L 438.366375 379.627914 
L 434.052057 379.396505 
L 429.730237 379.337938 
L 423.235708 379.500253 
L 414.559749 380.006263 
L 401.527102 380.83676 
L 395.00992 381.037728 
L 388.495508 380.995275 
L 381.983817 380.733619 
L 375.474576 380.28555 
L 366.798935 379.454823 
L 355.958866 378.150765 
L 321.290148 373.69446 
L 312.624288 372.917739 
L 306.124436 372.521515 
L 299.623894 372.321425 
L 293.122391 372.350258 
L 286.619114 372.621649 
L 267.053554 373.730217 
L 260.503147 373.76937 
L 253.953399 373.54049 
L 247.420317 373.021298 
L 240.919913 372.189512 
L 236.612369 371.450323 
L 232.331208 370.555699 
L 228.081173 369.499038 
L 223.867006 368.27374 
L 217.614408 366.149842 
L 211.387764 364.014614 
L 207.209708 362.819077 
L 202.981079 361.970078 
L 200.840029 361.719506 
L 196.501741 361.56531 
L 189.948298 361.487246 
L 187.779144 361.294973 
L 185.629151 360.933275 
L 183.505218 360.350376 
L 181.414245 359.494497 
L 179.363131 358.313859 
L 177.380754 356.777967 
L 175.63268 354.988674 
L 174.336932 353.098628 
L 173.711642 351.260581 
L 173.958453 349.618314 
L 175.031636 348.181034 
L 176.694712 346.85417 
L 180.824921 344.142697 
L 182.809245 342.563591 
L 184.446318 340.720112 
L 185.704571 338.619698 
L 186.623585 336.305284 
L 187.243109 333.819887 
L 187.602892 331.206525 
L 187.742682 328.508215 
L 187.702229 325.767975 
L 187.239585 320.333775 
L 185.659674 307.498684 
L 185.78572 306.316866 
L 186.12901 305.523294 
L 186.723726 305.153308 
L 187.56768 305.192091 
L 188.644079 305.604678 
L 189.936087 306.356049 
L 191.426871 307.411187 
L 194.937428 310.292687 
L 201.273223 316.017716 
L 208.488957 322.58565 
L 213.57836 327.009717 
L 218.796632 331.334164 
L 224.077928 335.487847 
L 229.356405 339.399622 
L 234.566218 342.998345 
L 239.641523 346.21287 
L 244.516477 348.972055 
L 249.125236 351.204755 
L 251.309215 352.101441 
L 253.401954 352.839826 
L 255.395223 353.411018 
L 257.28079 353.806123 
L 259.050425 354.016249 
L 260.695897 354.032503 
L 262.208977 353.845991 
L 263.581434 353.44782 
L 264.805036 352.829099 
L 265.871554 351.980932 
L 266.772757 350.894428 
L 267.500415 349.560694 
L 268.046297 347.970836 
L 268.402203 346.11637 
L 268.562768 344.027148 
L 268.527738 341.802112 
L 268.297392 339.547442 
L 267.872371 337.365873 
L 267.259468 335.300869 
L 266.470665 333.345966 
L 265.518105 331.49314 
L 264.41393 329.734367 
L 263.170283 328.061622 
L 261.799308 326.466882 
L 260.313146 324.942123 
L 257.043837 322.07045 
L 253.459499 319.382412 
L 249.657275 316.813815 
L 237.914716 309.182754 
L 234.212378 306.450001 
L 230.777869 303.51573 
L 229.190681 301.953516 
L 226.289893 298.634784 
L 223.724608 295.08738 
L 221.459276 291.3481 
L 219.458349 287.45374 
L 217.686279 283.441095 
L 216.107518 279.346962 
L 214.690816 275.20342 
L 213.424766 271.020792 
L 211.79571 264.68243 
L 210.473608 258.278919 
L 209.439251 251.823936 
L 208.673433 245.331155 
L 208.159279 238.814321 
L 207.918687 232.288298 
L 207.936813 227.940306 
L 208.114104 223.599542 
L 208.658203 217.103745 
L 209.481155 210.62473 
L 210.521004 204.160631 
L 212.137777 195.561805 
L 216.805207 171.998521 
L 217.845343 165.58471 
L 218.668678 159.172747 
L 218.884236 157.035514 
L 218.884236 157.035514 
" clip-path="url(#pd0ca58fbb4)" style="fill: none; stroke-dasharray: 1.2,1.98; stroke-dashoffset: 0; stroke: #ffa500; stroke-opacity: 0.6; stroke-width: 1.2"/>
   </g>
   <g id="line2d_30">
    <path d="M 218.884236 157.035514 
L 261.127628 35.089347 
" clip-path="url(#pd0ca58fbb4)" style="fill: none; stroke-dasharray: 1.2,1.98; stroke-dashoffset: 0; stroke: #ffa500; stroke-opacity: 0.6; stroke-width: 1.2"/>
   </g>
   <g id="line2d_31">
    <path d="M 464.036719 386.538201 
L 459.805487 384.566895 
L 455.561035 382.96843 
L 451.304335 381.709406 
L 447.036359 380.756422 
L 442.758079 380.076075 
L 438.470467 379.634964 
L 434.174496 379.399688 
L 429.871137 379.336845 
L 423.404375 379.492828 
L 414.765242 379.992573 
L 401.78638 380.824635 
L 395.294975 381.033907 
L 388.805549 381.001531 
L 382.318246 380.749875 
L 375.832973 380.311421 
L 367.188945 379.492379 
L 356.38843 378.200078 
L 321.855791 373.744135 
L 313.22841 372.954826 
L 306.759119 372.544915 
L 300.290793 372.327155 
L 293.823341 372.334027 
L 287.355877 372.585114 
L 265.682992 373.752524 
L 259.124361 373.720252 
L 252.566377 373.415912 
L 246.035039 372.822975 
L 239.556347 371.924914 
L 235.279305 371.148531 
L 231.044919 370.224295 
L 226.860893 369.147307 
L 222.734931 367.912671 
L 208.424481 363.186966 
L 204.160559 362.207142 
L 201.965597 361.855908 
L 197.43139 361.476973 
L 188.286922 361.074852 
L 186.116046 360.799995 
L 184.036314 360.370021 
L 182.070249 359.742238 
L 180.240374 358.873954 
L 178.56912 357.722869 
L 177.07211 356.274879 
L 175.753744 354.562411 
L 174.61737 352.622242 
L 173.666337 350.491151 
L 172.901948 348.20338 
L 172.318196 345.784088 
L 171.907432 343.256403 
L 171.662011 340.643455 
L 171.574286 337.96837 
L 171.636612 335.254277 
L 171.841342 332.524304 
L 172.180829 329.801579 
L 172.647428 327.10923 
L 173.233492 324.470386 
L 173.931375 321.908174 
L 174.733431 319.445722 
L 175.632013 317.10616 
L 176.619476 314.912614 
L 177.688172 312.888213 
L 178.830456 311.056085 
L 180.038681 309.439358 
L 181.305202 308.06116 
L 182.622371 306.94462 
L 183.982543 306.112865 
L 185.378072 305.589024 
L 186.801465 305.395634 
L 188.250765 305.534256 
L 189.730911 305.980269 
L 191.247279 306.707408 
L 192.805243 307.689408 
L 194.41018 308.900005 
L 197.782469 311.901928 
L 203.327566 317.462661 
L 209.584818 323.66336 
L 214.17522 327.854594 
L 219.023013 331.984281 
L 224.04695 335.976017 
L 229.165786 339.753398 
L 234.298274 343.240019 
L 239.363169 346.359477 
L 244.279224 349.035368 
L 248.965194 351.191287 
L 251.196508 352.050381 
L 253.339833 352.75083 
L 255.385014 353.283085 
L 257.321895 353.637595 
L 259.14032 353.804808 
L 260.830134 353.775175 
L 262.38118 353.539146 
L 263.783304 353.087168 
L 265.026348 352.409693 
L 266.100158 351.49717 
L 266.994578 350.340048 
L 267.699452 348.928776 
L 268.204624 347.253804 
L 268.500765 345.311643 
L 268.587744 343.166347 
L 268.471185 340.924204 
L 268.156802 338.692147 
L 267.651194 336.560621 
L 266.965082 334.54374 
L 266.110378 332.633551 
L 265.098994 330.822096 
L 263.942839 329.101419 
L 262.653827 327.463562 
L 261.243868 325.90057 
L 258.108756 322.967349 
L 254.632795 320.238101 
L 250.911276 317.649173 
L 235.475454 307.423559 
L 231.95552 304.581407 
L 228.759615 301.499312 
L 225.921553 298.160974 
L 223.409952 294.600311 
L 221.190089 290.853816 
L 219.227242 286.95798 
L 217.486688 282.949295 
L 215.933705 278.864251 
L 214.539489 274.73271 
L 213.294449 270.563008 
L 211.694133 264.245597 
L 210.39742 257.864676 
L 209.385084 251.433659 
L 208.637899 244.965955 
L 208.139683 238.475072 
L 207.915027 231.975782 
L 207.94372 227.645991 
L 208.130658 223.323579 
L 208.684918 216.85515 
L 209.513441 210.403314 
L 210.555014 203.966219 
L 212.169393 195.403163 
L 216.816241 171.937153 
L 217.850678 165.549676 
L 218.669686 159.163995 
L 218.884236 157.035514 
L 218.884236 157.035514 
" clip-path="url(#pd0ca58fbb4)" style="fill: none; stroke: #ffa500; stroke-opacity: 0.6; stroke-width: 1.2; stroke-linecap: square"/>
   </g>
   <g id="line2d_32">
    <path d="M 218.884236 157.035514 
L 261.127628 35.089347 
" clip-path="url(#pd0ca58fbb4)" style="fill: none; stroke: #ffa500; stroke-opacity: 0.6; stroke-width: 1.2; stroke-linecap: square"/>
   </g>
   <g id="text_1">
    <!-- 0 -->
    <g transform="translate(237.357812 14.798437) scale(0.1 -0.1)">
     <defs>
      <path id="DejaVuSans-Bold-30" d="M 2944 2338 
Q 2944 3213 2780 3570 
Q 2616 3928 2228 3928 
Q 1841 3928 1675 3570 
Q 1509 3213 1509 2338 
Q 1509 1453 1675 1090 
Q 1841 728 2228 728 
Q 2613 728 2778 1090 
Q 2944 1453 2944 2338 
z
M 4147 2328 
Q 4147 1169 3647 539 
Q 3147 -91 2228 -91 
Q 1306 -91 806 539 
Q 306 1169 306 2328 
Q 306 3491 806 4120 
Q 1306 4750 2228 4750 
Q 3147 4750 3647 4120 
Q 4147 3491 4147 2328 
z
" transform="scale(0.015625)"/>
     </defs>
     <use xlink:href="#DejaVuSans-Bold-30"/>
    </g>
   </g>
   <g id="text_2">
    <!-- 100 -->
    <g transform="translate(270.981818 14.798437) scale(0.1 -0.1)">
     <defs>
      <path id="DejaVuSans-Bold-31" d="M 750 831 
L 1813 831 
L 1813 3847 
L 722 3622 
L 722 4441 
L 1806 4666 
L 2950 4666 
L 2950 831 
L 4013 831 
L 4013 0 
L 750 0 
L 750 831 
z
" transform="scale(0.015625)"/>
     </defs>
     <use xlink:href="#DejaVuSans-Bold-31"/>
     <use xlink:href="#DejaVuSans-Bold-30" transform="translate(69.580078 0)"/>
     <use xlink:href="#DejaVuSans-Bold-30" transform="translate(139.160156 0)"/>
    </g>
   </g>
   <g id="text_3">
    <!-- 100 -->
    <g transform="translate(7.2 386.538201) scale(0.1 -0.1)">
     <use xlink:href="#DejaVuSans-Bold-31"/>
     <use xlink:href="#DejaVuSans-Bold-30" transform="translate(69.580078 0)"/>
     <use xlink:href="#DejaVuSans-Bold-30" transform="translate(139.160156 0)"/>
    </g>
   </g>
   <g id="text_4">
    <!-- 0 -->
    <g transform="translate(42.565085 410.887292) scale(0.1 -0.1)">
     <use xlink:href="#DejaVuSans-Bold-30"/>
    </g>
   </g>
   <g id="text_5">
    <!-- 100 -->
    <g transform="translate(465.774545 410.887292) scale(0.1 -0.1)">
     <use xlink:href="#DejaVuSans-Bold-31"/>
     <use xlink:href="#DejaVuSans-Bold-30" transform="translate(69.580078 0)"/>
     <use xlink:href="#DejaVuSans-Bold-30" transform="translate(139.160156 0)"/>
    </g>
   </g>
   <g id="text_6">
    <!-- 0 -->
    <g transform="translate(501.139631 386.538201) scale(0.1 -0.1)">
     <use xlink:href="#DejaVuSans-Bold-30"/>
    </g>
   </g>
   <g id="text_7">
    <!-- Tween-20 -->
    <g transform="translate(108.053219 211.853618) rotate(-60) scale(0.1 -0.1)">
     <defs>
      <path id="DejaVuSans-Bold-54" d="M 31 4666 
L 4331 4666 
L 4331 3756 
L 2784 3756 
L 2784 0 
L 1581 0 
L 1581 3756 
L 31 3756 
L 31 4666 
z
" transform="scale(0.015625)"/>
      <path id="DejaVuSans-Bold-77" d="M 225 3500 
L 1313 3500 
L 1900 1088 
L 2491 3500 
L 3425 3500 
L 4013 1113 
L 4603 3500 
L 5691 3500 
L 4769 0 
L 3547 0 
L 2956 2406 
L 2369 0 
L 1147 0 
L 225 3500 
z
" transform="scale(0.015625)"/>
      <path id="DejaVuSans-Bold-65" d="M 4031 1759 
L 4031 1441 
L 1416 1441 
Q 1456 1047 1700 850 
Q 1944 653 2381 653 
Q 2734 653 3104 758 
Q 3475 863 3866 1075 
L 3866 213 
Q 3469 63 3072 -14 
Q 2675 -91 2278 -91 
Q 1328 -91 801 392 
Q 275 875 275 1747 
Q 275 2603 792 3093 
Q 1309 3584 2216 3584 
Q 3041 3584 3536 3087 
Q 4031 2591 4031 1759 
z
M 2881 2131 
Q 2881 2450 2695 2645 
Q 2509 2841 2209 2841 
Q 1884 2841 1681 2658 
Q 1478 2475 1428 2131 
L 2881 2131 
z
" transform="scale(0.015625)"/>
      <path id="DejaVuSans-Bold-6e" d="M 4056 2131 
L 4056 0 
L 2931 0 
L 2931 347 
L 2931 1631 
Q 2931 2084 2911 2256 
Q 2891 2428 2841 2509 
Q 2775 2619 2662 2680 
Q 2550 2741 2406 2741 
Q 2056 2741 1856 2470 
Q 1656 2200 1656 1722 
L 1656 0 
L 538 0 
L 538 3500 
L 1656 3500 
L 1656 2988 
Q 1909 3294 2193 3439 
Q 2478 3584 2822 3584 
Q 3428 3584 3742 3212 
Q 4056 2841 4056 2131 
z
" transform="scale(0.015625)"/>
      <path id="DejaVuSans-Bold-2d" d="M 347 2297 
L 2309 2297 
L 2309 1388 
L 347 1388 
L 347 2297 
z
" transform="scale(0.015625)"/>
      <path id="DejaVuSans-Bold-32" d="M 1844 884 
L 3897 884 
L 3897 0 
L 506 0 
L 506 884 
L 2209 2388 
Q 2438 2594 2547 2791 
Q 2656 2988 2656 3200 
Q 2656 3528 2436 3728 
Q 2216 3928 1850 3928 
Q 1569 3928 1234 3808 
Q 900 3688 519 3450 
L 519 4475 
Q 925 4609 1322 4679 
Q 1719 4750 2100 4750 
Q 2938 4750 3402 4381 
Q 3866 4013 3866 3353 
Q 3866 2972 3669 2642 
Q 3472 2313 2841 1759 
L 1844 884 
z
" transform="scale(0.015625)"/>
     </defs>
     <use xlink:href="#DejaVuSans-Bold-54"/>
     <use xlink:href="#DejaVuSans-Bold-77" transform="translate(57.212891 0)"/>
     <use xlink:href="#DejaVuSans-Bold-65" transform="translate(149.595703 0)"/>
     <use xlink:href="#DejaVuSans-Bold-65" transform="translate(217.417969 0)"/>
     <use xlink:href="#DejaVuSans-Bold-6e" transform="translate(285.240234 0)"/>
     <use xlink:href="#DejaVuSans-Bold-2d" transform="translate(356.431641 0)"/>
     <use xlink:href="#DejaVuSans-Bold-32" transform="translate(397.935547 0)"/>
     <use xlink:href="#DejaVuSans-Bold-30" transform="translate(467.515625 0)"/>
    </g>
   </g>
   <g id="text_8">
    <!-- Water -->
    <g transform="translate(392.296959 182.487238) rotate(-300) scale(0.1 -0.1)">
     <defs>
      <path id="DejaVuSans-Bold-57" d="M 191 4666 
L 1344 4666 
L 2150 1275 
L 2950 4666 
L 4109 4666 
L 4909 1275 
L 5716 4666 
L 6859 4666 
L 5759 0 
L 4372 0 
L 3525 3547 
L 2688 0 
L 1300 0 
L 191 4666 
z
" transform="scale(0.015625)"/>
      <path id="DejaVuSans-Bold-61" d="M 2106 1575 
Q 1756 1575 1579 1456 
Q 1403 1338 1403 1106 
Q 1403 894 1545 773 
Q 1688 653 1941 653 
Q 2256 653 2472 879 
Q 2688 1106 2688 1447 
L 2688 1575 
L 2106 1575 
z
M 3816 1997 
L 3816 0 
L 2688 0 
L 2688 519 
Q 2463 200 2181 54 
Q 1900 -91 1497 -91 
Q 953 -91 614 226 
Q 275 544 275 1050 
Q 275 1666 698 1953 
Q 1122 2241 2028 2241 
L 2688 2241 
L 2688 2328 
Q 2688 2594 2478 2717 
Q 2269 2841 1825 2841 
Q 1466 2841 1156 2769 
Q 847 2697 581 2553 
L 581 3406 
Q 941 3494 1303 3539 
Q 1666 3584 2028 3584 
Q 2975 3584 3395 3211 
Q 3816 2838 3816 1997 
z
" transform="scale(0.015625)"/>
      <path id="DejaVuSans-Bold-74" d="M 1759 4494 
L 1759 3500 
L 2913 3500 
L 2913 2700 
L 1759 2700 
L 1759 1216 
Q 1759 972 1856 886 
Q 1953 800 2241 800 
L 2816 800 
L 2816 0 
L 1856 0 
Q 1194 0 917 276 
Q 641 553 641 1216 
L 641 2700 
L 84 2700 
L 84 3500 
L 641 3500 
L 641 4494 
L 1759 4494 
z
" transform="scale(0.015625)"/>
      <path id="DejaVuSans-Bold-72" d="M 3138 2547 
Q 2991 2616 2845 2648 
Q 2700 2681 2553 2681 
Q 2122 2681 1889 2404 
Q 1656 2128 1656 1613 
L 1656 0 
L 538 0 
L 538 3500 
L 1656 3500 
L 1656 2925 
Q 1872 3269 2151 3426 
Q 2431 3584 2822 3584 
Q 2878 3584 2943 3579 
Q 3009 3575 3134 3559 
L 3138 2547 
z
" transform="scale(0.015625)"/>
     </defs>
     <use xlink:href="#DejaVuSans-Bold-57"/>
     <use xlink:href="#DejaVuSans-Bold-61" transform="translate(106.677734 0)"/>
     <use xlink:href="#DejaVuSans-Bold-74" transform="translate(174.158203 0)"/>
     <use xlink:href="#DejaVuSans-Bold-65" transform="translate(221.960938 0)"/>
     <use xlink:href="#DejaVuSans-Bold-72" transform="translate(289.783203 0)"/>
    </g>
   </g>
   <g id="text_9">
    <!-- Peppermint Oil -->
    <g transform="translate(218.763565 427.12002) scale(0.1 -0.1)">
     <defs>
      <path id="DejaVuSans-Bold-50" d="M 588 4666 
L 2584 4666 
Q 3475 4666 3951 4270 
Q 4428 3875 4428 3144 
Q 4428 2409 3951 2014 
Q 3475 1619 2584 1619 
L 1791 1619 
L 1791 0 
L 588 0 
L 588 4666 
z
M 1791 3794 
L 1791 2491 
L 2456 2491 
Q 2806 2491 2997 2661 
Q 3188 2831 3188 3144 
Q 3188 3456 2997 3625 
Q 2806 3794 2456 3794 
L 1791 3794 
z
" transform="scale(0.015625)"/>
      <path id="DejaVuSans-Bold-70" d="M 1656 506 
L 1656 -1331 
L 538 -1331 
L 538 3500 
L 1656 3500 
L 1656 2988 
Q 1888 3294 2169 3439 
Q 2450 3584 2816 3584 
Q 3463 3584 3878 3070 
Q 4294 2556 4294 1747 
Q 4294 938 3878 423 
Q 3463 -91 2816 -91 
Q 2450 -91 2169 54 
Q 1888 200 1656 506 
z
M 2400 2772 
Q 2041 2772 1848 2508 
Q 1656 2244 1656 1747 
Q 1656 1250 1848 986 
Q 2041 722 2400 722 
Q 2759 722 2948 984 
Q 3138 1247 3138 1747 
Q 3138 2247 2948 2509 
Q 2759 2772 2400 2772 
z
" transform="scale(0.015625)"/>
      <path id="DejaVuSans-Bold-6d" d="M 3781 2919 
Q 3994 3244 4286 3414 
Q 4578 3584 4928 3584 
Q 5531 3584 5847 3212 
Q 6163 2841 6163 2131 
L 6163 0 
L 5038 0 
L 5038 1825 
Q 5041 1866 5042 1909 
Q 5044 1953 5044 2034 
Q 5044 2406 4934 2573 
Q 4825 2741 4581 2741 
Q 4263 2741 4089 2478 
Q 3916 2216 3909 1719 
L 3909 0 
L 2784 0 
L 2784 1825 
Q 2784 2406 2684 2573 
Q 2584 2741 2328 2741 
Q 2006 2741 1831 2477 
Q 1656 2213 1656 1722 
L 1656 0 
L 531 0 
L 531 3500 
L 1656 3500 
L 1656 2988 
Q 1863 3284 2130 3434 
Q 2397 3584 2719 3584 
Q 3081 3584 3359 3409 
Q 3638 3234 3781 2919 
z
" transform="scale(0.015625)"/>
      <path id="DejaVuSans-Bold-69" d="M 538 3500 
L 1656 3500 
L 1656 0 
L 538 0 
L 538 3500 
z
M 538 4863 
L 1656 4863 
L 1656 3950 
L 538 3950 
L 538 4863 
z
" transform="scale(0.015625)"/>
      <path id="DejaVuSans-Bold-20" transform="scale(0.015625)"/>
      <path id="DejaVuSans-Bold-4f" d="M 2719 3878 
Q 2169 3878 1866 3472 
Q 1563 3066 1563 2328 
Q 1563 1594 1866 1187 
Q 2169 781 2719 781 
Q 3272 781 3575 1187 
Q 3878 1594 3878 2328 
Q 3878 3066 3575 3472 
Q 3272 3878 2719 3878 
z
M 2719 4750 
Q 3844 4750 4481 4106 
Q 5119 3463 5119 2328 
Q 5119 1197 4481 553 
Q 3844 -91 2719 -91 
Q 1597 -91 958 553 
Q 319 1197 319 2328 
Q 319 3463 958 4106 
Q 1597 4750 2719 4750 
z
" transform="scale(0.015625)"/>
      <path id="DejaVuSans-Bold-6c" d="M 538 4863 
L 1656 4863 
L 1656 0 
L 538 0 
L 538 4863 
z
" transform="scale(0.015625)"/>
     </defs>
     <use xlink:href="#DejaVuSans-Bold-50"/>
     <use xlink:href="#DejaVuSans-Bold-65" transform="translate(73.291016 0)"/>
     <use xlink:href="#DejaVuSans-Bold-70" transform="translate(141.113281 0)"/>
     <use xlink:href="#DejaVuSans-Bold-70" transform="translate(212.695312 0)"/>
     <use xlink:href="#DejaVuSans-Bold-65" transform="translate(284.277344 0)"/>
     <use xlink:href="#DejaVuSans-Bold-72" transform="translate(352.099609 0)"/>
     <use xlink:href="#DejaVuSans-Bold-6d" transform="translate(401.416016 0)"/>
     <use xlink:href="#DejaVuSans-Bold-69" transform="translate(505.615234 0)"/>
     <use xlink:href="#DejaVuSans-Bold-6e" transform="translate(539.892578 0)"/>
     <use xlink:href="#DejaVuSans-Bold-74" transform="translate(611.083984 0)"/>
     <use xlink:href="#DejaVuSans-Bold-20" transform="translate(658.886719 0)"/>
     <use xlink:href="#DejaVuSans-Bold-4f" transform="translate(693.701172 0)"/>
     <use xlink:href="#DejaVuSans-Bold-69" transform="translate(778.710938 0)"/>
     <use xlink:href="#DejaVuSans-Bold-6c" transform="translate(812.988281 0)"/>
    </g>
   </g>
  </g>
 </g>
 <defs>
  <clipPath id="pd0ca58fbb4">
   <rect x="37.927628" y="17.516904" width="446.4" height="386.59374"/>
  </clipPath>
 </defs>
</svg>
