<?xml version="1.0" encoding="utf-8" standalone="no"?>
<!DOCTYPE svg PUBLIC "-//W3C//DTD SVG 1.1//EN"
  "http://www.w3.org/Graphics/SVG/1.1/DTD/svg11.dtd">
<svg xmlns:xlink="http://www.w3.org/1999/xlink" width="513.290625pt" height="266.594375pt" viewBox="0 0 513.290625 266.594375" xmlns="http://www.w3.org/2000/svg" version="1.1">
 <metadata>
  <rdf:RDF xmlns:dc="http://purl.org/dc/elements/1.1/" xmlns:cc="http://creativecommons.org/ns#" xmlns:rdf="http://www.w3.org/1999/02/22-rdf-syntax-ns#">
   <cc:Work>
    <dc:type rdf:resource="http://purl.org/dc/dcmitype/StillImage"/>
    <dc:date>2026-04-14T09:18:08.670288</dc:date>
    <dc:format>image/svg+xml</dc:format>
    <dc:creator>
     <cc:Agent>
      <dc:title>Matplotlib v3.10.8, https://matplotlib.org/</dc:title>
     </cc:Agent>
    </dc:creator>
   </cc:Work>
  </rdf:RDF>
 </metadata>
 <defs>
  <style type="text/css">*{stroke-linejoin: round; stroke-linecap: butt}</style>
 </defs>
 <g id="figure_1">
  <g id="patch_1">
   <path d="M 0 266.594375 
L 513.290625 266.594375 
L 513.290625 0 
L 0 0 
z
" style="fill: #ffffff"/>
  </g>
  <g id="axes_1">
   <g id="patch_2">
    <path d="M 59.690625 228.96 
L 506.090625 228.96 
L 506.090625 7.2 
L 59.690625 7.2 
z
" style="fill: #ffffff"/>
   </g>
   <g id="matplotlib.axis_1">
    <g id="xtick_1">
     <g id="line2d_1">
      <path d="M 79.981534 228.96 
L 79.981534 7.2 
" clip-path="url(#pdfebad8ac4)" style="fill: none; stroke: #b0b0b0; stroke-opacity: 0.3; stroke-width: 0.8; stroke-linecap: square"/>
     </g>
     <g id="line2d_2">
      <defs>
       <path id="mfcdb55ece2" d="M 0 0 
L 0 3.5 
" style="stroke: #000000; stroke-width: 0.8"/>
      </defs>
      <g>
       <use xlink:href="#mfcdb55ece2" x="79.981534" y="228.96" style="stroke: #000000; stroke-width: 0.8"/>
      </g>
     </g>
     <g id="text_1">
      <!-- 10 -->
      <g transform="translate(73.619034 243.558438) scale(0.1 -0.1)">
       <defs>
        <path id="DejaVuSans-31" d="M 794 531 
L 1825 531 
L 1825 4091 
L 703 3866 
L 703 4441 
L 1819 4666 
L 2450 4666 
L 2450 531 
L 3481 531 
L 3481 0 
L 794 0 
L 794 531 
z
" transform="scale(0.015625)"/>
        <path id="DejaVuSans-30" d="M 2034 4250 
Q 1547 4250 1301 3770 
Q 1056 3291 1056 2328 
Q 1056 1369 1301 889 
Q 1547 409 2034 409 
Q 2525 409 2770 889 
Q 3016 1369 3016 2328 
Q 3016 3291 2770 3770 
Q 2525 4250 2034 4250 
z
M 2034 4750 
Q 2819 4750 3233 4129 
Q 3647 3509 3647 2328 
Q 3647 1150 3233 529 
Q 2819 -91 2034 -91 
Q 1250 -91 836 529 
Q 422 1150 422 2328 
Q 422 3509 836 4129 
Q 1250 4750 2034 4750 
z
" transform="scale(0.015625)"/>
       </defs>
       <use xlink:href="#DejaVuSans-31"/>
       <use xlink:href="#DejaVuSans-30" transform="translate(63.623047 0)"/>
      </g>
     </g>
    </g>
    <g id="xtick_2">
     <g id="line2d_3">
      <path d="M 130.712773 228.96 
L 130.712773 7.2 
" clip-path="url(#pdfebad8ac4)" style="fill: none; stroke: #b0b0b0; stroke-opacity: 0.3; stroke-width: 0.8; stroke-linecap: square"/>
     </g>
     <g id="line2d_4">
      <g>
       <use xlink:href="#mfcdb55ece2" x="130.712773" y="228.96" style="stroke: #000000; stroke-width: 0.8"/>
      </g>
     </g>
     <g id="text_2">
      <!-- 20 -->
      <g transform="translate(124.350273 243.558438) scale(0.1 -0.1)">
       <defs>
        <path id="DejaVuSans-32" d="M 1228 531 
L 3431 531 
L 3431 0 
L 469 0 
L 469 531 
Q 828 903 1448 1529 
Q 2069 2156 2228 2338 
Q 2531 2678 2651 2914 
Q 2772 3150 2772 3378 
Q 2772 3750 2511 3984 
Q 2250 4219 1831 4219 
Q 1534 4219 1204 4116 
Q 875 4013 500 3803 
L 500 4441 
Q 881 4594 1212 4672 
Q 1544 4750 1819 4750 
Q 2544 4750 2975 4387 
Q 3406 4025 3406 3419 
Q 3406 3131 3298 2873 
Q 3191 2616 2906 2266 
Q 2828 2175 2409 1742 
Q 1991 1309 1228 531 
z
" transform="scale(0.015625)"/>
       </defs>
       <use xlink:href="#DejaVuSans-32"/>
       <use xlink:href="#DejaVuSans-30" transform="translate(63.623047 0)"/>
      </g>
     </g>
    </g>
    <g id="xtick_3">
     <g id="line2d_5">
      <path d="M 181.444011 228.96 
L 181.444011 7.2 
" clip-path="url(#pdfebad8ac4)" style="fill: none; stroke: #b0b0b0; stroke-opacity: 0.3; stroke-width: 0.8; stroke-linecap: square"/>
     </g>
     <g id="line2d_6">
      <g>
       <use xlink:href="#mfcdb55ece2" x="181.444011" y="228.96" style="stroke: #000000; stroke-width: 0.8"/>
      </g>
     </g>
     <g id="text_3">
      <!-- 30 -->
      <g transform="translate(175.081511 243.558438) scale(0.1 -0.1)">
       <defs>
        <path id="DejaVuSans-33" d="M 2597 2516 
Q 3050 2419 3304 2112 
Q 3559 1806 3559 1356 
Q 3559 666 3084 287 
Q 2609 -91 1734 -91 
Q 1441 -91 1130 -33 
Q 819 25 488 141 
L 488 750 
Q 750 597 1062 519 
Q 1375 441 1716 441 
Q 2309 441 2620 675 
Q 2931 909 2931 1356 
Q 2931 1769 2642 2001 
Q 2353 2234 1838 2234 
L 1294 2234 
L 1294 2753 
L 1863 2753 
Q 2328 2753 2575 2939 
Q 2822 3125 2822 3475 
Q 2822 3834 2567 4026 
Q 2313 4219 1838 4219 
Q 1578 4219 1281 4162 
Q 984 4106 628 3988 
L 628 4550 
Q 988 4650 1302 4700 
Q 1616 4750 1894 4750 
Q 2613 4750 3031 4423 
Q 3450 4097 3450 3541 
Q 3450 3153 3228 2886 
Q 3006 2619 2597 2516 
z
" transform="scale(0.015625)"/>
       </defs>
       <use xlink:href="#DejaVuSans-33"/>
       <use xlink:href="#DejaVuSans-30" transform="translate(63.623047 0)"/>
      </g>
     </g>
    </g>
    <g id="xtick_4">
     <g id="line2d_7">
      <path d="M 232.17525 228.96 
L 232.17525 7.2 
" clip-path="url(#pdfebad8ac4)" style="fill: none; stroke: #b0b0b0; stroke-opacity: 0.3; stroke-width: 0.8; stroke-linecap: square"/>
     </g>
     <g id="line2d_8">
      <g>
       <use xlink:href="#mfcdb55ece2" x="232.17525" y="228.96" style="stroke: #000000; stroke-width: 0.8"/>
      </g>
     </g>
     <g id="text_4">
      <!-- 40 -->
      <g transform="translate(225.81275 243.558438) scale(0.1 -0.1)">
       <defs>
        <path id="DejaVuSans-34" d="M 2419 4116 
L 825 1625 
L 2419 1625 
L 2419 4116 
z
M 2253 4666 
L 3047 4666 
L 3047 1625 
L 3713 1625 
L 3713 1100 
L 3047 1100 
L 3047 0 
L 2419 0 
L 2419 1100 
L 313 1100 
L 313 1709 
L 2253 4666 
z
" transform="scale(0.015625)"/>
       </defs>
       <use xlink:href="#DejaVuSans-34"/>
       <use xlink:href="#DejaVuSans-30" transform="translate(63.623047 0)"/>
      </g>
     </g>
    </g>
    <g id="xtick_5">
     <g id="line2d_9">
      <path d="M 282.906489 228.96 
L 282.906489 7.2 
" clip-path="url(#pdfebad8ac4)" style="fill: none; stroke: #b0b0b0; stroke-opacity: 0.3; stroke-width: 0.8; stroke-linecap: square"/>
     </g>
     <g id="line2d_10">
      <g>
       <use xlink:href="#mfcdb55ece2" x="282.906489" y="228.96" style="stroke: #000000; stroke-width: 0.8"/>
      </g>
     </g>
     <g id="text_5">
      <!-- 50 -->
      <g transform="translate(276.543989 243.558438) scale(0.1 -0.1)">
       <defs>
        <path id="DejaVuSans-35" d="M 691 4666 
L 3169 4666 
L 3169 4134 
L 1269 4134 
L 1269 2991 
Q 1406 3038 1543 3061 
Q 1681 3084 1819 3084 
Q 2600 3084 3056 2656 
Q 3513 2228 3513 1497 
Q 3513 744 3044 326 
Q 2575 -91 1722 -91 
Q 1428 -91 1123 -41 
Q 819 9 494 109 
L 494 744 
Q 775 591 1075 516 
Q 1375 441 1709 441 
Q 2250 441 2565 725 
Q 2881 1009 2881 1497 
Q 2881 1984 2565 2268 
Q 2250 2553 1709 2553 
Q 1456 2553 1204 2497 
Q 953 2441 691 2322 
L 691 4666 
z
" transform="scale(0.015625)"/>
       </defs>
       <use xlink:href="#DejaVuSans-35"/>
       <use xlink:href="#DejaVuSans-30" transform="translate(63.623047 0)"/>
      </g>
     </g>
    </g>
    <g id="xtick_6">
     <g id="line2d_11">
      <path d="M 333.637727 228.96 
L 333.637727 7.2 
" clip-path="url(#pdfebad8ac4)" style="fill: none; stroke: #b0b0b0; stroke-opacity: 0.3; stroke-width: 0.8; stroke-linecap: square"/>
     </g>
     <g id="line2d_12">
      <g>
       <use xlink:href="#mfcdb55ece2" x="333.637727" y="228.96" style="stroke: #000000; stroke-width: 0.8"/>
      </g>
     </g>
     <g id="text_6">
      <!-- 60 -->
      <g transform="translate(327.275227 243.558438) scale(0.1 -0.1)">
       <defs>
        <path id="DejaVuSans-36" d="M 2113 2584 
Q 1688 2584 1439 2293 
Q 1191 2003 1191 1497 
Q 1191 994 1439 701 
Q 1688 409 2113 409 
Q 2538 409 2786 701 
Q 3034 994 3034 1497 
Q 3034 2003 2786 2293 
Q 2538 2584 2113 2584 
z
M 3366 4563 
L 3366 3988 
Q 3128 4100 2886 4159 
Q 2644 4219 2406 4219 
Q 1781 4219 1451 3797 
Q 1122 3375 1075 2522 
Q 1259 2794 1537 2939 
Q 1816 3084 2150 3084 
Q 2853 3084 3261 2657 
Q 3669 2231 3669 1497 
Q 3669 778 3244 343 
Q 2819 -91 2113 -91 
Q 1303 -91 875 529 
Q 447 1150 447 2328 
Q 447 3434 972 4092 
Q 1497 4750 2381 4750 
Q 2619 4750 2861 4703 
Q 3103 4656 3366 4563 
z
" transform="scale(0.015625)"/>
       </defs>
       <use xlink:href="#DejaVuSans-36"/>
       <use xlink:href="#DejaVuSans-30" transform="translate(63.623047 0)"/>
      </g>
     </g>
    </g>
    <g id="xtick_7">
     <g id="line2d_13">
      <path d="M 384.368966 228.96 
L 384.368966 7.2 
" clip-path="url(#pdfebad8ac4)" style="fill: none; stroke: #b0b0b0; stroke-opacity: 0.3; stroke-width: 0.8; stroke-linecap: square"/>
     </g>
     <g id="line2d_14">
      <g>
       <use xlink:href="#mfcdb55ece2" x="384.368966" y="228.96" style="stroke: #000000; stroke-width: 0.8"/>
      </g>
     </g>
     <g id="text_7">
      <!-- 70 -->
      <g transform="translate(378.006466 243.558438) scale(0.1 -0.1)">
       <defs>
        <path id="DejaVuSans-37" d="M 525 4666 
L 3525 4666 
L 3525 4397 
L 1831 0 
L 1172 0 
L 2766 4134 
L 525 4134 
L 525 4666 
z
" transform="scale(0.015625)"/>
       </defs>
       <use xlink:href="#DejaVuSans-37"/>
       <use xlink:href="#DejaVuSans-30" transform="translate(63.623047 0)"/>
      </g>
     </g>
    </g>
    <g id="xtick_8">
     <g id="line2d_15">
      <path d="M 435.100205 228.96 
L 435.100205 7.2 
" clip-path="url(#pdfebad8ac4)" style="fill: none; stroke: #b0b0b0; stroke-opacity: 0.3; stroke-width: 0.8; stroke-linecap: square"/>
     </g>
     <g id="line2d_16">
      <g>
       <use xlink:href="#mfcdb55ece2" x="435.100205" y="228.96" style="stroke: #000000; stroke-width: 0.8"/>
      </g>
     </g>
     <g id="text_8">
      <!-- 80 -->
      <g transform="translate(428.737705 243.558438) scale(0.1 -0.1)">
       <defs>
        <path id="DejaVuSans-38" d="M 2034 2216 
Q 1584 2216 1326 1975 
Q 1069 1734 1069 1313 
Q 1069 891 1326 650 
Q 1584 409 2034 409 
Q 2484 409 2743 651 
Q 3003 894 3003 1313 
Q 3003 1734 2745 1975 
Q 2488 2216 2034 2216 
z
M 1403 2484 
Q 997 2584 770 2862 
Q 544 3141 544 3541 
Q 544 4100 942 4425 
Q 1341 4750 2034 4750 
Q 2731 4750 3128 4425 
Q 3525 4100 3525 3541 
Q 3525 3141 3298 2862 
Q 3072 2584 2669 2484 
Q 3125 2378 3379 2068 
Q 3634 1759 3634 1313 
Q 3634 634 3220 271 
Q 2806 -91 2034 -91 
Q 1263 -91 848 271 
Q 434 634 434 1313 
Q 434 1759 690 2068 
Q 947 2378 1403 2484 
z
M 1172 3481 
Q 1172 3119 1398 2916 
Q 1625 2713 2034 2713 
Q 2441 2713 2670 2916 
Q 2900 3119 2900 3481 
Q 2900 3844 2670 4047 
Q 2441 4250 2034 4250 
Q 1625 4250 1398 4047 
Q 1172 3844 1172 3481 
z
" transform="scale(0.015625)"/>
       </defs>
       <use xlink:href="#DejaVuSans-38"/>
       <use xlink:href="#DejaVuSans-30" transform="translate(63.623047 0)"/>
      </g>
     </g>
    </g>
    <g id="xtick_9">
     <g id="line2d_17">
      <path d="M 485.831443 228.96 
L 485.831443 7.2 
" clip-path="url(#pdfebad8ac4)" style="fill: none; stroke: #b0b0b0; stroke-opacity: 0.3; stroke-width: 0.8; stroke-linecap: square"/>
     </g>
     <g id="line2d_18">
      <g>
       <use xlink:href="#mfcdb55ece2" x="485.831443" y="228.96" style="stroke: #000000; stroke-width: 0.8"/>
      </g>
     </g>
     <g id="text_9">
      <!-- 90 -->
      <g transform="translate(479.468943 243.558438) scale(0.1 -0.1)">
       <defs>
        <path id="DejaVuSans-39" d="M 703 97 
L 703 672 
Q 941 559 1184 500 
Q 1428 441 1663 441 
Q 2288 441 2617 861 
Q 2947 1281 2994 2138 
Q 2813 1869 2534 1725 
Q 2256 1581 1919 1581 
Q 1219 1581 811 2004 
Q 403 2428 403 3163 
Q 403 3881 828 4315 
Q 1253 4750 1959 4750 
Q 2769 4750 3195 4129 
Q 3622 3509 3622 2328 
Q 3622 1225 3098 567 
Q 2575 -91 1691 -91 
Q 1453 -91 1209 -44 
Q 966 3 703 97 
z
M 1959 2075 
Q 2384 2075 2632 2365 
Q 2881 2656 2881 3163 
Q 2881 3666 2632 3958 
Q 2384 4250 1959 4250 
Q 1534 4250 1286 3958 
Q 1038 3666 1038 3163 
Q 1038 2656 1286 2365 
Q 1534 2075 1959 2075 
z
" transform="scale(0.015625)"/>
       </defs>
       <use xlink:href="#DejaVuSans-39"/>
       <use xlink:href="#DejaVuSans-30" transform="translate(63.623047 0)"/>
      </g>
     </g>
    </g>
    <g id="text_10">
     <!-- Diffraction Angle 2θ (°) -->
     <g transform="translate(225.046875 257.314687) scale(0.1 -0.1)">
      <defs>
       <path id="DejaVuSans-44" d="M 1259 4147 
L 1259 519 
L 2022 519 
Q 2988 519 3436 956 
Q 3884 1394 3884 2338 
Q 3884 3275 3436 3711 
Q 2988 4147 2022 4147 
L 1259 4147 
z
M 628 4666 
L 1925 4666 
Q 3281 4666 3915 4102 
Q 4550 3538 4550 2338 
Q 4550 1131 3912 565 
Q 3275 0 1925 0 
L 628 0 
L 628 4666 
z
" transform="scale(0.015625)"/>
       <path id="DejaVuSans-69" d="M 603 3500 
L 1178 3500 
L 1178 0 
L 603 0 
L 603 3500 
z
M 603 4863 
L 1178 4863 
L 1178 4134 
L 603 4134 
L 603 4863 
z
" transform="scale(0.015625)"/>
       <path id="DejaVuSans-66" d="M 2375 4863 
L 2375 4384 
L 1825 4384 
Q 1516 4384 1395 4259 
Q 1275 4134 1275 3809 
L 1275 3500 
L 2222 3500 
L 2222 3053 
L 1275 3053 
L 1275 0 
L 697 0 
L 697 3053 
L 147 3053 
L 147 3500 
L 697 3500 
L 697 3744 
Q 697 4328 969 4595 
Q 1241 4863 1831 4863 
L 2375 4863 
z
" transform="scale(0.015625)"/>
       <path id="DejaVuSans-72" d="M 2631 2963 
Q 2534 3019 2420 3045 
Q 2306 3072 2169 3072 
Q 1681 3072 1420 2755 
Q 1159 2438 1159 1844 
L 1159 0 
L 581 0 
L 581 3500 
L 1159 3500 
L 1159 2956 
Q 1341 3275 1631 3429 
Q 1922 3584 2338 3584 
Q 2397 3584 2469 3576 
Q 2541 3569 2628 3553 
L 2631 2963 
z
" transform="scale(0.015625)"/>
       <path id="DejaVuSans-61" d="M 2194 1759 
Q 1497 1759 1228 1600 
Q 959 1441 959 1056 
Q 959 750 1161 570 
Q 1363 391 1709 391 
Q 2188 391 2477 730 
Q 2766 1069 2766 1631 
L 2766 1759 
L 2194 1759 
z
M 3341 1997 
L 3341 0 
L 2766 0 
L 2766 531 
Q 2569 213 2275 61 
Q 1981 -91 1556 -91 
Q 1019 -91 701 211 
Q 384 513 384 1019 
Q 384 1609 779 1909 
Q 1175 2209 1959 2209 
L 2766 2209 
L 2766 2266 
Q 2766 2663 2505 2880 
Q 2244 3097 1772 3097 
Q 1472 3097 1187 3025 
Q 903 2953 641 2809 
L 641 3341 
Q 956 3463 1253 3523 
Q 1550 3584 1831 3584 
Q 2591 3584 2966 3190 
Q 3341 2797 3341 1997 
z
" transform="scale(0.015625)"/>
       <path id="DejaVuSans-63" d="M 3122 3366 
L 3122 2828 
Q 2878 2963 2633 3030 
Q 2388 3097 2138 3097 
Q 1578 3097 1268 2742 
Q 959 2388 959 1747 
Q 959 1106 1268 751 
Q 1578 397 2138 397 
Q 2388 397 2633 464 
Q 2878 531 3122 666 
L 3122 134 
Q 2881 22 2623 -34 
Q 2366 -91 2075 -91 
Q 1284 -91 818 406 
Q 353 903 353 1747 
Q 353 2603 823 3093 
Q 1294 3584 2113 3584 
Q 2378 3584 2631 3529 
Q 2884 3475 3122 3366 
z
" transform="scale(0.015625)"/>
       <path id="DejaVuSans-74" d="M 1172 4494 
L 1172 3500 
L 2356 3500 
L 2356 3053 
L 1172 3053 
L 1172 1153 
Q 1172 725 1289 603 
Q 1406 481 1766 481 
L 2356 481 
L 2356 0 
L 1766 0 
Q 1100 0 847 248 
Q 594 497 594 1153 
L 594 3053 
L 172 3053 
L 172 3500 
L 594 3500 
L 594 4494 
L 1172 4494 
z
" transform="scale(0.015625)"/>
       <path id="DejaVuSans-6f" d="M 1959 3097 
Q 1497 3097 1228 2736 
Q 959 2375 959 1747 
Q 959 1119 1226 758 
Q 1494 397 1959 397 
Q 2419 397 2687 759 
Q 2956 1122 2956 1747 
Q 2956 2369 2687 2733 
Q 2419 3097 1959 3097 
z
M 1959 3584 
Q 2709 3584 3137 3096 
Q 3566 2609 3566 1747 
Q 3566 888 3137 398 
Q 2709 -91 1959 -91 
Q 1206 -91 779 398 
Q 353 888 353 1747 
Q 353 2609 779 3096 
Q 1206 3584 1959 3584 
z
" transform="scale(0.015625)"/>
       <path id="DejaVuSans-6e" d="M 3513 2113 
L 3513 0 
L 2938 0 
L 2938 2094 
Q 2938 2591 2744 2837 
Q 2550 3084 2163 3084 
Q 1697 3084 1428 2787 
Q 1159 2491 1159 1978 
L 1159 0 
L 581 0 
L 581 3500 
L 1159 3500 
L 1159 2956 
Q 1366 3272 1645 3428 
Q 1925 3584 2291 3584 
Q 2894 3584 3203 3211 
Q 3513 2838 3513 2113 
z
" transform="scale(0.015625)"/>
       <path id="DejaVuSans-20" transform="scale(0.015625)"/>
       <path id="DejaVuSans-41" d="M 2188 4044 
L 1331 1722 
L 3047 1722 
L 2188 4044 
z
M 1831 4666 
L 2547 4666 
L 4325 0 
L 3669 0 
L 3244 1197 
L 1141 1197 
L 716 0 
L 50 0 
L 1831 4666 
z
" transform="scale(0.015625)"/>
       <path id="DejaVuSans-67" d="M 2906 1791 
Q 2906 2416 2648 2759 
Q 2391 3103 1925 3103 
Q 1463 3103 1205 2759 
Q 947 2416 947 1791 
Q 947 1169 1205 825 
Q 1463 481 1925 481 
Q 2391 481 2648 825 
Q 2906 1169 2906 1791 
z
M 3481 434 
Q 3481 -459 3084 -895 
Q 2688 -1331 1869 -1331 
Q 1566 -1331 1297 -1286 
Q 1028 -1241 775 -1147 
L 775 -588 
Q 1028 -725 1275 -790 
Q 1522 -856 1778 -856 
Q 2344 -856 2625 -561 
Q 2906 -266 2906 331 
L 2906 616 
Q 2728 306 2450 153 
Q 2172 0 1784 0 
Q 1141 0 747 490 
Q 353 981 353 1791 
Q 353 2603 747 3093 
Q 1141 3584 1784 3584 
Q 2172 3584 2450 3431 
Q 2728 3278 2906 2969 
L 2906 3500 
L 3481 3500 
L 3481 434 
z
" transform="scale(0.015625)"/>
       <path id="DejaVuSans-6c" d="M 603 4863 
L 1178 4863 
L 1178 0 
L 603 0 
L 603 4863 
z
" transform="scale(0.015625)"/>
       <path id="DejaVuSans-65" d="M 3597 1894 
L 3597 1613 
L 953 1613 
Q 991 1019 1311 708 
Q 1631 397 2203 397 
Q 2534 397 2845 478 
Q 3156 559 3463 722 
L 3463 178 
Q 3153 47 2828 -22 
Q 2503 -91 2169 -91 
Q 1331 -91 842 396 
Q 353 884 353 1716 
Q 353 2575 817 3079 
Q 1281 3584 2069 3584 
Q 2775 3584 3186 3129 
Q 3597 2675 3597 1894 
z
M 3022 2063 
Q 3016 2534 2758 2815 
Q 2500 3097 2075 3097 
Q 1594 3097 1305 2825 
Q 1016 2553 972 2059 
L 3022 2063 
z
" transform="scale(0.015625)"/>
       <path id="DejaVuSans-3b8" d="M 2953 2219 
L 963 2219 
Q 1009 1284 1225 888 
Q 1494 400 1959 400 
Q 2428 400 2688 891 
Q 2916 1322 2953 2219 
z
M 2944 2750 
Q 2856 3638 2688 3950 
Q 2419 4444 1959 4444 
Q 1481 4444 1228 3956 
Q 1028 3563 969 2750 
L 2944 2750 
z
M 1959 4913 
Q 2709 4913 3138 4250 
Q 3566 3591 3566 2422 
Q 3566 1256 3138 594 
Q 2709 -72 1959 -72 
Q 1206 -72 781 594 
Q 353 1256 353 2422 
Q 353 3591 781 4250 
Q 1206 4913 1959 4913 
z
" transform="scale(0.015625)"/>
       <path id="DejaVuSans-28" d="M 1984 4856 
Q 1566 4138 1362 3434 
Q 1159 2731 1159 2009 
Q 1159 1288 1364 580 
Q 1569 -128 1984 -844 
L 1484 -844 
Q 1016 -109 783 600 
Q 550 1309 550 2009 
Q 550 2706 781 3412 
Q 1013 4119 1484 4856 
L 1984 4856 
z
" transform="scale(0.015625)"/>
       <path id="DejaVuSans-b0" d="M 1600 4347 
Q 1350 4347 1178 4173 
Q 1006 4000 1006 3750 
Q 1006 3503 1178 3333 
Q 1350 3163 1600 3163 
Q 1850 3163 2022 3333 
Q 2194 3503 2194 3750 
Q 2194 3997 2020 4172 
Q 1847 4347 1600 4347 
z
M 1600 4750 
Q 1800 4750 1984 4673 
Q 2169 4597 2303 4453 
Q 2447 4313 2519 4134 
Q 2591 3956 2591 3750 
Q 2591 3338 2302 3052 
Q 2013 2766 1594 2766 
Q 1172 2766 890 3047 
Q 609 3328 609 3750 
Q 609 4169 896 4459 
Q 1184 4750 1600 4750 
z
" transform="scale(0.015625)"/>
       <path id="DejaVuSans-29" d="M 513 4856 
L 1013 4856 
Q 1481 4119 1714 3412 
Q 1947 2706 1947 2009 
Q 1947 1309 1714 600 
Q 1481 -109 1013 -844 
L 513 -844 
Q 928 -128 1133 580 
Q 1338 1288 1338 2009 
Q 1338 2731 1133 3434 
Q 928 4138 513 4856 
z
" transform="scale(0.015625)"/>
      </defs>
      <use xlink:href="#DejaVuSans-44"/>
      <use xlink:href="#DejaVuSans-69" transform="translate(77.001953 0)"/>
      <use xlink:href="#DejaVuSans-66" transform="translate(104.785156 0)"/>
      <use xlink:href="#DejaVuSans-66" transform="translate(139.990234 0)"/>
      <use xlink:href="#DejaVuSans-72" transform="translate(175.195312 0)"/>
      <use xlink:href="#DejaVuSans-61" transform="translate(216.308594 0)"/>
      <use xlink:href="#DejaVuSans-63" transform="translate(277.587891 0)"/>
      <use xlink:href="#DejaVuSans-74" transform="translate(332.568359 0)"/>
      <use xlink:href="#DejaVuSans-69" transform="translate(371.777344 0)"/>
      <use xlink:href="#DejaVuSans-6f" transform="translate(399.560547 0)"/>
      <use xlink:href="#DejaVuSans-6e" transform="translate(460.742188 0)"/>
      <use xlink:href="#DejaVuSans-20" transform="translate(524.121094 0)"/>
      <use xlink:href="#DejaVuSans-41" transform="translate(555.908203 0)"/>
      <use xlink:href="#DejaVuSans-6e" transform="translate(624.316406 0)"/>
      <use xlink:href="#DejaVuSans-67" transform="translate(687.695312 0)"/>
      <use xlink:href="#DejaVuSans-6c" transform="translate(751.171875 0)"/>
      <use xlink:href="#DejaVuSans-65" transform="translate(778.955078 0)"/>
      <use xlink:href="#DejaVuSans-20" transform="translate(840.478516 0)"/>
      <use xlink:href="#DejaVuSans-32" transform="translate(872.265625 0)"/>
      <use xlink:href="#DejaVuSans-3b8" transform="translate(935.888672 0)"/>
      <use xlink:href="#DejaVuSans-20" transform="translate(997.070312 0)"/>
      <use xlink:href="#DejaVuSans-28" transform="translate(1028.857422 0)"/>
      <use xlink:href="#DejaVuSans-b0" transform="translate(1067.871094 0)"/>
      <use xlink:href="#DejaVuSans-29" transform="translate(1117.871094 0)"/>
     </g>
    </g>
   </g>
   <g id="matplotlib.axis_2">
    <g id="ytick_1">
     <g id="line2d_19">
      <path d="M 59.690625 219.433477 
L 506.090625 219.433477 
" clip-path="url(#pdfebad8ac4)" style="fill: none; stroke: #b0b0b0; stroke-opacity: 0.3; stroke-width: 0.8; stroke-linecap: square"/>
     </g>
     <g id="line2d_20">
      <defs>
       <path id="mdcc226c755" d="M 0 0 
L -3.5 0 
" style="stroke: #000000; stroke-width: 0.8"/>
      </defs>
      <g>
       <use xlink:href="#mdcc226c755" x="59.690625" y="219.433477" style="stroke: #000000; stroke-width: 0.8"/>
      </g>
     </g>
     <g id="text_11">
      <!-- 0 -->
      <g transform="translate(46.328125 223.232695) scale(0.1 -0.1)">
       <use xlink:href="#DejaVuSans-30"/>
      </g>
     </g>
    </g>
    <g id="ytick_2">
     <g id="line2d_21">
      <path d="M 59.690625 180.997603 
L 506.090625 180.997603 
" clip-path="url(#pdfebad8ac4)" style="fill: none; stroke: #b0b0b0; stroke-opacity: 0.3; stroke-width: 0.8; stroke-linecap: square"/>
     </g>
     <g id="line2d_22">
      <g>
       <use xlink:href="#mdcc226c755" x="59.690625" y="180.997603" style="stroke: #000000; stroke-width: 0.8"/>
      </g>
     </g>
     <g id="text_12">
      <!-- 10000 -->
      <g transform="translate(20.878125 184.796822) scale(0.1 -0.1)">
       <use xlink:href="#DejaVuSans-31"/>
       <use xlink:href="#DejaVuSans-30" transform="translate(63.623047 0)"/>
       <use xlink:href="#DejaVuSans-30" transform="translate(127.246094 0)"/>
       <use xlink:href="#DejaVuSans-30" transform="translate(190.869141 0)"/>
       <use xlink:href="#DejaVuSans-30" transform="translate(254.492188 0)"/>
      </g>
     </g>
    </g>
    <g id="ytick_3">
     <g id="line2d_23">
      <path d="M 59.690625 142.56173 
L 506.090625 142.56173 
" clip-path="url(#pdfebad8ac4)" style="fill: none; stroke: #b0b0b0; stroke-opacity: 0.3; stroke-width: 0.8; stroke-linecap: square"/>
     </g>
     <g id="line2d_24">
      <g>
       <use xlink:href="#mdcc226c755" x="59.690625" y="142.56173" style="stroke: #000000; stroke-width: 0.8"/>
      </g>
     </g>
     <g id="text_13">
      <!-- 20000 -->
      <g transform="translate(20.878125 146.360948) scale(0.1 -0.1)">
       <use xlink:href="#DejaVuSans-32"/>
       <use xlink:href="#DejaVuSans-30" transform="translate(63.623047 0)"/>
       <use xlink:href="#DejaVuSans-30" transform="translate(127.246094 0)"/>
       <use xlink:href="#DejaVuSans-30" transform="translate(190.869141 0)"/>
       <use xlink:href="#DejaVuSans-30" transform="translate(254.492188 0)"/>
      </g>
     </g>
    </g>
    <g id="ytick_4">
     <g id="line2d_25">
      <path d="M 59.690625 104.125856 
L 506.090625 104.125856 
" clip-path="url(#pdfebad8ac4)" style="fill: none; stroke: #b0b0b0; stroke-opacity: 0.3; stroke-width: 0.8; stroke-linecap: square"/>
     </g>
     <g id="line2d_26">
      <g>
       <use xlink:href="#mdcc226c755" x="59.690625" y="104.125856" style="stroke: #000000; stroke-width: 0.8"/>
      </g>
     </g>
     <g id="text_14">
      <!-- 30000 -->
      <g transform="translate(20.878125 107.925075) scale(0.1 -0.1)">
       <use xlink:href="#DejaVuSans-33"/>
       <use xlink:href="#DejaVuSans-30" transform="translate(63.623047 0)"/>
       <use xlink:href="#DejaVuSans-30" transform="translate(127.246094 0)"/>
       <use xlink:href="#DejaVuSans-30" transform="translate(190.869141 0)"/>
       <use xlink:href="#DejaVuSans-30" transform="translate(254.492188 0)"/>
      </g>
     </g>
    </g>
    <g id="ytick_5">
     <g id="line2d_27">
      <path d="M 59.690625 65.689983 
L 506.090625 65.689983 
" clip-path="url(#pdfebad8ac4)" style="fill: none; stroke: #b0b0b0; stroke-opacity: 0.3; stroke-width: 0.8; stroke-linecap: square"/>
     </g>
     <g id="line2d_28">
      <g>
       <use xlink:href="#mdcc226c755" x="59.690625" y="65.689983" style="stroke: #000000; stroke-width: 0.8"/>
      </g>
     </g>
     <g id="text_15">
      <!-- 40000 -->
      <g transform="translate(20.878125 69.489201) scale(0.1 -0.1)">
       <use xlink:href="#DejaVuSans-34"/>
       <use xlink:href="#DejaVuSans-30" transform="translate(63.623047 0)"/>
       <use xlink:href="#DejaVuSans-30" transform="translate(127.246094 0)"/>
       <use xlink:href="#DejaVuSans-30" transform="translate(190.869141 0)"/>
       <use xlink:href="#DejaVuSans-30" transform="translate(254.492188 0)"/>
      </g>
     </g>
    </g>
    <g id="ytick_6">
     <g id="line2d_29">
      <path d="M 59.690625 27.254109 
L 506.090625 27.254109 
" clip-path="url(#pdfebad8ac4)" style="fill: none; stroke: #b0b0b0; stroke-opacity: 0.3; stroke-width: 0.8; stroke-linecap: square"/>
     </g>
     <g id="line2d_30">
      <g>
       <use xlink:href="#mdcc226c755" x="59.690625" y="27.254109" style="stroke: #000000; stroke-width: 0.8"/>
      </g>
     </g>
     <g id="text_16">
      <!-- 50000 -->
      <g transform="translate(20.878125 31.053328) scale(0.1 -0.1)">
       <use xlink:href="#DejaVuSans-35"/>
       <use xlink:href="#DejaVuSans-30" transform="translate(63.623047 0)"/>
       <use xlink:href="#DejaVuSans-30" transform="translate(127.246094 0)"/>
       <use xlink:href="#DejaVuSans-30" transform="translate(190.869141 0)"/>
       <use xlink:href="#DejaVuSans-30" transform="translate(254.492188 0)"/>
      </g>
     </g>
    </g>
    <g id="text_17">
     <!-- Diffraction Intensity (Counts at Detector 1) -->
     <g transform="translate(14.798438 225.340937) rotate(-90) scale(0.1 -0.1)">
      <defs>
       <path id="DejaVuSans-49" d="M 628 4666 
L 1259 4666 
L 1259 0 
L 628 0 
L 628 4666 
z
" transform="scale(0.015625)"/>
       <path id="DejaVuSans-73" d="M 2834 3397 
L 2834 2853 
Q 2591 2978 2328 3040 
Q 2066 3103 1784 3103 
Q 1356 3103 1142 2972 
Q 928 2841 928 2578 
Q 928 2378 1081 2264 
Q 1234 2150 1697 2047 
L 1894 2003 
Q 2506 1872 2764 1633 
Q 3022 1394 3022 966 
Q 3022 478 2636 193 
Q 2250 -91 1575 -91 
Q 1294 -91 989 -36 
Q 684 19 347 128 
L 347 722 
Q 666 556 975 473 
Q 1284 391 1588 391 
Q 1994 391 2212 530 
Q 2431 669 2431 922 
Q 2431 1156 2273 1281 
Q 2116 1406 1581 1522 
L 1381 1569 
Q 847 1681 609 1914 
Q 372 2147 372 2553 
Q 372 3047 722 3315 
Q 1072 3584 1716 3584 
Q 2034 3584 2315 3537 
Q 2597 3491 2834 3397 
z
" transform="scale(0.015625)"/>
       <path id="DejaVuSans-79" d="M 2059 -325 
Q 1816 -950 1584 -1140 
Q 1353 -1331 966 -1331 
L 506 -1331 
L 506 -850 
L 844 -850 
Q 1081 -850 1212 -737 
Q 1344 -625 1503 -206 
L 1606 56 
L 191 3500 
L 800 3500 
L 1894 763 
L 2988 3500 
L 3597 3500 
L 2059 -325 
z
" transform="scale(0.015625)"/>
       <path id="DejaVuSans-43" d="M 4122 4306 
L 4122 3641 
Q 3803 3938 3442 4084 
Q 3081 4231 2675 4231 
Q 1875 4231 1450 3742 
Q 1025 3253 1025 2328 
Q 1025 1406 1450 917 
Q 1875 428 2675 428 
Q 3081 428 3442 575 
Q 3803 722 4122 1019 
L 4122 359 
Q 3791 134 3420 21 
Q 3050 -91 2638 -91 
Q 1578 -91 968 557 
Q 359 1206 359 2328 
Q 359 3453 968 4101 
Q 1578 4750 2638 4750 
Q 3056 4750 3426 4639 
Q 3797 4528 4122 4306 
z
" transform="scale(0.015625)"/>
       <path id="DejaVuSans-75" d="M 544 1381 
L 544 3500 
L 1119 3500 
L 1119 1403 
Q 1119 906 1312 657 
Q 1506 409 1894 409 
Q 2359 409 2629 706 
Q 2900 1003 2900 1516 
L 2900 3500 
L 3475 3500 
L 3475 0 
L 2900 0 
L 2900 538 
Q 2691 219 2414 64 
Q 2138 -91 1772 -91 
Q 1169 -91 856 284 
Q 544 659 544 1381 
z
M 1991 3584 
L 1991 3584 
z
" transform="scale(0.015625)"/>
      </defs>
      <use xlink:href="#DejaVuSans-44"/>
      <use xlink:href="#DejaVuSans-69" transform="translate(77.001953 0)"/>
      <use xlink:href="#DejaVuSans-66" transform="translate(104.785156 0)"/>
      <use xlink:href="#DejaVuSans-66" transform="translate(139.990234 0)"/>
      <use xlink:href="#DejaVuSans-72" transform="translate(175.195312 0)"/>
      <use xlink:href="#DejaVuSans-61" transform="translate(216.308594 0)"/>
      <use xlink:href="#DejaVuSans-63" transform="translate(277.587891 0)"/>
      <use xlink:href="#DejaVuSans-74" transform="translate(332.568359 0)"/>
      <use xlink:href="#DejaVuSans-69" transform="translate(371.777344 0)"/>
      <use xlink:href="#DejaVuSans-6f" transform="translate(399.560547 0)"/>
      <use xlink:href="#DejaVuSans-6e" transform="translate(460.742188 0)"/>
      <use xlink:href="#DejaVuSans-20" transform="translate(524.121094 0)"/>
      <use xlink:href="#DejaVuSans-49" transform="translate(555.908203 0)"/>
      <use xlink:href="#DejaVuSans-6e" transform="translate(585.400391 0)"/>
      <use xlink:href="#DejaVuSans-74" transform="translate(648.779297 0)"/>
      <use xlink:href="#DejaVuSans-65" transform="translate(687.988281 0)"/>
      <use xlink:href="#DejaVuSans-6e" transform="translate(749.511719 0)"/>
      <use xlink:href="#DejaVuSans-73" transform="translate(812.890625 0)"/>
      <use xlink:href="#DejaVuSans-69" transform="translate(864.990234 0)"/>
      <use xlink:href="#DejaVuSans-74" transform="translate(892.773438 0)"/>
      <use xlink:href="#DejaVuSans-79" transform="translate(931.982422 0)"/>
      <use xlink:href="#DejaVuSans-20" transform="translate(991.162109 0)"/>
      <use xlink:href="#DejaVuSans-28" transform="translate(1022.949219 0)"/>
      <use xlink:href="#DejaVuSans-43" transform="translate(1061.962891 0)"/>
      <use xlink:href="#DejaVuSans-6f" transform="translate(1131.787109 0)"/>
      <use xlink:href="#DejaVuSans-75" transform="translate(1192.96875 0)"/>
      <use xlink:href="#DejaVuSans-6e" transform="translate(1256.347656 0)"/>
      <use xlink:href="#DejaVuSans-74" transform="translate(1319.726562 0)"/>
      <use xlink:href="#DejaVuSans-73" transform="translate(1358.935547 0)"/>
      <use xlink:href="#DejaVuSans-20" transform="translate(1411.035156 0)"/>
      <use xlink:href="#DejaVuSans-61" transform="translate(1442.822266 0)"/>
      <use xlink:href="#DejaVuSans-74" transform="translate(1504.101562 0)"/>
      <use xlink:href="#DejaVuSans-20" transform="translate(1543.310547 0)"/>
      <use xlink:href="#DejaVuSans-44" transform="translate(1575.097656 0)"/>
      <use xlink:href="#DejaVuSans-65" transform="translate(1652.099609 0)"/>
      <use xlink:href="#DejaVuSans-74" transform="translate(1713.623047 0)"/>
      <use xlink:href="#DejaVuSans-65" transform="translate(1752.832031 0)"/>
      <use xlink:href="#DejaVuSans-63" transform="translate(1814.355469 0)"/>
      <use xlink:href="#DejaVuSans-74" transform="translate(1869.335938 0)"/>
      <use xlink:href="#DejaVuSans-6f" transform="translate(1908.544922 0)"/>
      <use xlink:href="#DejaVuSans-72" transform="translate(1969.726562 0)"/>
      <use xlink:href="#DejaVuSans-20" transform="translate(2010.839844 0)"/>
      <use xlink:href="#DejaVuSans-31" transform="translate(2042.626953 0)"/>
      <use xlink:href="#DejaVuSans-29" transform="translate(2106.25 0)"/>
     </g>
    </g>
   </g>
   <g id="line2d_31">
    <path d="M 79.981534 218.080534 
L 80.3968 217.942165 
L 80.604433 218.149718 
L 80.915882 217.892198 
L 81.019698 217.919103 
L 81.227331 218.034411 
L 81.434964 218.11897 
L 81.642597 217.942165 
L 81.746413 218.003662 
L 81.850229 217.888354 
L 81.954046 218.007506 
L 82.161679 217.938321 
L 82.369311 218.02288 
L 82.576944 218.042098 
L 82.784577 217.934478 
L 82.99221 217.92679 
L 83.096026 217.892198 
L 83.407476 218.053629 
L 83.615108 217.876824 
L 83.822741 218.126657 
L 84.030374 217.984444 
L 84.964722 218.088221 
L 85.172354 217.91526 
L 85.276171 217.880667 
L 85.58762 218.069003 
L 85.691436 217.899885 
L 86.002886 218.065159 
L 86.106702 218.069003 
L 86.314335 217.87298 
L 86.418151 218.02288 
L 86.521968 217.938321 
L 86.625784 218.019036 
L 86.729601 217.946008 
L 86.833417 218.126657 
L 87.041045 217.922947 
L 87.144861 218.042098 
L 87.248677 217.880667 
L 87.45631 218.184311 
L 87.560127 218.049785 
L 87.663943 218.138188 
L 87.871576 218.038254 
L 88.183025 217.946008 
L 88.390658 218.049785 
L 88.494474 217.96907 
L 88.598291 218.095908 
L 88.90974 217.91526 
L 89.013556 218.049785 
L 89.221189 217.869137 
L 89.325006 218.02288 
L 89.428822 217.92679 
L 89.532638 218.007506 
L 89.636455 217.942165 
L 89.740271 218.195841 
L 89.844088 218.038254 
L 90.05172 218.099752 
L 90.36317 217.838388 
L 90.674619 217.961383 
L 90.882252 217.884511 
L 90.986068 218.026724 
L 91.089885 217.880667 
L 91.297517 217.961383 
L 91.50515 217.830701 
L 91.608967 217.976757 
L 91.816599 217.896042 
L 92.439498 217.87298 
L 92.543314 217.738455 
L 92.647131 217.919103 
L 92.750947 217.742298 
L 92.95858 217.865293 
L 93.270029 217.715393 
L 93.685295 217.749985 
L 93.789111 217.657739 
L 93.892928 217.788421 
L 94.827275 217.27338 
L 95.034908 216.842899 
L 95.138724 216.858273 
L 95.657806 216.443166 
L 96.176888 217.11195 
L 96.280705 217.027391 
L 96.384521 217.346409 
L 96.592154 217.258006 
L 96.799787 217.085045 
L 97.215053 216.685312 
L 97.837951 214.836546 
L 98.357033 217.354096 
L 98.460849 217.361783 
L 98.668482 217.657739 
L 98.772299 217.51937 
L 98.876115 217.661583 
L 98.979931 217.569337 
L 99.291381 217.703862 
L 99.499013 217.596242 
L 99.706646 217.503996 
L 99.914279 217.646208 
L 100.329545 217.607773 
L 100.640989 217.438655 
L 100.744805 217.630834 
L 100.848622 217.477091 
L 100.952438 217.56165 
L 101.47152 217.331034 
L 101.575337 217.357939 
L 101.782969 217.085045 
L 101.886786 216.873647 
L 101.990602 216.954363 
L 102.198235 216.593066 
L 102.405868 216.112617 
L 102.92495 214.39069 
L 103.236399 213.026216 
L 103.444032 213.07234 
L 103.651665 213.725749 
L 103.963114 215.509174 
L 104.170747 216.185645 
L 104.482196 215.762851 
L 104.586012 215.981935 
L 105.105094 213.637347 
L 105.312727 211.71171 
L 105.624176 207.660569 
L 105.831809 206.9226 
L 106.039442 210.881495 
L 106.350891 215.835879 
L 106.66234 216.627658 
L 106.869973 217.027391 
L 107.804321 217.281068 
L 107.908137 217.161916 
L 108.011954 217.454029 
L 108.11577 217.158073 
L 108.219587 217.300286 
L 108.323403 217.158073 
L 108.427219 217.51937 
L 108.531036 217.161916 
L 108.738669 217.407906 
L 108.842485 217.250319 
L 109.050118 217.327191 
L 109.361567 217.26185 
L 109.5692 217.430968 
L 109.984465 217.334878 
L 110.088282 217.450186 
L 110.399731 217.192665 
L 110.607364 217.415593 
L 110.71118 217.154229 
L 110.918813 217.557806 
L 111.02263 217.331034 
L 111.126446 217.392532 
L 111.334079 217.296442 
L 111.437895 217.503996 
L 111.645528 217.096575 
L 111.853161 217.323347 
L 111.956977 217.284911 
L 112.060794 217.392532 
L 112.16461 217.023547 
L 112.268426 217.346409 
L 112.476059 217.131168 
L 112.683692 217.300286 
L 112.891325 217.158073 
L 112.995141 217.392532 
L 113.202774 217.142699 
L 113.306591 217.158073 
L 113.410407 216.996642 
L 113.514223 217.373314 
L 113.929489 217.215727 
L 114.137122 217.284911 
L 114.240938 217.061983 
L 114.448566 217.200352 
L 114.656199 217.038922 
L 114.760015 217.085045 
L 114.967648 217.046609 
L 115.071464 217.21957 
L 115.175281 217.115793 
L 115.279097 217.327191 
L 115.382914 217.06967 
L 115.48673 217.146542 
L 115.590546 217.027391 
L 115.798179 217.127324 
L 116.005812 217.038922 
L 116.317261 216.823681 
L 116.524894 217.046609 
L 116.62871 216.766027 
L 116.732527 216.931301 
L 116.94016 216.781401 
L 117.251609 216.935145 
L 117.355425 216.754496 
L 117.563058 216.958206 
L 117.666875 216.692999 
L 117.770691 216.869804 
L 118.08214 216.804463 
L 118.185957 216.481601 
L 118.289773 216.727591 
L 118.393589 216.650719 
L 118.497406 216.423948 
L 118.601222 216.696842 
L 118.705039 216.489289 
L 118.808855 216.593066 
L 118.912671 216.408573 
L 119.016488 216.627658 
L 119.120304 216.443166 
L 119.224121 216.520037 
L 119.431753 215.993466 
L 119.639386 216.324014 
L 119.743203 216.112617 
L 119.847019 216.189489 
L 119.950835 216.40473 
L 120.054652 216.266361 
L 120.158468 216.370137 
L 120.262285 216.189489 
L 120.469918 216.300953 
L 120.885183 216.097243 
L 121.092816 215.743633 
L 121.196632 215.920438 
L 121.819531 214.652054 
L 122.650062 212.745635 
L 122.857695 211.327351 
L 123.169144 208.909734 
L 123.376777 207.668256 
L 123.58441 207.122466 
L 123.792043 207.772033 
L 124.207308 209.824508 
L 124.414941 208.621465 
L 124.72639 204.535732 
L 125.141656 191.390663 
L 125.453105 167.568109 
L 125.660738 136.254403 
L 126.283636 17.28 
L 126.387453 21.035185 
L 126.698902 118.931355 
L 127.010351 185.214018 
L 127.3218 200.56915 
L 127.737066 209.159568 
L 128.04851 212.334371 
L 128.152327 212.995468 
L 128.256143 212.945501 
L 128.775225 214.2946 
L 128.982858 214.087047 
L 129.086674 214.221572 
L 129.190491 214.644367 
L 129.294307 214.54059 
L 129.709573 215.159407 
L 129.917205 214.959541 
L 130.124838 215.209374 
L 130.228655 215.017195 
L 130.332471 215.324682 
L 130.436287 214.94801 
L 130.64392 215.570671 
L 130.747737 215.470738 
L 130.851553 215.347743 
L 130.95537 215.447676 
L 131.059186 215.382336 
L 131.370635 215.755163 
L 131.578268 215.574515 
L 131.682084 215.50533 
L 131.889717 215.728258 
L 131.993534 215.75132 
L 132.09735 215.632169 
L 132.304983 215.855097 
L 132.512616 215.755163 
L 132.927881 215.835879 
L 133.135514 215.843566 
L 133.446963 215.985779 
L 133.654596 215.943499 
L 133.862229 216.124148 
L 133.966045 215.589889 
L 134.173678 216.124148 
L 134.277495 215.735946 
L 134.485127 215.824348 
L 134.900393 215.643699 
L 135.004209 215.35543 
L 135.108026 215.639856 
L 135.730924 214.432969 
L 136.042373 213.160742 
L 136.14619 213.153055 
L 136.457639 213.541257 
L 136.976721 215.224748 
L 137.080538 215.463051 
L 137.28817 215.159407 
L 137.495803 215.39771 
L 137.807252 215.243966 
L 138.118702 214.767362 
L 138.222518 214.828859 
L 138.637784 214.502154 
L 138.845416 215.017195 
L 138.949233 214.717395 
L 139.053049 214.890356 
L 139.260682 214.705864 
L 139.364498 214.751987 
L 139.468315 214.456031 
L 139.572131 214.505998 
L 139.987397 212.97625 
L 140.506479 207.895027 
L 141.025561 203.275035 
L 141.129377 203.874635 
L 141.752276 210.843059 
L 141.959904 211.738615 
L 142.06372 211.300446 
L 142.167536 211.923107 
L 142.271353 211.87314 
L 142.375169 212.061476 
L 142.478986 211.976917 
L 143.101884 209.99747 
L 143.2057 208.909734 
L 143.309517 209.048104 
L 143.51715 207.810468 
L 143.620966 208.398537 
L 143.828599 207.091718 
L 143.932415 207.306958 
L 144.036232 206.618956 
L 144.140048 207.33002 
L 144.555314 203.920758 
L 144.866763 200.046422 
L 145.904927 169.040203 
L 146.008743 169.655177 
L 146.11256 169.359221 
L 146.216376 169.512964 
L 146.320193 169.117075 
L 146.527825 166.857045 
L 147.150724 154.330794 
L 147.25454 155.038014 
L 147.669806 160.061583 
L 147.773622 160.042365 
L 147.877439 160.934077 
L 148.085072 160.084644 
L 148.188888 160.050052 
L 148.292704 160.284511 
L 148.500337 161.5798 
L 148.915603 171.634624 
L 149.746134 204.293586 
L 150.1614 210.281895 
L 150.472849 212.276717 
L 150.680482 212.887847 
L 150.784298 213.006999 
L 150.991931 213.379827 
L 151.095747 213.410575 
L 151.614829 214.321505 
L 151.822462 214.290757 
L 151.926279 214.140857 
L 152.030095 214.383003 
L 152.133911 214.225416 
L 152.237728 214.386846 
L 152.341544 214.03708 
L 152.549177 214.313818 
L 152.860626 214.010175 
L 153.068259 214.736613 
L 153.379708 215.063318 
L 153.483525 214.728926 
L 153.691158 215.109441 
L 153.794974 215.197843 
L 153.89879 215.636012 
L 154.002607 215.50533 
L 154.21024 216.10493 
L 154.417872 215.939656 
L 154.625505 215.958874 
L 154.833138 216.285579 
L 154.936954 216.397043 
L 155.040771 216.066494 
L 155.35222 216.250986 
L 155.559848 216.15874 
L 155.663664 216.412417 
L 155.767481 216.366294 
L 155.975113 216.504663 
L 156.182746 216.181802 
L 156.286563 216.35092 
L 156.390379 216.270204 
L 156.494195 216.358607 
L 156.909461 215.882002 
L 157.22091 215.45152 
L 157.428543 215.274715 
L 157.532359 215.770538 
L 157.636176 215.559141 
L 157.843809 216.024215 
L 157.947625 215.95503 
L 158.051442 216.020371 
L 158.259074 216.339389 
L 158.67434 216.224081 
L 158.881973 216.766027 
L 158.985789 216.366294 
L 159.193422 216.358607 
L 160.023953 215.54761 
L 160.12777 214.974915 
L 160.231586 215.182469 
L 160.335402 215.113284 
L 160.439219 214.732769 
L 160.543035 214.898044 
L 160.750668 214.678959 
L 160.854485 214.317662 
L 160.958301 214.502154 
L 161.165934 214.113952 
L 161.477383 213.687313 
L 161.685016 213.456698 
L 161.892649 212.983937 
L 162.100281 212.77254 
L 162.411731 212.707199 
L 162.72318 213.214552 
L 162.826996 213.475916 
L 162.930813 213.368296 
L 163.346078 214.452187 
L 163.449895 214.490623 
L 163.657527 215.128659 
L 163.761344 215.067161 
L 163.968977 215.65523 
L 164.072793 215.801287 
L 164.17661 215.566828 
L 164.280426 215.739789 
L 164.488059 215.439989 
L 165.214774 213.560475 
L 165.422406 213.060809 
L 165.526223 213.153055 
L 165.630039 212.845568 
L 165.837672 212.941658 
L 166.149121 213.610442 
L 166.356754 213.668096 
L 166.564387 213.875649 
L 167.083469 213.406732 
L 167.602551 214.8942 
L 168.017817 216.30864 
L 168.121633 216.36245 
L 168.225449 216.689155 
L 168.329266 216.55463 
L 168.640715 216.815994 
L 169.055981 216.912083 
L 169.159797 216.60844 
L 169.263608 216.804463 
L 169.575058 216.270204 
L 169.78269 215.674448 
L 169.886507 215.889689 
L 170.197956 214.913418 
L 170.405589 214.5944 
L 170.820854 214.913418 
L 171.23612 215.908907 
L 171.962835 216.946676 
L 172.066651 217.004329 
L 172.170468 217.234945 
L 172.378101 217.204196 
L 172.793366 217.123481 
L 172.897183 217.327191 
L 173.000999 217.284911 
L 173.104815 217.434811 
L 173.312448 217.27338 
L 173.520081 217.365627 
L 173.727714 217.242632 
L 174.039163 217.596242 
L 174.246796 217.419437 
L 174.454429 217.527057 
L 174.662062 217.484778 
L 174.765878 217.373314 
L 175.077327 217.596242 
L 175.181144 217.377157 
L 175.388776 217.657739 
L 175.596409 217.538588 
L 176.115491 217.665426 
L 176.219308 217.565493 
L 176.323124 217.707706 
L 176.42694 217.503996 
L 176.530757 217.665426 
L 176.73839 217.603929 
L 176.946022 217.542432 
L 177.153655 217.703862 
L 177.465105 217.515526 
L 177.776554 217.657739 
L 177.984187 217.503996 
L 178.191819 217.692332 
L 178.399452 217.446342 
L 178.607085 217.492465 
L 178.710901 217.338721 
L 179.022351 217.565493 
L 179.229983 217.334878 
L 179.3338 217.396375 
L 179.541433 217.27338 
L 179.645249 217.457873 
L 179.749065 217.138855 
L 179.956698 217.57318 
L 180.060515 217.319504 
L 180.164331 217.46556 
L 180.371964 217.361783 
L 180.579597 217.596242 
L 180.78723 217.588555 
L 180.994862 217.619303 
L 181.202495 217.642365 
L 181.513944 217.546275 
L 181.617761 217.511683 
L 181.721577 217.700019 
L 181.825394 217.438655 
L 181.92921 217.565493 
L 182.240659 217.434811 
L 182.344476 217.534744 
L 182.655925 217.192665 
L 182.863558 217.319504 
L 182.967374 217.200352 
L 183.071185 217.400219 
L 183.278818 217.334878 
L 183.382635 217.26185 
L 183.486451 217.442498 
L 183.694084 217.365627 
L 184.109349 217.392532 
L 184.213166 217.473247 
L 184.316982 217.250319 
L 184.420799 217.304129 
L 185.147514 215.908907 
L 185.562779 215.086379 
L 185.874228 215.95503 
L 185.978045 215.989622 
L 186.185678 216.819837 
L 186.289494 216.735278 
L 186.39331 216.831368 
L 186.497127 217.177291 
L 186.70476 217.000486 
L 186.912392 217.242632 
L 187.016209 217.123481 
L 187.223842 217.381001 
L 187.639107 217.496309 
L 187.84674 217.377157 
L 188.158189 217.588555 
L 188.365822 217.726924 
L 188.781088 217.484778 
L 188.988721 217.57318 
L 189.30017 217.300286 
L 189.403986 217.596242 
L 189.507803 217.511683 
L 189.611619 217.600085 
L 189.715435 217.523214 
L 190.026885 217.66927 
L 190.234517 217.719237 
L 190.338334 217.803796 
L 190.545967 217.57318 
L 190.649783 217.734611 
L 190.7536 217.665426 
L 190.961232 217.746142 
L 191.168865 217.746142 
L 191.480314 217.749985 
L 191.791764 217.903729 
L 191.89558 217.680801 
L 192.414662 217.934478 
L 192.622295 217.76536 
L 192.726111 217.876824 
L 192.933744 217.619303 
L 193.141377 217.661583 
L 193.452826 217.688488 
L 193.556642 217.588555 
L 193.660459 217.696175 
L 193.971908 217.584711 
L 194.075725 217.746142 
L 194.283357 217.503996 
L 194.387174 217.584711 
L 194.594807 217.438655 
L 194.698623 217.546275 
L 194.906256 217.388688 
L 195.113889 217.657739 
L 195.217705 217.430968 
L 195.321521 217.707706 
L 195.632971 217.46556 
L 195.736787 217.557806 
L 195.840603 217.430968 
L 195.94442 217.553962 
L 196.152053 217.480934 
L 196.359685 217.557806 
L 196.567318 217.596242 
L 196.982579 217.550119 
L 197.190212 217.66927 
L 197.294028 217.619303 
L 197.397844 217.711549 
L 197.605477 217.580867 
L 197.916927 217.803796 
L 198.020743 217.638521 
L 198.228376 217.81917 
L 198.436009 217.726924 
L 198.539825 217.903729 
L 198.643641 217.700019 
L 198.747458 217.861449 
L 198.851274 217.688488 
L 199.162723 217.842231 
L 199.26654 217.753829 
L 199.370356 217.988288 
L 199.474173 217.738455 
L 199.577989 217.869137 
L 199.681805 217.769203 
L 199.785622 217.938321 
L 199.993255 217.834544 
L 200.200887 217.922947 
L 200.40852 217.811483 
L 200.512337 217.91526 
L 200.719969 217.857606 
L 201.758134 217.780734 
L 201.965766 217.792265 
L 202.069583 217.557806 
L 202.277216 217.738455 
L 202.484848 217.638521 
L 202.588665 217.830701 
L 202.692481 217.692332 
L 202.900114 217.780734 
L 203.00393 217.603929 
L 203.107747 217.81917 
L 203.211563 217.619303 
L 203.419196 217.780734 
L 203.730645 217.749985 
L 204.042095 217.896042 
L 204.145911 217.773047 
L 204.353544 217.788421 
L 204.976442 217.688488 
L 205.184075 217.823013 
L 205.391708 217.657739 
L 205.495524 217.803796 
L 205.599341 217.523214 
L 205.703157 217.577024 
L 205.806973 217.769203 
L 205.91079 217.450186 
L 206.014606 217.711549 
L 206.118423 217.500152 
L 206.222239 217.584711 
L 206.429872 217.388688 
L 206.637505 217.169604 
L 207.156587 216.792932 
L 207.468036 216.397043 
L 207.675669 216.450853 
L 207.779485 216.297109 
L 207.883302 216.381668 
L 207.987118 216.131835 
L 208.194751 216.327858 
L 208.298567 216.120304 
L 208.402384 216.385512 
L 208.5062 216.189489 
L 208.713833 216.431635 
L 208.817649 216.343232 
L 208.921466 216.558473 
L 209.025282 216.316327 
L 209.129098 216.493132 
L 209.232915 216.331702 
L 209.336731 216.520037 
L 209.544364 216.316327 
L 209.751997 216.589222 
L 210.167263 216.493132 
L 210.478707 216.750653 
L 210.790156 216.70453 
L 210.893972 216.927458 
L 211.101605 216.635345 
L 211.413054 216.600753 
L 211.516871 216.373981 
L 211.620687 216.435478 
L 211.724504 216.06265 
L 211.82832 216.097243 
L 211.932136 216.247143 
L 212.139769 215.509174 
L 212.243586 215.624482 
L 212.658851 215.109441 
L 212.762668 215.190156 
L 212.9703 214.871138 
L 213.177933 215.328525 
L 213.28175 215.147877 
L 213.800832 216.266361 
L 213.904648 216.143366 
L 214.319914 217.05814 
L 214.42373 217.042765 
L 214.838996 217.580867 
L 214.942812 217.500152 
L 215.150445 217.769203 
L 215.254261 217.688488 
L 215.358078 217.81917 
L 215.461894 217.692332 
L 215.773343 217.96907 
L 215.87716 217.738455 
L 216.084793 217.961383 
L 216.292425 217.692332 
L 216.500058 217.961383 
L 216.915324 217.849919 
L 217.01914 217.980601 
L 217.122957 217.799952 
L 217.434406 217.965226 
L 217.642039 218.034411 
L 217.849672 217.811483 
L 218.057304 218.034411 
L 218.161121 217.880667 
L 218.264937 218.053629 
L 218.368754 217.934478 
L 218.47257 218.092065 
L 218.680203 217.961383 
L 218.887836 218.080534 
L 219.199285 217.784578 
L 219.303101 218.011349 
L 219.406918 217.788421 
L 219.61455 218.038254 
L 219.822183 217.934478 
L 219.926 217.984444 
L 220.029816 217.849919 
L 220.341265 217.988288 
L 220.445082 217.757672 
L 220.652715 217.857606 
L 220.860347 217.803796 
L 220.964164 218.038254 
L 221.275613 217.849919 
L 221.379429 217.853762 
L 221.483246 218.034411 
L 221.587062 217.87298 
L 221.794695 217.92679 
L 221.898511 217.815326 
L 222.002328 218.034411 
L 222.209961 217.861449 
L 222.313777 217.984444 
L 222.417593 217.796108 
L 222.52141 218.026724 
L 222.625226 217.773047 
L 222.832859 218.034411 
L 223.144308 217.788421 
L 223.351941 217.853762 
L 223.455757 217.730767 
L 223.559574 217.81917 
L 223.66339 217.673114 
L 224.078656 217.784578 
L 224.182467 217.719237 
L 224.3901 217.811483 
L 224.493916 217.700019 
L 224.597733 217.77689 
L 224.701549 217.66927 
L 224.805366 217.880667 
L 225.012999 217.838388 
L 225.220631 217.942165 
L 225.324448 217.730767 
L 225.428264 217.988288 
L 225.532081 217.715393 
L 225.739713 217.919103 
L 225.947346 217.730767 
L 226.154979 217.91526 
L 227.400776 217.896042 
L 227.504592 217.796108 
L 227.608409 217.96907 
L 227.919858 217.707706 
L 228.127491 218.042098 
L 228.335124 217.849919 
L 228.43894 217.826857 
L 228.542756 217.596242 
L 228.646573 217.696175 
L 229.061838 217.419437 
L 229.165655 217.557806 
L 229.373288 217.146542 
L 229.477104 217.331034 
L 229.89237 216.942832 
L 229.996186 217.085045 
L 230.100002 216.862117 
L 230.203819 217.01586 
L 230.411452 216.823681 
L 230.930534 217.192665 
L 231.138167 216.915927 
L 231.345799 217.215727 
L 231.657249 217.254163 
L 231.864881 217.373314 
L 231.968698 217.676957 
L 232.072514 217.442498 
L 232.280147 217.650052 
L 232.383963 217.530901 
L 232.591596 217.738455 
L 232.695413 217.72308 
L 232.799229 217.534744 
L 233.006862 217.746142 
L 233.110678 217.546275 
L 233.214495 217.746142 
L 233.318311 217.588555 
L 233.525944 217.661583 
L 233.837393 217.480934 
L 234.045026 217.569337 
L 234.148842 217.396375 
L 234.252659 217.773047 
L 234.356475 217.588555 
L 234.564108 217.834544 
L 234.667924 217.642365 
L 234.875557 217.957539 
L 235.187006 217.815326 
L 235.394639 217.942165 
L 235.498456 217.784578 
L 235.602272 217.938321 
L 235.706088 217.792265 
L 235.809905 217.949852 
L 236.017538 217.611616 
L 236.53662 217.457873 
L 236.640436 217.657739 
L 236.744252 217.450186 
L 237.055702 217.634678 
L 237.159518 217.381001 
L 237.367151 217.480934 
L 237.470967 217.384845 
L 237.574784 217.454029 
L 237.6786 217.76536 
L 237.886233 217.607773 
L 238.301494 217.700019 
L 238.612943 217.565493 
L 238.820576 217.623147 
L 238.924392 217.642365 
L 239.028208 217.515526 
L 239.235841 217.646208 
L 239.339658 217.41175 
L 239.443474 217.584711 
L 239.54729 217.392532 
L 239.754923 217.626991 
L 239.85874 217.569337 
L 240.066372 217.657739 
L 240.170189 217.57318 
L 240.377822 217.899885 
L 240.481638 217.734611 
L 240.793087 217.807639 
L 240.896904 217.746142 
L 241.415986 218.011349 
L 241.519802 218.019036 
L 241.623619 217.880667 
L 241.727435 218.049785 
L 241.935068 217.930634 
L 242.869415 217.949852 
L 242.973232 217.865293 
L 243.077048 218.049785 
L 243.180865 217.884511 
L 243.284681 218.053629 
L 243.492314 217.880667 
L 243.59613 217.81917 
L 243.803763 217.976757 
L 244.011396 218.057472 
L 244.219029 217.869137 
L 244.322845 218.030567 
L 244.738111 217.896042 
L 244.841927 218.049785 
L 245.04956 217.830701 
L 245.153376 217.846075 
L 245.257193 218.092065 
L 245.361009 217.803796 
L 245.464826 217.992131 
L 245.776275 217.673114 
L 246.295357 217.653896 
L 246.399173 217.488621 
L 246.50299 217.538588 
L 246.710622 217.454029 
L 246.814439 217.538588 
L 246.918255 217.277224 
L 247.125888 217.442498 
L 247.333521 217.388688 
L 247.437337 217.553962 
L 247.748787 217.327191 
L 247.956419 217.588555 
L 248.164052 217.630834 
L 248.371685 217.480934 
L 248.683134 217.61546 
L 248.786951 217.500152 
L 248.890767 217.623147 
L 248.994583 217.469403 
L 249.202216 217.684644 
L 249.306033 217.557806 
L 249.409849 217.730767 
L 249.617482 217.496309 
L 249.825115 217.680801 
L 250.032747 217.76536 
L 250.24038 217.611616 
L 250.759462 217.753829 
L 250.863279 217.527057 
L 251.174728 217.903729 
L 251.278544 217.749985 
L 251.486177 217.880667 
L 251.589994 217.942165 
L 251.901438 217.757672 
L 252.109071 217.861449 
L 252.628153 217.922947 
L 252.731969 217.876824 
L 252.835785 217.972913 
L 252.939602 217.826857 
L 253.043418 217.988288 
L 253.354867 217.769203 
L 253.5625 217.930634 
L 253.666317 217.988288 
L 253.770133 217.815326 
L 253.873949 217.896042 
L 253.977766 217.792265 
L 254.081582 218.019036 
L 254.289215 217.957539 
L 254.496848 217.853762 
L 254.600664 218.042098 
L 254.808297 217.87298 
L 255.01593 217.980601 
L 256.054094 217.600085 
L 256.365543 217.446342 
L 256.780809 217.507839 
L 256.884625 217.446342 
L 256.988442 217.150386 
L 257.196074 217.484778 
L 257.403707 217.231101 
L 257.507524 217.350252 
L 257.61134 217.473247 
L 257.715157 217.254163 
L 258.234239 217.507839 
L 258.441871 217.254163 
L 258.753321 217.404062 
L 258.857137 217.31566 
L 259.06477 217.41175 
L 259.168586 217.250319 
L 259.376219 217.454029 
L 259.480035 217.327191 
L 259.687668 217.477091 
L 259.895301 217.254163 
L 259.999117 217.577024 
L 260.20675 217.254163 
L 260.414383 217.500152 
L 260.829649 217.342565 
L 261.037282 217.592398 
L 261.141098 217.530901 
L 261.348731 217.761516 
L 261.452547 217.66927 
L 261.763996 217.930634 
L 261.971629 217.726924 
L 262.075446 217.892198 
L 262.179262 217.611616 
L 262.283078 217.849919 
L 262.386895 217.626991 
L 262.490711 217.753829 
L 262.594528 217.653896 
L 262.698344 217.842231 
L 262.80216 217.726924 
L 262.905977 217.823013 
L 263.11361 217.711549 
L 263.217426 217.730767 
L 263.321242 217.934478 
L 263.528875 217.742298 
L 263.840325 217.830701 
L 263.944141 217.734611 
L 264.151774 217.899885 
L 264.25559 217.87298 
L 264.463223 217.957539 
L 264.567039 217.869137 
L 264.878489 217.949852 
L 265.086121 217.826857 
L 265.189938 217.91526 
L 265.293754 217.807639 
L 265.397566 217.92679 
L 265.501382 217.72308 
L 265.605198 217.799952 
L 265.812831 217.680801 
L 265.916648 217.773047 
L 266.020464 217.600085 
L 266.12428 217.838388 
L 266.228097 217.76536 
L 266.331913 217.842231 
L 266.43573 217.742298 
L 266.539546 217.861449 
L 266.747179 217.838388 
L 266.954812 217.842231 
L 267.058628 217.77689 
L 267.266261 217.899885 
L 267.370077 217.753829 
L 267.473894 217.896042 
L 267.992976 217.626991 
L 268.096792 217.703862 
L 268.408241 217.361783 
L 268.512058 217.307973 
L 268.615874 217.457873 
L 268.719691 217.181134 
L 268.927323 217.442498 
L 269.03114 217.238788 
L 269.446405 217.454029 
L 269.550222 217.284911 
L 269.861671 217.450186 
L 270.17312 217.500152 
L 270.380753 217.707706 
L 270.692202 217.57318 
L 270.796019 217.788421 
L 270.899835 217.596242 
L 271.003651 217.746142 
L 271.107468 217.623147 
L 271.211284 217.726924 
L 271.315101 217.57318 
L 271.522734 217.876824 
L 271.730366 217.72308 
L 271.937999 217.811483 
L 272.041816 217.742298 
L 272.145632 217.903729 
L 272.353265 217.665426 
L 272.560898 217.784578 
L 273.07998 217.711549 
L 273.183796 217.888354 
L 273.287612 217.657739 
L 273.495245 217.830701 
L 273.599062 217.707706 
L 273.702878 217.823013 
L 273.806694 217.715393 
L 273.910511 217.803796 
L 274.014327 217.715393 
L 274.325777 217.826857 
L 274.637226 217.773047 
L 274.741042 217.676957 
L 274.844859 217.919103 
L 275.052491 217.711549 
L 275.571573 217.769203 
L 275.779206 217.673114 
L 276.090655 217.553962 
L 276.298288 217.41175 
L 276.609737 217.288755 
L 277.232636 217.265693 
L 277.336452 217.200352 
L 277.544085 217.415593 
L 277.647902 217.246475 
L 277.855534 217.557806 
L 278.582249 217.784578 
L 278.789882 217.853762 
L 278.997515 218.02288 
L 279.101326 217.846075 
L 279.308959 217.91526 
L 279.412775 217.972913 
L 279.620408 217.942165 
L 279.931857 217.91526 
L 280.035674 218.115126 
L 280.13949 217.876824 
L 280.347123 217.965226 
L 280.554756 217.880667 
L 280.762389 217.934478 
L 280.970021 217.807639 
L 281.073838 217.826857 
L 281.177654 217.680801 
L 281.281471 217.961383 
L 281.489104 217.703862 
L 281.59292 217.753829 
L 281.800553 217.61546 
L 281.904369 217.711549 
L 282.215818 217.619303 
L 282.319635 217.688488 
L 282.527268 217.557806 
L 282.631084 217.680801 
L 282.7349 217.515526 
L 282.838717 217.565493 
L 282.942533 217.434811 
L 283.253982 217.76536 
L 283.461615 217.580867 
L 283.669248 217.811483 
L 283.876881 217.773047 
L 284.084514 217.811483 
L 284.499779 217.907572 
L 284.603596 218.072847 
L 284.811229 217.861449 
L 284.915045 218.026724 
L 285.226494 217.938321 
L 285.434127 218.02288 
L 285.953209 217.888354 
L 286.057025 217.984444 
L 286.264658 217.930634 
L 286.472291 217.992131 
L 286.78374 217.930634 
L 286.991373 217.995975 
L 287.095189 217.911416 
L 287.199006 218.061316 
L 287.614272 217.922947 
L 287.925721 217.949852 
L 288.23717 218.095908 
L 288.340986 218.038254 
L 288.444803 218.149718 
L 288.548619 218.045942 
L 288.652436 218.1305 
L 288.860068 218.080534 
L 288.963885 218.115126 
L 289.171518 218.069003 
L 289.275334 218.011349 
L 289.482967 218.134344 
L 289.794416 218.015193 
L 290.002049 218.157406 
L 290.209682 218.126657 
L 290.83258 218.126657 
L 291.040213 218.099752 
L 291.144029 218.188154 
L 291.455479 218.007506 
L 291.766928 218.222747 
L 291.870744 218.072847 
L 291.974561 218.17278 
L 292.078377 218.084377 
L 292.182193 218.153562 
L 292.28601 218.061316 
L 292.389826 218.188154 
L 292.597459 217.972913 
L 293.01272 218.168936 
L 293.220352 218.072847 
L 293.531802 218.088221 
L 293.739434 218.042098 
L 295.296681 218.230434 
L 295.504313 218.157406 
L 295.711946 218.334211 
L 295.919579 218.168936 
L 296.127212 218.245808 
L 296.334845 218.22659 
L 296.438661 218.111283 
L 296.542477 218.272713 
L 296.646294 218.099752 
L 296.853927 218.22659 
L 297.165376 218.188154 
L 297.476825 218.17278 
L 297.684458 218.241965 
L 297.788274 218.288088 
L 297.995907 218.11897 
L 298.099724 218.072847 
L 298.20354 218.276557 
L 298.307356 218.053629 
L 298.411173 218.176624 
L 298.618806 218.065159 
L 298.826438 218.1305 
L 299.034071 217.992131 
L 299.449337 217.953695 
L 299.65697 217.949852 
L 300.176052 217.949852 
L 300.279868 217.77689 
L 300.487501 217.988288 
L 300.591317 217.87298 
L 300.695134 217.946008 
L 300.79895 217.846075 
L 300.902766 217.995975 
L 301.214216 217.792265 
L 301.318032 218.084377 
L 301.421849 217.753829 
L 301.629481 217.92679 
L 301.733298 218.02288 
L 301.837114 217.869137 
L 302.044747 218.034411 
L 302.25238 217.91526 
L 302.460013 218.099752 
L 303.186727 217.96907 
L 303.39436 218.107439 
L 304.121075 217.92679 
L 304.328708 218.038254 
L 304.536341 218.084377 
L 304.640157 217.826857 
L 304.84779 218.065159 
L 304.951606 218.122813 
L 305.055423 217.988288 
L 305.263056 218.049785 
L 305.470688 217.976757 
L 305.574505 218.145875 
L 305.885954 218.057472 
L 306.197403 218.334211 
L 306.405036 218.084377 
L 306.820297 218.249652 
L 307.235562 218.168936 
L 307.339379 218.341898 
L 307.547011 218.230434 
L 307.650828 218.26887 
L 307.858461 218.191998 
L 308.16991 218.303462 
L 309.208074 218.149718 
L 309.415707 218.215059 
L 309.519523 218.107439 
L 309.727156 218.218903 
L 309.934789 218.176624 
L 310.246238 218.11897 
L 310.557687 218.303462 
L 310.76532 218.22659 
L 310.869136 218.307305 
L 311.076769 218.257339 
L 311.180586 218.334211 
L 311.388219 218.088221 
L 311.595851 218.241965 
L 311.907301 218.11897 
L 312.21875 218.26887 
L 312.322566 218.126657 
L 312.426383 218.295775 
L 312.737832 218.249652 
L 313.568363 218.103595 
L 313.672179 218.388021 
L 313.879812 218.176624 
L 313.983629 218.26887 
L 314.087445 218.191998 
L 314.295078 218.230434 
L 314.710344 218.149718 
L 314.81416 218.22659 
L 314.917976 218.157406 
L 315.021793 218.253495 
L 315.125609 218.188154 
L 315.229426 218.2804 
L 315.437058 218.1305 
L 315.644691 218.222747 
L 315.748508 218.180467 
L 315.95614 218.238121 
L 316.26759 218.272713 
L 317.201937 218.165093 
L 317.40957 218.295775 
L 317.721019 218.195841 
L 318.032469 218.276557 
L 318.136285 218.088221 
L 318.240101 218.261182 
L 318.447734 218.053629 
L 318.551551 218.17278 
L 318.655367 218.092065 
L 318.966816 218.334211 
L 319.174449 218.165093 
L 319.278265 218.276557 
L 319.382082 218.053629 
L 319.589715 218.245808 
L 319.797347 218.199685 
L 320.00498 218.195841 
L 320.108797 218.314993 
L 320.316424 218.165093 
L 320.420241 218.107439 
L 320.524057 218.2804 
L 320.627874 218.180467 
L 320.73169 218.299618 
L 320.835506 218.215059 
L 321.146956 218.330367 
L 321.458405 218.188154 
L 321.873671 218.334211 
L 321.977487 218.168936 
L 322.18512 218.288088 
L 322.704202 218.168936 
L 323.015651 218.238121 
L 323.3271 218.299618 
L 323.534733 218.095908 
L 323.638549 218.180467 
L 323.846182 218.088221 
L 324.053815 218.288088 
L 324.157631 218.299618 
L 324.261448 218.019036 
L 324.469081 218.288088 
L 324.676714 218.241965 
L 324.78053 218.388021 
L 324.884346 218.157406 
L 325.091979 218.299618 
L 325.714878 218.341898 
L 325.818694 218.238121 
L 326.130143 218.349585 
L 326.337776 218.361116 
L 326.441592 218.453362 
L 326.753042 218.253495 
L 327.168307 218.361116 
L 327.37594 218.284244 
L 327.687389 218.457205 
L 327.791206 218.507172 
L 328.206471 218.234277 
L 328.414104 218.437987 
L 328.621737 218.326523 
L 328.82937 218.407239 
L 328.933186 218.253495 
L 329.244635 218.334211 
L 329.556085 218.326523 
L 329.659901 218.572513 
L 329.867534 218.276557 
L 330.075167 218.449518 
L 330.178983 218.261182 
L 330.386616 218.441831 
L 330.698065 218.230434 
L 330.801881 218.326523 
L 331.009514 218.284244 
L 331.217147 218.318836 
L 331.320964 218.188154 
L 331.528596 218.37649 
L 331.632413 218.245808 
L 331.736229 218.384177 
L 331.840046 218.241965 
L 332.047678 218.349585 
L 332.151495 218.165093 
L 332.255311 218.411082 
L 332.56676 218.115126 
L 332.774393 218.284244 
L 332.87821 218.145875 
L 332.982026 218.295775 
L 333.085842 218.215059 
L 333.189659 218.399552 
L 333.293475 218.222747 
L 333.397292 218.26887 
L 333.501108 218.161249 
L 333.708741 218.384177 
L 334.02019 218.345741 
L 334.124001 218.241965 
L 334.227818 218.395708 
L 334.539267 218.334211 
L 334.7469 218.37649 
L 334.954533 218.22659 
L 335.058349 218.445675 
L 335.369798 218.245808 
L 336.20033 218.399552 
L 336.719412 218.2804 
L 336.823228 218.364959 
L 336.927044 218.191998 
L 337.238494 218.345741 
L 337.34231 218.230434 
L 337.549943 218.284244 
L 337.653759 218.261182 
L 337.757576 218.414926 
L 337.965208 218.265026 
L 338.069025 218.403395 
L 338.484291 218.234277 
L 338.691923 218.291931 
L 340.560619 218.26887 
L 340.664435 218.095908 
L 340.872068 218.234277 
L 340.975884 218.092065 
L 341.494966 218.241965 
L 342.117865 218.391864 
L 342.221681 218.176624 
L 342.429314 218.26887 
L 342.53313 218.126657 
L 342.84458 218.276557 
L 342.948396 218.1305 
L 343.571294 218.357272 
L 343.675111 218.176624 
L 343.882744 218.238121 
L 344.194193 218.303462 
L 344.401826 218.199685 
L 344.817091 218.395708 
L 344.920908 218.407239 
L 345.024724 218.2804 
L 345.43999 218.434144 
L 345.647623 218.353429 
L 346.062888 218.211216 
L 346.270521 218.303462 
L 346.374337 218.318836 
L 346.685787 218.161249 
L 346.789603 218.291931 
L 346.997236 218.080534 
L 347.204869 218.291931 
L 347.308685 218.203529 
L 347.412502 218.314993 
L 347.516318 218.157406 
L 347.620134 218.32268 
L 347.827762 218.276557 
L 348.035395 218.326523 
L 348.139211 218.241965 
L 348.243028 218.422613 
L 348.346844 218.241965 
L 348.554477 218.364959 
L 348.76211 218.265026 
L 349.073559 218.357272 
L 349.90409 218.32268 
L 350.007907 218.407239 
L 350.111723 218.318836 
L 350.215539 218.411082 
L 350.526989 218.17278 
L 350.734621 218.368803 
L 351.253703 218.353429 
L 351.461336 218.372646 
L 351.772786 218.276557 
L 351.980418 218.368803 
L 352.084235 218.26887 
L 352.291868 218.464893 
L 352.4995 218.32268 
L 355.40636 218.453362 
L 355.613993 218.253495 
L 355.717809 218.407239 
L 356.133075 218.341898 
L 356.236891 218.47258 
L 356.340707 218.37649 
L 356.54834 218.457205 
L 356.963606 218.368803 
L 357.067422 218.511016 
L 357.171239 218.380334 
L 357.275055 218.441831 
L 357.482688 218.37649 
L 358.520852 218.449518 
L 358.624668 218.5802 
L 359.039934 218.395708 
L 359.247567 218.395708 
L 359.559016 218.476423 
L 359.662832 218.584044 
L 359.870465 218.4303 
L 360.078098 218.511016 
L 360.59718 218.368803 
L 360.804813 218.457205 
L 361.012446 218.357272 
L 361.116262 218.449518 
L 361.220079 218.334211 
L 361.739155 218.534077 
L 361.946788 218.441831 
L 362.673503 218.468736 
L 362.77732 218.549451 
L 362.881136 218.334211 
L 363.088769 218.457205 
L 363.296402 218.422613 
L 363.400218 218.52639 
L 363.607851 218.449518 
L 363.815484 218.403395 
L 363.9193 218.530234 
L 364.023116 218.388021 
L 364.126933 218.457205 
L 364.334566 218.4303 
L 364.646015 218.426457 
L 365.268913 218.411082 
L 365.580363 218.384177 
L 365.995628 218.345741 
L 366.099445 218.484111 
L 366.410894 218.437987 
L 366.618527 218.449518 
L 366.826159 218.441831 
L 367.033792 218.334211 
L 367.241425 218.338054 
L 367.449058 218.318836 
L 367.552874 218.395708 
L 367.656691 218.215059 
L 367.864323 218.499485 
L 367.96814 218.334211 
L 368.175773 218.468736 
L 369.733019 218.461049 
L 369.940652 218.437987 
L 370.148284 218.361116 
L 370.252101 218.511016 
L 370.459734 218.403395 
L 371.809347 218.487954 
L 372.01698 218.47258 
L 372.120796 218.499485 
L 372.328429 218.437987 
L 372.536062 218.518703 
L 372.639878 218.572513 
L 372.847511 218.484111 
L 373.15896 218.441831 
L 373.470409 218.514859 
L 375.3391 218.468736 
L 375.546733 218.391864 
L 375.754365 218.599418 
L 375.961998 218.503328 
L 376.169631 218.503328 
L 376.377264 218.507172 
L 376.48108 218.560982 
L 376.688713 218.514859 
L 377.311611 218.47258 
L 377.415428 218.541764 
L 377.519244 218.411082 
L 377.623061 218.522546 
L 377.830693 218.407239 
L 378.245959 218.534077 
L 378.453592 218.353429 
L 378.868858 218.591731 
L 379.07649 218.441831 
L 379.284123 218.464893 
L 379.38794 218.349585 
L 379.595572 218.541764 
L 379.699389 218.426457 
L 379.907022 218.507172 
L 380.322287 218.380334 
L 380.52992 218.511016 
L 380.737553 218.426457 
L 380.841369 218.503328 
L 381.049002 218.464893 
L 381.256635 218.461049 
L 381.464268 218.380334 
L 381.568084 218.553295 
L 381.775717 218.4303 
L 381.98335 218.491798 
L 382.190983 218.511016 
L 382.294799 218.549451 
L 382.502432 218.449518 
L 382.710065 218.495641 
L 383.12533 218.503328 
L 383.436779 218.476423 
L 383.644412 218.464893 
L 383.955861 218.530234 
L 384.059678 218.537921 
L 384.163494 218.434144 
L 384.371127 218.549451 
L 384.682576 218.487954 
L 384.890209 218.541764 
L 384.994026 218.388021 
L 385.097842 218.541764 
L 385.201658 218.461049 
L 385.305475 218.626323 
L 385.409291 218.476423 
L 385.513108 218.653228 
L 385.616924 218.441831 
L 385.824557 218.557139 
L 386.136006 218.545608 
L 386.447455 218.595575 
L 387.17417 218.476423 
L 387.381803 218.603262 
L 387.589436 218.680133 
L 387.797069 218.491798 
L 388.212334 218.614792 
L 388.316151 218.414926 
L 388.523783 218.461049 
L 388.835233 218.630167 
L 388.939049 218.480267 
L 389.04286 218.614792 
L 389.250493 218.476423 
L 389.35431 218.626323 
L 389.458126 218.52639 
L 389.561942 218.595575 
L 389.769575 218.491798 
L 389.873392 218.560982 
L 390.081024 218.480267 
L 390.288657 218.587887 
L 390.49629 218.503328 
L 390.600106 218.591731 
L 390.703923 218.480267 
L 390.911556 218.610949 
L 391.119188 218.453362 
L 391.326821 218.4303 
L 391.430638 218.564826 
L 391.534454 218.372646 
L 391.845903 218.507172 
L 391.94972 218.422613 
L 392.157353 218.672446 
L 392.261169 218.503328 
L 392.364985 218.683977 
L 392.676435 218.47258 
L 392.780251 218.610949 
L 393.0917 218.514859 
L 393.195517 218.52639 
L 393.299333 218.411082 
L 393.714599 218.530234 
L 393.818415 218.437987 
L 393.922231 218.576357 
L 394.026048 218.461049 
L 394.337497 218.518703 
L 395.064212 218.603262 
L 395.271845 218.422613 
L 395.479478 218.47258 
L 395.894743 218.537921 
L 396.102376 218.503328 
L 397.348173 218.572513 
L 397.555806 218.499485 
L 397.659622 218.534077 
L 397.763438 218.372646 
L 397.867255 218.576357 
L 397.971071 218.522546 
L 398.074888 218.599418 
L 398.282521 218.476423 
L 398.59397 218.484111 
L 398.697786 218.599418 
L 398.801603 218.468736 
L 399.113052 218.610949 
L 399.943583 218.507172 
L 400.151216 218.576357 
L 400.462665 218.560982 
L 400.670298 218.511016 
L 400.877931 218.568669 
L 400.981747 218.461049 
L 401.085564 218.614792 
L 401.18938 218.41877 
L 401.293196 218.680133 
L 401.604646 218.391864 
L 401.812278 218.541764 
L 402.019911 218.480267 
L 402.227544 218.595575 
L 403.161887 218.707039 
L 403.265703 218.557139 
L 403.369519 218.672446 
L 403.473336 218.530234 
L 403.577152 218.630167 
L 403.680969 218.464893 
L 403.992418 218.584044 
L 404.5115 218.591731 
L 404.822949 218.507172 
L 404.926765 218.668603 
L 405.238215 218.549451 
L 405.342031 218.553295 
L 405.549664 218.649385 
L 405.861113 218.610949 
L 405.96493 218.657072 
L 406.068746 218.553295 
L 406.380195 218.668603 
L 406.484012 218.672446 
L 406.587828 218.537921 
L 406.795461 218.687821 
L 406.899277 218.549451 
L 407.10691 218.564826 
L 407.418359 218.495641 
L 407.522176 218.610949 
L 407.625992 218.511016 
L 407.729808 218.660916 
L 407.937441 218.507172 
L 408.041258 218.672446 
L 408.145074 218.557139 
L 408.248891 218.691664 
L 408.352707 218.557139 
L 408.456523 218.63401 
L 408.664156 218.607105 
L 408.975605 218.672446 
L 409.079422 218.541764 
L 409.183238 218.691664 
L 409.390871 218.4303 
L 409.598504 218.587887 
L 410.325219 218.626323 
L 410.429035 218.445675 
L 410.636668 218.626323 
L 410.740484 218.649385 
L 410.844301 218.518703 
L 410.948117 218.660916 
L 411.051933 218.511016 
L 411.259566 218.553295 
L 411.778648 218.610949 
L 411.986281 218.47258 
L 412.193914 218.649385 
L 412.29773 218.5802 
L 412.505363 218.63401 
L 415.100773 218.603262 
L 415.308406 218.664759 
L 415.516039 218.587887 
L 415.827488 218.541764 
L 416.138937 218.664759 
L 416.450382 218.607105 
L 416.554198 218.518703 
L 416.761831 218.67629 
L 417.07328 218.549451 
L 417.488546 218.657072 
L 417.696178 218.568669 
L 419.045792 218.534077 
L 419.149608 218.745474 
L 419.357241 218.5802 
L 419.461057 218.657072 
L 419.564874 218.541764 
L 419.66869 218.683977 
L 419.772507 218.595575 
L 419.876323 218.672446 
L 419.980139 218.572513 
L 420.291589 218.745474 
L 420.499221 218.649385 
L 421.433569 218.62248 
L 421.745018 218.603262 
L 421.848835 218.522546 
L 422.056468 218.845408 
L 422.160284 218.614792 
L 422.367917 218.618636 
L 422.679366 218.630167 
L 424.651878 218.610949 
L 424.755694 218.691664 
L 424.963327 218.660916 
L 425.17096 218.680133 
L 425.378593 218.641698 
L 425.690042 218.587887 
L 425.793858 218.780067 
L 426.209124 218.660916 
L 427.143471 218.722413 
L 427.351104 218.599418 
L 427.662553 218.626323 
L 428.077819 218.714726 
L 428.181636 218.445675 
L 428.389268 218.753162 
L 428.700718 218.545608 
L 428.90835 218.691664 
L 429.115983 218.614792 
L 429.323616 218.718569 
L 429.531249 218.63401 
L 430.361775 218.672446 
L 430.465591 218.499485 
L 430.673224 218.641698 
L 430.880857 218.564826 
L 431.08849 218.610949 
L 431.399939 218.645541 
L 431.503755 218.572513 
L 431.711388 218.699351 
L 431.815205 218.641698 
L 431.919021 218.722413 
L 432.126654 218.641698 
L 432.645736 218.5802 
L 432.853369 218.718569 
L 432.957185 218.572513 
L 433.164818 218.699351 
L 433.372451 218.576357 
L 433.6839 218.737787 
L 433.787716 218.587887 
L 433.995349 218.699351 
L 434.202982 218.630167 
L 434.410615 218.714726 
L 434.514431 218.572513 
L 434.722064 218.668603 
L 435.033513 218.67629 
L 435.241146 218.576357 
L 435.864045 218.714726 
L 436.590759 218.614792 
L 436.694576 218.695508 
L 436.798392 218.5802 
L 437.006025 218.733944 
L 437.109841 218.568669 
L 437.421291 218.695508 
L 437.73274 218.630167 
L 437.836556 218.67629 
L 438.044189 218.534077 
L 438.148006 218.660916 
L 438.251822 218.599418 
L 438.459455 218.703195 
L 438.87472 218.564826 
L 438.978537 218.803128 
L 439.18617 218.703195 
L 440.32815 218.657072 
L 440.535783 218.726257 
L 440.743416 218.618636 
L 440.847232 218.757005 
L 441.054865 218.683977 
L 441.262498 218.687821 
L 441.366314 218.757005 
L 441.470131 218.63401 
L 441.677763 218.67629 
L 442.300662 218.749318 
L 442.404478 218.545608 
L 442.715927 218.718569 
L 442.92356 218.67629 
L 443.131193 218.691664 
L 443.235009 218.610949 
L 443.338826 218.733944 
L 443.546459 218.603262 
L 443.754091 218.718569 
L 444.065536 218.637854 
L 444.169352 218.749318 
L 444.376985 218.7301 
L 445.518965 218.560982 
L 445.726598 218.722413 
L 445.830415 218.576357 
L 446.038047 218.710882 
L 446.660946 218.753162 
L 446.868579 218.733944 
L 447.076211 218.703195 
L 448.218192 218.641698 
L 448.322008 218.764692 
L 448.633458 218.568669 
L 448.737274 218.78391 
L 449.048723 218.5802 
L 449.256356 218.733944 
L 449.463989 218.664759 
L 449.567805 218.78391 
L 449.879254 218.657072 
L 450.29452 218.7301 
L 450.502153 218.672446 
L 450.709786 218.691664 
L 451.125051 218.62248 
L 451.332684 218.760849 
L 453.928094 218.753162 
L 454.031911 218.787754 
L 454.239543 218.699351 
L 454.654809 218.672446 
L 454.758626 218.733944 
L 454.862442 218.653228 
L 455.070075 218.860782 
L 455.173891 218.607105 
L 455.48534 218.814659 
L 455.692973 218.768536 
L 456.004422 218.62248 
L 456.212055 218.714726 
L 456.419688 218.82619 
L 456.523504 218.645541 
L 456.731137 218.703195 
L 457.146403 218.810815 
L 457.457852 218.737787 
L 457.66548 218.745474 
L 457.769296 218.664759 
L 457.976929 218.745474 
L 458.288378 218.672446 
L 459.015093 218.776223 
L 459.222726 218.695508 
L 459.534175 218.780067 
L 459.741808 218.699351 
L 459.845624 218.776223 
L 459.949441 218.703195 
L 460.053257 218.78391 
L 460.26089 218.664759 
L 460.572339 218.722413 
L 461.506687 218.67629 
L 461.610503 218.78391 
L 461.818136 218.660916 
L 462.233402 218.768536 
L 462.337218 218.660916 
L 462.441035 218.814659 
L 462.648667 218.718569 
L 462.8563 218.764692 
L 463.479199 218.737787 
L 463.894464 218.7301 
L 464.102097 218.710882 
L 464.205913 218.830033 
L 464.30973 218.680133 
L 464.517363 218.718569 
L 464.621179 218.780067 
L 464.828812 218.699351 
L 465.036445 218.806972 
L 465.140261 218.680133 
L 465.45171 218.822346 
L 465.659343 218.668603 
L 466.178425 218.699351 
L 466.282242 218.664759 
L 466.386058 218.803128 
L 466.489874 218.691664 
L 466.697507 218.683977 
L 469.085285 218.741631 
L 469.292917 218.707039 
L 471.161613 218.757005 
L 471.265429 218.664759 
L 471.473057 218.841564 
L 471.576873 218.641698 
L 471.68069 218.787754 
L 471.784506 218.710882 
L 471.888322 218.837721 
L 471.992139 218.691664 
L 472.095955 218.82619 
L 472.511221 218.695508 
L 472.615037 218.803128 
L 472.82267 218.745474 
L 473.030303 218.710882 
L 473.237936 218.810815 
L 473.445569 218.737787 
L 473.549385 218.795441 
L 473.757018 218.776223 
L 474.172283 218.78391 
L 474.2761 218.630167 
L 474.483733 218.814659 
L 474.795182 218.722413 
L 475.41808 218.737787 
L 475.625713 218.653228 
L 475.833346 218.707039 
L 476.040979 218.760849 
L 476.248612 218.749318 
L 476.352428 218.810815 
L 476.456244 218.67629 
L 476.663877 218.853095 
L 476.767694 218.749318 
L 476.87151 218.849251 
L 477.079143 218.753162 
L 477.182959 218.787754 
L 477.286776 218.699351 
L 477.494408 218.849251 
L 477.598225 218.703195 
L 477.805858 218.768536 
L 477.909674 218.683977 
L 478.01349 218.760849 
L 478.221123 218.687821 
L 478.32494 218.806972 
L 478.532573 218.637854 
L 478.636389 218.780067 
L 478.844022 218.687821 
L 479.051655 218.7301 
L 479.155471 218.695508 
L 479.259287 218.837721 
L 479.46692 218.749318 
L 479.570737 218.680133 
L 479.778369 218.78391 
L 479.882186 218.641698 
L 479.986002 218.787754 
L 480.089819 218.687821 
L 480.193635 218.818503 
L 480.297451 218.707039 
L 480.401268 218.88 
L 480.712717 218.768536 
L 480.92035 218.77238 
L 481.127983 218.67629 
L 481.439432 218.718569 
L 482.477596 218.737787 
L 482.581412 218.853095 
L 482.685229 218.753162 
L 482.789045 218.810815 
L 482.892862 218.672446 
L 483.204311 218.841564 
L 483.411944 218.764692 
L 483.51576 218.78391 
L 483.619576 218.664759 
L 483.827209 218.803128 
L 483.931026 218.67629 
L 484.242475 218.860782 
L 484.450108 218.707039 
L 484.553924 218.837721 
L 484.657741 218.699351 
L 484.865373 218.741631 
L 484.96919 218.737787 
L 485.073006 218.849251 
L 485.176817 218.707039 
L 485.280634 218.868469 
L 485.488267 218.841564 
L 485.799716 218.77238 
L 485.799716 218.77238 
" clip-path="url(#pdfebad8ac4)" style="fill: none; stroke: #1f77b4; stroke-width: 1.5; stroke-linecap: square"/>
   </g>
   <g id="patch_3">
    <path d="M 59.690625 228.96 
L 59.690625 7.2 
" style="fill: none; stroke: #000000; stroke-width: 0.8; stroke-linejoin: miter; stroke-linecap: square"/>
   </g>
   <g id="patch_4">
    <path d="M 506.090625 228.96 
L 506.090625 7.2 
" style="fill: none; stroke: #000000; stroke-width: 0.8; stroke-linejoin: miter; stroke-linecap: square"/>
   </g>
   <g id="patch_5">
    <path d="M 59.690625 228.96 
L 506.090625 228.96 
" style="fill: none; stroke: #000000; stroke-width: 0.8; stroke-linejoin: miter; stroke-linecap: square"/>
   </g>
   <g id="patch_6">
    <path d="M 59.690625 7.2 
L 506.090625 7.2 
" style="fill: none; stroke: #000000; stroke-width: 0.8; stroke-linejoin: miter; stroke-linecap: square"/>
   </g>
  </g>
 </g>
 <defs>
  <clipPath id="pdfebad8ac4">
   <rect x="59.690625" y="7.2" width="446.4" height="221.76"/>
  </clipPath>
 </defs>
</svg>
