<?xml version="1.0" encoding="utf-8" standalone="no"?>
<!DOCTYPE svg PUBLIC "-//W3C//DTD SVG 1.1//EN"
  "http://www.w3.org/Graphics/SVG/1.1/DTD/svg11.dtd">
<svg xmlns:xlink="http://www.w3.org/1999/xlink" width="506.928125pt" height="266.594375pt" viewBox="0 0 506.928125 266.594375" xmlns="http://www.w3.org/2000/svg" version="1.1">
 <metadata>
  <rdf:RDF xmlns:dc="http://purl.org/dc/elements/1.1/" xmlns:cc="http://creativecommons.org/ns#" xmlns:rdf="http://www.w3.org/1999/02/22-rdf-syntax-ns#">
   <cc:Work>
    <dc:type rdf:resource="http://purl.org/dc/dcmitype/StillImage"/>
    <dc:date>2026-04-14T09:10:17.917510</dc:date>
    <dc:format>image/svg+xml</dc:format>
    <dc:creator>
     <cc:Agent>
      <dc:title>Matplotlib v3.10.8, https://matplotlib.org/</dc:title>
     </cc:Agent>
    </dc:creator>
   </cc:Work>
  </rdf:RDF>
 </metadata>
 <defs>
  <style type="text/css">*{stroke-linejoin: round; stroke-linecap: butt}</style>
 </defs>
 <g id="figure_1">
  <g id="patch_1">
   <path d="M 0 266.594375 
L 506.928125 266.594375 
L 506.928125 0 
L 0 0 
z
" style="fill: #ffffff"/>
  </g>
  <g id="axes_1">
   <g id="patch_2">
    <path d="M 53.328125 228.96 
L 499.728125 228.96 
L 499.728125 7.2 
L 53.328125 7.2 
z
" style="fill: #ffffff"/>
   </g>
   <g id="matplotlib.axis_1">
    <g id="xtick_1">
     <g id="line2d_1">
      <path d="M 71.532028 228.96 
L 71.532028 7.2 
" clip-path="url(#p9303e2bf03)" style="fill: none; stroke: #b0b0b0; stroke-opacity: 0.3; stroke-width: 0.8; stroke-linecap: square"/>
     </g>
     <g id="line2d_2">
      <defs>
       <path id="med13b9432c" d="M 0 0 
L 0 3.5 
" style="stroke: #000000; stroke-width: 0.8"/>
      </defs>
      <g>
       <use xlink:href="#med13b9432c" x="71.532028" y="228.96" style="stroke: #000000; stroke-width: 0.8"/>
      </g>
     </g>
     <g id="text_1">
      <!-- 10 -->
      <g transform="translate(65.169528 243.558438) scale(0.1 -0.1)">
       <defs>
        <path id="DejaVuSans-31" d="M 794 531 
L 1825 531 
L 1825 4091 
L 703 3866 
L 703 4441 
L 1819 4666 
L 2450 4666 
L 2450 531 
L 3481 531 
L 3481 0 
L 794 0 
L 794 531 
z
" transform="scale(0.015625)"/>
        <path id="DejaVuSans-30" d="M 2034 4250 
Q 1547 4250 1301 3770 
Q 1056 3291 1056 2328 
Q 1056 1369 1301 889 
Q 1547 409 2034 409 
Q 2525 409 2770 889 
Q 3016 1369 3016 2328 
Q 3016 3291 2770 3770 
Q 2525 4250 2034 4250 
z
M 2034 4750 
Q 2819 4750 3233 4129 
Q 3647 3509 3647 2328 
Q 3647 1150 3233 529 
Q 2819 -91 2034 -91 
Q 1250 -91 836 529 
Q 422 1150 422 2328 
Q 422 3509 836 4129 
Q 1250 4750 2034 4750 
z
" transform="scale(0.015625)"/>
       </defs>
       <use xlink:href="#DejaVuSans-31"/>
       <use xlink:href="#DejaVuSans-30" transform="translate(63.623047 0)"/>
      </g>
     </g>
    </g>
    <g id="xtick_2">
     <g id="line2d_3">
      <path d="M 122.524163 228.96 
L 122.524163 7.2 
" clip-path="url(#p9303e2bf03)" style="fill: none; stroke: #b0b0b0; stroke-opacity: 0.3; stroke-width: 0.8; stroke-linecap: square"/>
     </g>
     <g id="line2d_4">
      <g>
       <use xlink:href="#med13b9432c" x="122.524163" y="228.96" style="stroke: #000000; stroke-width: 0.8"/>
      </g>
     </g>
     <g id="text_2">
      <!-- 20 -->
      <g transform="translate(116.161663 243.558438) scale(0.1 -0.1)">
       <defs>
        <path id="DejaVuSans-32" d="M 1228 531 
L 3431 531 
L 3431 0 
L 469 0 
L 469 531 
Q 828 903 1448 1529 
Q 2069 2156 2228 2338 
Q 2531 2678 2651 2914 
Q 2772 3150 2772 3378 
Q 2772 3750 2511 3984 
Q 2250 4219 1831 4219 
Q 1534 4219 1204 4116 
Q 875 4013 500 3803 
L 500 4441 
Q 881 4594 1212 4672 
Q 1544 4750 1819 4750 
Q 2544 4750 2975 4387 
Q 3406 4025 3406 3419 
Q 3406 3131 3298 2873 
Q 3191 2616 2906 2266 
Q 2828 2175 2409 1742 
Q 1991 1309 1228 531 
z
" transform="scale(0.015625)"/>
       </defs>
       <use xlink:href="#DejaVuSans-32"/>
       <use xlink:href="#DejaVuSans-30" transform="translate(63.623047 0)"/>
      </g>
     </g>
    </g>
    <g id="xtick_3">
     <g id="line2d_5">
      <path d="M 173.516298 228.96 
L 173.516298 7.2 
" clip-path="url(#p9303e2bf03)" style="fill: none; stroke: #b0b0b0; stroke-opacity: 0.3; stroke-width: 0.8; stroke-linecap: square"/>
     </g>
     <g id="line2d_6">
      <g>
       <use xlink:href="#med13b9432c" x="173.516298" y="228.96" style="stroke: #000000; stroke-width: 0.8"/>
      </g>
     </g>
     <g id="text_3">
      <!-- 30 -->
      <g transform="translate(167.153798 243.558438) scale(0.1 -0.1)">
       <defs>
        <path id="DejaVuSans-33" d="M 2597 2516 
Q 3050 2419 3304 2112 
Q 3559 1806 3559 1356 
Q 3559 666 3084 287 
Q 2609 -91 1734 -91 
Q 1441 -91 1130 -33 
Q 819 25 488 141 
L 488 750 
Q 750 597 1062 519 
Q 1375 441 1716 441 
Q 2309 441 2620 675 
Q 2931 909 2931 1356 
Q 2931 1769 2642 2001 
Q 2353 2234 1838 2234 
L 1294 2234 
L 1294 2753 
L 1863 2753 
Q 2328 2753 2575 2939 
Q 2822 3125 2822 3475 
Q 2822 3834 2567 4026 
Q 2313 4219 1838 4219 
Q 1578 4219 1281 4162 
Q 984 4106 628 3988 
L 628 4550 
Q 988 4650 1302 4700 
Q 1616 4750 1894 4750 
Q 2613 4750 3031 4423 
Q 3450 4097 3450 3541 
Q 3450 3153 3228 2886 
Q 3006 2619 2597 2516 
z
" transform="scale(0.015625)"/>
       </defs>
       <use xlink:href="#DejaVuSans-33"/>
       <use xlink:href="#DejaVuSans-30" transform="translate(63.623047 0)"/>
      </g>
     </g>
    </g>
    <g id="xtick_4">
     <g id="line2d_7">
      <path d="M 224.508432 228.96 
L 224.508432 7.2 
" clip-path="url(#p9303e2bf03)" style="fill: none; stroke: #b0b0b0; stroke-opacity: 0.3; stroke-width: 0.8; stroke-linecap: square"/>
     </g>
     <g id="line2d_8">
      <g>
       <use xlink:href="#med13b9432c" x="224.508432" y="228.96" style="stroke: #000000; stroke-width: 0.8"/>
      </g>
     </g>
     <g id="text_4">
      <!-- 40 -->
      <g transform="translate(218.145932 243.558438) scale(0.1 -0.1)">
       <defs>
        <path id="DejaVuSans-34" d="M 2419 4116 
L 825 1625 
L 2419 1625 
L 2419 4116 
z
M 2253 4666 
L 3047 4666 
L 3047 1625 
L 3713 1625 
L 3713 1100 
L 3047 1100 
L 3047 0 
L 2419 0 
L 2419 1100 
L 313 1100 
L 313 1709 
L 2253 4666 
z
" transform="scale(0.015625)"/>
       </defs>
       <use xlink:href="#DejaVuSans-34"/>
       <use xlink:href="#DejaVuSans-30" transform="translate(63.623047 0)"/>
      </g>
     </g>
    </g>
    <g id="xtick_5">
     <g id="line2d_9">
      <path d="M 275.500567 228.96 
L 275.500567 7.2 
" clip-path="url(#p9303e2bf03)" style="fill: none; stroke: #b0b0b0; stroke-opacity: 0.3; stroke-width: 0.8; stroke-linecap: square"/>
     </g>
     <g id="line2d_10">
      <g>
       <use xlink:href="#med13b9432c" x="275.500567" y="228.96" style="stroke: #000000; stroke-width: 0.8"/>
      </g>
     </g>
     <g id="text_5">
      <!-- 50 -->
      <g transform="translate(269.138067 243.558438) scale(0.1 -0.1)">
       <defs>
        <path id="DejaVuSans-35" d="M 691 4666 
L 3169 4666 
L 3169 4134 
L 1269 4134 
L 1269 2991 
Q 1406 3038 1543 3061 
Q 1681 3084 1819 3084 
Q 2600 3084 3056 2656 
Q 3513 2228 3513 1497 
Q 3513 744 3044 326 
Q 2575 -91 1722 -91 
Q 1428 -91 1123 -41 
Q 819 9 494 109 
L 494 744 
Q 775 591 1075 516 
Q 1375 441 1709 441 
Q 2250 441 2565 725 
Q 2881 1009 2881 1497 
Q 2881 1984 2565 2268 
Q 2250 2553 1709 2553 
Q 1456 2553 1204 2497 
Q 953 2441 691 2322 
L 691 4666 
z
" transform="scale(0.015625)"/>
       </defs>
       <use xlink:href="#DejaVuSans-35"/>
       <use xlink:href="#DejaVuSans-30" transform="translate(63.623047 0)"/>
      </g>
     </g>
    </g>
    <g id="xtick_6">
     <g id="line2d_11">
      <path d="M 326.492702 228.96 
L 326.492702 7.2 
" clip-path="url(#p9303e2bf03)" style="fill: none; stroke: #b0b0b0; stroke-opacity: 0.3; stroke-width: 0.8; stroke-linecap: square"/>
     </g>
     <g id="line2d_12">
      <g>
       <use xlink:href="#med13b9432c" x="326.492702" y="228.96" style="stroke: #000000; stroke-width: 0.8"/>
      </g>
     </g>
     <g id="text_6">
      <!-- 60 -->
      <g transform="translate(320.130202 243.558438) scale(0.1 -0.1)">
       <defs>
        <path id="DejaVuSans-36" d="M 2113 2584 
Q 1688 2584 1439 2293 
Q 1191 2003 1191 1497 
Q 1191 994 1439 701 
Q 1688 409 2113 409 
Q 2538 409 2786 701 
Q 3034 994 3034 1497 
Q 3034 2003 2786 2293 
Q 2538 2584 2113 2584 
z
M 3366 4563 
L 3366 3988 
Q 3128 4100 2886 4159 
Q 2644 4219 2406 4219 
Q 1781 4219 1451 3797 
Q 1122 3375 1075 2522 
Q 1259 2794 1537 2939 
Q 1816 3084 2150 3084 
Q 2853 3084 3261 2657 
Q 3669 2231 3669 1497 
Q 3669 778 3244 343 
Q 2819 -91 2113 -91 
Q 1303 -91 875 529 
Q 447 1150 447 2328 
Q 447 3434 972 4092 
Q 1497 4750 2381 4750 
Q 2619 4750 2861 4703 
Q 3103 4656 3366 4563 
z
" transform="scale(0.015625)"/>
       </defs>
       <use xlink:href="#DejaVuSans-36"/>
       <use xlink:href="#DejaVuSans-30" transform="translate(63.623047 0)"/>
      </g>
     </g>
    </g>
    <g id="xtick_7">
     <g id="line2d_13">
      <path d="M 377.484837 228.96 
L 377.484837 7.2 
" clip-path="url(#p9303e2bf03)" style="fill: none; stroke: #b0b0b0; stroke-opacity: 0.3; stroke-width: 0.8; stroke-linecap: square"/>
     </g>
     <g id="line2d_14">
      <g>
       <use xlink:href="#med13b9432c" x="377.484837" y="228.96" style="stroke: #000000; stroke-width: 0.8"/>
      </g>
     </g>
     <g id="text_7">
      <!-- 70 -->
      <g transform="translate(371.122337 243.558438) scale(0.1 -0.1)">
       <defs>
        <path id="DejaVuSans-37" d="M 525 4666 
L 3525 4666 
L 3525 4397 
L 1831 0 
L 1172 0 
L 2766 4134 
L 525 4134 
L 525 4666 
z
" transform="scale(0.015625)"/>
       </defs>
       <use xlink:href="#DejaVuSans-37"/>
       <use xlink:href="#DejaVuSans-30" transform="translate(63.623047 0)"/>
      </g>
     </g>
    </g>
    <g id="xtick_8">
     <g id="line2d_15">
      <path d="M 428.476972 228.96 
L 428.476972 7.2 
" clip-path="url(#p9303e2bf03)" style="fill: none; stroke: #b0b0b0; stroke-opacity: 0.3; stroke-width: 0.8; stroke-linecap: square"/>
     </g>
     <g id="line2d_16">
      <g>
       <use xlink:href="#med13b9432c" x="428.476972" y="228.96" style="stroke: #000000; stroke-width: 0.8"/>
      </g>
     </g>
     <g id="text_8">
      <!-- 80 -->
      <g transform="translate(422.114472 243.558438) scale(0.1 -0.1)">
       <defs>
        <path id="DejaVuSans-38" d="M 2034 2216 
Q 1584 2216 1326 1975 
Q 1069 1734 1069 1313 
Q 1069 891 1326 650 
Q 1584 409 2034 409 
Q 2484 409 2743 651 
Q 3003 894 3003 1313 
Q 3003 1734 2745 1975 
Q 2488 2216 2034 2216 
z
M 1403 2484 
Q 997 2584 770 2862 
Q 544 3141 544 3541 
Q 544 4100 942 4425 
Q 1341 4750 2034 4750 
Q 2731 4750 3128 4425 
Q 3525 4100 3525 3541 
Q 3525 3141 3298 2862 
Q 3072 2584 2669 2484 
Q 3125 2378 3379 2068 
Q 3634 1759 3634 1313 
Q 3634 634 3220 271 
Q 2806 -91 2034 -91 
Q 1263 -91 848 271 
Q 434 634 434 1313 
Q 434 1759 690 2068 
Q 947 2378 1403 2484 
z
M 1172 3481 
Q 1172 3119 1398 2916 
Q 1625 2713 2034 2713 
Q 2441 2713 2670 2916 
Q 2900 3119 2900 3481 
Q 2900 3844 2670 4047 
Q 2441 4250 2034 4250 
Q 1625 4250 1398 4047 
Q 1172 3844 1172 3481 
z
" transform="scale(0.015625)"/>
       </defs>
       <use xlink:href="#DejaVuSans-38"/>
       <use xlink:href="#DejaVuSans-30" transform="translate(63.623047 0)"/>
      </g>
     </g>
    </g>
    <g id="xtick_9">
     <g id="line2d_17">
      <path d="M 479.469106 228.96 
L 479.469106 7.2 
" clip-path="url(#p9303e2bf03)" style="fill: none; stroke: #b0b0b0; stroke-opacity: 0.3; stroke-width: 0.8; stroke-linecap: square"/>
     </g>
     <g id="line2d_18">
      <g>
       <use xlink:href="#med13b9432c" x="479.469106" y="228.96" style="stroke: #000000; stroke-width: 0.8"/>
      </g>
     </g>
     <g id="text_9">
      <!-- 90 -->
      <g transform="translate(473.106606 243.558438) scale(0.1 -0.1)">
       <defs>
        <path id="DejaVuSans-39" d="M 703 97 
L 703 672 
Q 941 559 1184 500 
Q 1428 441 1663 441 
Q 2288 441 2617 861 
Q 2947 1281 2994 2138 
Q 2813 1869 2534 1725 
Q 2256 1581 1919 1581 
Q 1219 1581 811 2004 
Q 403 2428 403 3163 
Q 403 3881 828 4315 
Q 1253 4750 1959 4750 
Q 2769 4750 3195 4129 
Q 3622 3509 3622 2328 
Q 3622 1225 3098 567 
Q 2575 -91 1691 -91 
Q 1453 -91 1209 -44 
Q 966 3 703 97 
z
M 1959 2075 
Q 2384 2075 2632 2365 
Q 2881 2656 2881 3163 
Q 2881 3666 2632 3958 
Q 2384 4250 1959 4250 
Q 1534 4250 1286 3958 
Q 1038 3666 1038 3163 
Q 1038 2656 1286 2365 
Q 1534 2075 1959 2075 
z
" transform="scale(0.015625)"/>
       </defs>
       <use xlink:href="#DejaVuSans-39"/>
       <use xlink:href="#DejaVuSans-30" transform="translate(63.623047 0)"/>
      </g>
     </g>
    </g>
    <g id="text_10">
     <!-- Diffraction Angle 2θ (°) -->
     <g transform="translate(218.684375 257.314687) scale(0.1 -0.1)">
      <defs>
       <path id="DejaVuSans-44" d="M 1259 4147 
L 1259 519 
L 2022 519 
Q 2988 519 3436 956 
Q 3884 1394 3884 2338 
Q 3884 3275 3436 3711 
Q 2988 4147 2022 4147 
L 1259 4147 
z
M 628 4666 
L 1925 4666 
Q 3281 4666 3915 4102 
Q 4550 3538 4550 2338 
Q 4550 1131 3912 565 
Q 3275 0 1925 0 
L 628 0 
L 628 4666 
z
" transform="scale(0.015625)"/>
       <path id="DejaVuSans-69" d="M 603 3500 
L 1178 3500 
L 1178 0 
L 603 0 
L 603 3500 
z
M 603 4863 
L 1178 4863 
L 1178 4134 
L 603 4134 
L 603 4863 
z
" transform="scale(0.015625)"/>
       <path id="DejaVuSans-66" d="M 2375 4863 
L 2375 4384 
L 1825 4384 
Q 1516 4384 1395 4259 
Q 1275 4134 1275 3809 
L 1275 3500 
L 2222 3500 
L 2222 3053 
L 1275 3053 
L 1275 0 
L 697 0 
L 697 3053 
L 147 3053 
L 147 3500 
L 697 3500 
L 697 3744 
Q 697 4328 969 4595 
Q 1241 4863 1831 4863 
L 2375 4863 
z
" transform="scale(0.015625)"/>
       <path id="DejaVuSans-72" d="M 2631 2963 
Q 2534 3019 2420 3045 
Q 2306 3072 2169 3072 
Q 1681 3072 1420 2755 
Q 1159 2438 1159 1844 
L 1159 0 
L 581 0 
L 581 3500 
L 1159 3500 
L 1159 2956 
Q 1341 3275 1631 3429 
Q 1922 3584 2338 3584 
Q 2397 3584 2469 3576 
Q 2541 3569 2628 3553 
L 2631 2963 
z
" transform="scale(0.015625)"/>
       <path id="DejaVuSans-61" d="M 2194 1759 
Q 1497 1759 1228 1600 
Q 959 1441 959 1056 
Q 959 750 1161 570 
Q 1363 391 1709 391 
Q 2188 391 2477 730 
Q 2766 1069 2766 1631 
L 2766 1759 
L 2194 1759 
z
M 3341 1997 
L 3341 0 
L 2766 0 
L 2766 531 
Q 2569 213 2275 61 
Q 1981 -91 1556 -91 
Q 1019 -91 701 211 
Q 384 513 384 1019 
Q 384 1609 779 1909 
Q 1175 2209 1959 2209 
L 2766 2209 
L 2766 2266 
Q 2766 2663 2505 2880 
Q 2244 3097 1772 3097 
Q 1472 3097 1187 3025 
Q 903 2953 641 2809 
L 641 3341 
Q 956 3463 1253 3523 
Q 1550 3584 1831 3584 
Q 2591 3584 2966 3190 
Q 3341 2797 3341 1997 
z
" transform="scale(0.015625)"/>
       <path id="DejaVuSans-63" d="M 3122 3366 
L 3122 2828 
Q 2878 2963 2633 3030 
Q 2388 3097 2138 3097 
Q 1578 3097 1268 2742 
Q 959 2388 959 1747 
Q 959 1106 1268 751 
Q 1578 397 2138 397 
Q 2388 397 2633 464 
Q 2878 531 3122 666 
L 3122 134 
Q 2881 22 2623 -34 
Q 2366 -91 2075 -91 
Q 1284 -91 818 406 
Q 353 903 353 1747 
Q 353 2603 823 3093 
Q 1294 3584 2113 3584 
Q 2378 3584 2631 3529 
Q 2884 3475 3122 3366 
z
" transform="scale(0.015625)"/>
       <path id="DejaVuSans-74" d="M 1172 4494 
L 1172 3500 
L 2356 3500 
L 2356 3053 
L 1172 3053 
L 1172 1153 
Q 1172 725 1289 603 
Q 1406 481 1766 481 
L 2356 481 
L 2356 0 
L 1766 0 
Q 1100 0 847 248 
Q 594 497 594 1153 
L 594 3053 
L 172 3053 
L 172 3500 
L 594 3500 
L 594 4494 
L 1172 4494 
z
" transform="scale(0.015625)"/>
       <path id="DejaVuSans-6f" d="M 1959 3097 
Q 1497 3097 1228 2736 
Q 959 2375 959 1747 
Q 959 1119 1226 758 
Q 1494 397 1959 397 
Q 2419 397 2687 759 
Q 2956 1122 2956 1747 
Q 2956 2369 2687 2733 
Q 2419 3097 1959 3097 
z
M 1959 3584 
Q 2709 3584 3137 3096 
Q 3566 2609 3566 1747 
Q 3566 888 3137 398 
Q 2709 -91 1959 -91 
Q 1206 -91 779 398 
Q 353 888 353 1747 
Q 353 2609 779 3096 
Q 1206 3584 1959 3584 
z
" transform="scale(0.015625)"/>
       <path id="DejaVuSans-6e" d="M 3513 2113 
L 3513 0 
L 2938 0 
L 2938 2094 
Q 2938 2591 2744 2837 
Q 2550 3084 2163 3084 
Q 1697 3084 1428 2787 
Q 1159 2491 1159 1978 
L 1159 0 
L 581 0 
L 581 3500 
L 1159 3500 
L 1159 2956 
Q 1366 3272 1645 3428 
Q 1925 3584 2291 3584 
Q 2894 3584 3203 3211 
Q 3513 2838 3513 2113 
z
" transform="scale(0.015625)"/>
       <path id="DejaVuSans-20" transform="scale(0.015625)"/>
       <path id="DejaVuSans-41" d="M 2188 4044 
L 1331 1722 
L 3047 1722 
L 2188 4044 
z
M 1831 4666 
L 2547 4666 
L 4325 0 
L 3669 0 
L 3244 1197 
L 1141 1197 
L 716 0 
L 50 0 
L 1831 4666 
z
" transform="scale(0.015625)"/>
       <path id="DejaVuSans-67" d="M 2906 1791 
Q 2906 2416 2648 2759 
Q 2391 3103 1925 3103 
Q 1463 3103 1205 2759 
Q 947 2416 947 1791 
Q 947 1169 1205 825 
Q 1463 481 1925 481 
Q 2391 481 2648 825 
Q 2906 1169 2906 1791 
z
M 3481 434 
Q 3481 -459 3084 -895 
Q 2688 -1331 1869 -1331 
Q 1566 -1331 1297 -1286 
Q 1028 -1241 775 -1147 
L 775 -588 
Q 1028 -725 1275 -790 
Q 1522 -856 1778 -856 
Q 2344 -856 2625 -561 
Q 2906 -266 2906 331 
L 2906 616 
Q 2728 306 2450 153 
Q 2172 0 1784 0 
Q 1141 0 747 490 
Q 353 981 353 1791 
Q 353 2603 747 3093 
Q 1141 3584 1784 3584 
Q 2172 3584 2450 3431 
Q 2728 3278 2906 2969 
L 2906 3500 
L 3481 3500 
L 3481 434 
z
" transform="scale(0.015625)"/>
       <path id="DejaVuSans-6c" d="M 603 4863 
L 1178 4863 
L 1178 0 
L 603 0 
L 603 4863 
z
" transform="scale(0.015625)"/>
       <path id="DejaVuSans-65" d="M 3597 1894 
L 3597 1613 
L 953 1613 
Q 991 1019 1311 708 
Q 1631 397 2203 397 
Q 2534 397 2845 478 
Q 3156 559 3463 722 
L 3463 178 
Q 3153 47 2828 -22 
Q 2503 -91 2169 -91 
Q 1331 -91 842 396 
Q 353 884 353 1716 
Q 353 2575 817 3079 
Q 1281 3584 2069 3584 
Q 2775 3584 3186 3129 
Q 3597 2675 3597 1894 
z
M 3022 2063 
Q 3016 2534 2758 2815 
Q 2500 3097 2075 3097 
Q 1594 3097 1305 2825 
Q 1016 2553 972 2059 
L 3022 2063 
z
" transform="scale(0.015625)"/>
       <path id="DejaVuSans-3b8" d="M 2953 2219 
L 963 2219 
Q 1009 1284 1225 888 
Q 1494 400 1959 400 
Q 2428 400 2688 891 
Q 2916 1322 2953 2219 
z
M 2944 2750 
Q 2856 3638 2688 3950 
Q 2419 4444 1959 4444 
Q 1481 4444 1228 3956 
Q 1028 3563 969 2750 
L 2944 2750 
z
M 1959 4913 
Q 2709 4913 3138 4250 
Q 3566 3591 3566 2422 
Q 3566 1256 3138 594 
Q 2709 -72 1959 -72 
Q 1206 -72 781 594 
Q 353 1256 353 2422 
Q 353 3591 781 4250 
Q 1206 4913 1959 4913 
z
" transform="scale(0.015625)"/>
       <path id="DejaVuSans-28" d="M 1984 4856 
Q 1566 4138 1362 3434 
Q 1159 2731 1159 2009 
Q 1159 1288 1364 580 
Q 1569 -128 1984 -844 
L 1484 -844 
Q 1016 -109 783 600 
Q 550 1309 550 2009 
Q 550 2706 781 3412 
Q 1013 4119 1484 4856 
L 1984 4856 
z
" transform="scale(0.015625)"/>
       <path id="DejaVuSans-b0" d="M 1600 4347 
Q 1350 4347 1178 4173 
Q 1006 4000 1006 3750 
Q 1006 3503 1178 3333 
Q 1350 3163 1600 3163 
Q 1850 3163 2022 3333 
Q 2194 3503 2194 3750 
Q 2194 3997 2020 4172 
Q 1847 4347 1600 4347 
z
M 1600 4750 
Q 1800 4750 1984 4673 
Q 2169 4597 2303 4453 
Q 2447 4313 2519 4134 
Q 2591 3956 2591 3750 
Q 2591 3338 2302 3052 
Q 2013 2766 1594 2766 
Q 1172 2766 890 3047 
Q 609 3328 609 3750 
Q 609 4169 896 4459 
Q 1184 4750 1600 4750 
z
" transform="scale(0.015625)"/>
       <path id="DejaVuSans-29" d="M 513 4856 
L 1013 4856 
Q 1481 4119 1714 3412 
Q 1947 2706 1947 2009 
Q 1947 1309 1714 600 
Q 1481 -109 1013 -844 
L 513 -844 
Q 928 -128 1133 580 
Q 1338 1288 1338 2009 
Q 1338 2731 1133 3434 
Q 928 4138 513 4856 
z
" transform="scale(0.015625)"/>
      </defs>
      <use xlink:href="#DejaVuSans-44"/>
      <use xlink:href="#DejaVuSans-69" transform="translate(77.001953 0)"/>
      <use xlink:href="#DejaVuSans-66" transform="translate(104.785156 0)"/>
      <use xlink:href="#DejaVuSans-66" transform="translate(139.990234 0)"/>
      <use xlink:href="#DejaVuSans-72" transform="translate(175.195312 0)"/>
      <use xlink:href="#DejaVuSans-61" transform="translate(216.308594 0)"/>
      <use xlink:href="#DejaVuSans-63" transform="translate(277.587891 0)"/>
      <use xlink:href="#DejaVuSans-74" transform="translate(332.568359 0)"/>
      <use xlink:href="#DejaVuSans-69" transform="translate(371.777344 0)"/>
      <use xlink:href="#DejaVuSans-6f" transform="translate(399.560547 0)"/>
      <use xlink:href="#DejaVuSans-6e" transform="translate(460.742188 0)"/>
      <use xlink:href="#DejaVuSans-20" transform="translate(524.121094 0)"/>
      <use xlink:href="#DejaVuSans-41" transform="translate(555.908203 0)"/>
      <use xlink:href="#DejaVuSans-6e" transform="translate(624.316406 0)"/>
      <use xlink:href="#DejaVuSans-67" transform="translate(687.695312 0)"/>
      <use xlink:href="#DejaVuSans-6c" transform="translate(751.171875 0)"/>
      <use xlink:href="#DejaVuSans-65" transform="translate(778.955078 0)"/>
      <use xlink:href="#DejaVuSans-20" transform="translate(840.478516 0)"/>
      <use xlink:href="#DejaVuSans-32" transform="translate(872.265625 0)"/>
      <use xlink:href="#DejaVuSans-3b8" transform="translate(935.888672 0)"/>
      <use xlink:href="#DejaVuSans-20" transform="translate(997.070312 0)"/>
      <use xlink:href="#DejaVuSans-28" transform="translate(1028.857422 0)"/>
      <use xlink:href="#DejaVuSans-b0" transform="translate(1067.871094 0)"/>
      <use xlink:href="#DejaVuSans-29" transform="translate(1117.871094 0)"/>
     </g>
    </g>
   </g>
   <g id="matplotlib.axis_2">
    <g id="ytick_1">
     <g id="line2d_19">
      <path d="M 53.328125 220.525361 
L 499.728125 220.525361 
" clip-path="url(#p9303e2bf03)" style="fill: none; stroke: #b0b0b0; stroke-opacity: 0.3; stroke-width: 0.8; stroke-linecap: square"/>
     </g>
     <g id="line2d_20">
      <defs>
       <path id="me944fccd9e" d="M 0 0 
L -3.5 0 
" style="stroke: #000000; stroke-width: 0.8"/>
      </defs>
      <g>
       <use xlink:href="#me944fccd9e" x="53.328125" y="220.525361" style="stroke: #000000; stroke-width: 0.8"/>
      </g>
     </g>
     <g id="text_11">
      <!-- 0 -->
      <g transform="translate(39.965625 224.32458) scale(0.1 -0.1)">
       <use xlink:href="#DejaVuSans-30"/>
      </g>
     </g>
    </g>
    <g id="ytick_2">
     <g id="line2d_21">
      <path d="M 53.328125 177.226392 
L 499.728125 177.226392 
" clip-path="url(#p9303e2bf03)" style="fill: none; stroke: #b0b0b0; stroke-opacity: 0.3; stroke-width: 0.8; stroke-linecap: square"/>
     </g>
     <g id="line2d_22">
      <g>
       <use xlink:href="#me944fccd9e" x="53.328125" y="177.226392" style="stroke: #000000; stroke-width: 0.8"/>
      </g>
     </g>
     <g id="text_12">
      <!-- 2000 -->
      <g transform="translate(20.878125 181.025611) scale(0.1 -0.1)">
       <use xlink:href="#DejaVuSans-32"/>
       <use xlink:href="#DejaVuSans-30" transform="translate(63.623047 0)"/>
       <use xlink:href="#DejaVuSans-30" transform="translate(127.246094 0)"/>
       <use xlink:href="#DejaVuSans-30" transform="translate(190.869141 0)"/>
      </g>
     </g>
    </g>
    <g id="ytick_3">
     <g id="line2d_23">
      <path d="M 53.328125 133.927423 
L 499.728125 133.927423 
" clip-path="url(#p9303e2bf03)" style="fill: none; stroke: #b0b0b0; stroke-opacity: 0.3; stroke-width: 0.8; stroke-linecap: square"/>
     </g>
     <g id="line2d_24">
      <g>
       <use xlink:href="#me944fccd9e" x="53.328125" y="133.927423" style="stroke: #000000; stroke-width: 0.8"/>
      </g>
     </g>
     <g id="text_13">
      <!-- 4000 -->
      <g transform="translate(20.878125 137.726641) scale(0.1 -0.1)">
       <use xlink:href="#DejaVuSans-34"/>
       <use xlink:href="#DejaVuSans-30" transform="translate(63.623047 0)"/>
       <use xlink:href="#DejaVuSans-30" transform="translate(127.246094 0)"/>
       <use xlink:href="#DejaVuSans-30" transform="translate(190.869141 0)"/>
      </g>
     </g>
    </g>
    <g id="ytick_4">
     <g id="line2d_25">
      <path d="M 53.328125 90.628454 
L 499.728125 90.628454 
" clip-path="url(#p9303e2bf03)" style="fill: none; stroke: #b0b0b0; stroke-opacity: 0.3; stroke-width: 0.8; stroke-linecap: square"/>
     </g>
     <g id="line2d_26">
      <g>
       <use xlink:href="#me944fccd9e" x="53.328125" y="90.628454" style="stroke: #000000; stroke-width: 0.8"/>
      </g>
     </g>
     <g id="text_14">
      <!-- 6000 -->
      <g transform="translate(20.878125 94.427672) scale(0.1 -0.1)">
       <use xlink:href="#DejaVuSans-36"/>
       <use xlink:href="#DejaVuSans-30" transform="translate(63.623047 0)"/>
       <use xlink:href="#DejaVuSans-30" transform="translate(127.246094 0)"/>
       <use xlink:href="#DejaVuSans-30" transform="translate(190.869141 0)"/>
      </g>
     </g>
    </g>
    <g id="ytick_5">
     <g id="line2d_27">
      <path d="M 53.328125 47.329485 
L 499.728125 47.329485 
" clip-path="url(#p9303e2bf03)" style="fill: none; stroke: #b0b0b0; stroke-opacity: 0.3; stroke-width: 0.8; stroke-linecap: square"/>
     </g>
     <g id="line2d_28">
      <g>
       <use xlink:href="#me944fccd9e" x="53.328125" y="47.329485" style="stroke: #000000; stroke-width: 0.8"/>
      </g>
     </g>
     <g id="text_15">
      <!-- 8000 -->
      <g transform="translate(20.878125 51.128703) scale(0.1 -0.1)">
       <use xlink:href="#DejaVuSans-38"/>
       <use xlink:href="#DejaVuSans-30" transform="translate(63.623047 0)"/>
       <use xlink:href="#DejaVuSans-30" transform="translate(127.246094 0)"/>
       <use xlink:href="#DejaVuSans-30" transform="translate(190.869141 0)"/>
      </g>
     </g>
    </g>
    <g id="text_16">
     <!-- Diffraction Intensity (Counts at Detector 1) -->
     <g transform="translate(14.798438 225.340937) rotate(-90) scale(0.1 -0.1)">
      <defs>
       <path id="DejaVuSans-49" d="M 628 4666 
L 1259 4666 
L 1259 0 
L 628 0 
L 628 4666 
z
" transform="scale(0.015625)"/>
       <path id="DejaVuSans-73" d="M 2834 3397 
L 2834 2853 
Q 2591 2978 2328 3040 
Q 2066 3103 1784 3103 
Q 1356 3103 1142 2972 
Q 928 2841 928 2578 
Q 928 2378 1081 2264 
Q 1234 2150 1697 2047 
L 1894 2003 
Q 2506 1872 2764 1633 
Q 3022 1394 3022 966 
Q 3022 478 2636 193 
Q 2250 -91 1575 -91 
Q 1294 -91 989 -36 
Q 684 19 347 128 
L 347 722 
Q 666 556 975 473 
Q 1284 391 1588 391 
Q 1994 391 2212 530 
Q 2431 669 2431 922 
Q 2431 1156 2273 1281 
Q 2116 1406 1581 1522 
L 1381 1569 
Q 847 1681 609 1914 
Q 372 2147 372 2553 
Q 372 3047 722 3315 
Q 1072 3584 1716 3584 
Q 2034 3584 2315 3537 
Q 2597 3491 2834 3397 
z
" transform="scale(0.015625)"/>
       <path id="DejaVuSans-79" d="M 2059 -325 
Q 1816 -950 1584 -1140 
Q 1353 -1331 966 -1331 
L 506 -1331 
L 506 -850 
L 844 -850 
Q 1081 -850 1212 -737 
Q 1344 -625 1503 -206 
L 1606 56 
L 191 3500 
L 800 3500 
L 1894 763 
L 2988 3500 
L 3597 3500 
L 2059 -325 
z
" transform="scale(0.015625)"/>
       <path id="DejaVuSans-43" d="M 4122 4306 
L 4122 3641 
Q 3803 3938 3442 4084 
Q 3081 4231 2675 4231 
Q 1875 4231 1450 3742 
Q 1025 3253 1025 2328 
Q 1025 1406 1450 917 
Q 1875 428 2675 428 
Q 3081 428 3442 575 
Q 3803 722 4122 1019 
L 4122 359 
Q 3791 134 3420 21 
Q 3050 -91 2638 -91 
Q 1578 -91 968 557 
Q 359 1206 359 2328 
Q 359 3453 968 4101 
Q 1578 4750 2638 4750 
Q 3056 4750 3426 4639 
Q 3797 4528 4122 4306 
z
" transform="scale(0.015625)"/>
       <path id="DejaVuSans-75" d="M 544 1381 
L 544 3500 
L 1119 3500 
L 1119 1403 
Q 1119 906 1312 657 
Q 1506 409 1894 409 
Q 2359 409 2629 706 
Q 2900 1003 2900 1516 
L 2900 3500 
L 3475 3500 
L 3475 0 
L 2900 0 
L 2900 538 
Q 2691 219 2414 64 
Q 2138 -91 1772 -91 
Q 1169 -91 856 284 
Q 544 659 544 1381 
z
M 1991 3584 
L 1991 3584 
z
" transform="scale(0.015625)"/>
      </defs>
      <use xlink:href="#DejaVuSans-44"/>
      <use xlink:href="#DejaVuSans-69" transform="translate(77.001953 0)"/>
      <use xlink:href="#DejaVuSans-66" transform="translate(104.785156 0)"/>
      <use xlink:href="#DejaVuSans-66" transform="translate(139.990234 0)"/>
      <use xlink:href="#DejaVuSans-72" transform="translate(175.195312 0)"/>
      <use xlink:href="#DejaVuSans-61" transform="translate(216.308594 0)"/>
      <use xlink:href="#DejaVuSans-63" transform="translate(277.587891 0)"/>
      <use xlink:href="#DejaVuSans-74" transform="translate(332.568359 0)"/>
      <use xlink:href="#DejaVuSans-69" transform="translate(371.777344 0)"/>
      <use xlink:href="#DejaVuSans-6f" transform="translate(399.560547 0)"/>
      <use xlink:href="#DejaVuSans-6e" transform="translate(460.742188 0)"/>
      <use xlink:href="#DejaVuSans-20" transform="translate(524.121094 0)"/>
      <use xlink:href="#DejaVuSans-49" transform="translate(555.908203 0)"/>
      <use xlink:href="#DejaVuSans-6e" transform="translate(585.400391 0)"/>
      <use xlink:href="#DejaVuSans-74" transform="translate(648.779297 0)"/>
      <use xlink:href="#DejaVuSans-65" transform="translate(687.988281 0)"/>
      <use xlink:href="#DejaVuSans-6e" transform="translate(749.511719 0)"/>
      <use xlink:href="#DejaVuSans-73" transform="translate(812.890625 0)"/>
      <use xlink:href="#DejaVuSans-69" transform="translate(864.990234 0)"/>
      <use xlink:href="#DejaVuSans-74" transform="translate(892.773438 0)"/>
      <use xlink:href="#DejaVuSans-79" transform="translate(931.982422 0)"/>
      <use xlink:href="#DejaVuSans-20" transform="translate(991.162109 0)"/>
      <use xlink:href="#DejaVuSans-28" transform="translate(1022.949219 0)"/>
      <use xlink:href="#DejaVuSans-43" transform="translate(1061.962891 0)"/>
      <use xlink:href="#DejaVuSans-6f" transform="translate(1131.787109 0)"/>
      <use xlink:href="#DejaVuSans-75" transform="translate(1192.96875 0)"/>
      <use xlink:href="#DejaVuSans-6e" transform="translate(1256.347656 0)"/>
      <use xlink:href="#DejaVuSans-74" transform="translate(1319.726562 0)"/>
      <use xlink:href="#DejaVuSans-73" transform="translate(1358.935547 0)"/>
      <use xlink:href="#DejaVuSans-20" transform="translate(1411.035156 0)"/>
      <use xlink:href="#DejaVuSans-61" transform="translate(1442.822266 0)"/>
      <use xlink:href="#DejaVuSans-74" transform="translate(1504.101562 0)"/>
      <use xlink:href="#DejaVuSans-20" transform="translate(1543.310547 0)"/>
      <use xlink:href="#DejaVuSans-44" transform="translate(1575.097656 0)"/>
      <use xlink:href="#DejaVuSans-65" transform="translate(1652.099609 0)"/>
      <use xlink:href="#DejaVuSans-74" transform="translate(1713.623047 0)"/>
      <use xlink:href="#DejaVuSans-65" transform="translate(1752.832031 0)"/>
      <use xlink:href="#DejaVuSans-63" transform="translate(1814.355469 0)"/>
      <use xlink:href="#DejaVuSans-74" transform="translate(1869.335938 0)"/>
      <use xlink:href="#DejaVuSans-6f" transform="translate(1908.544922 0)"/>
      <use xlink:href="#DejaVuSans-72" transform="translate(1969.726562 0)"/>
      <use xlink:href="#DejaVuSans-20" transform="translate(2010.839844 0)"/>
      <use xlink:href="#DejaVuSans-31" transform="translate(2042.626953 0)"/>
      <use xlink:href="#DejaVuSans-29" transform="translate(2106.25 0)"/>
     </g>
    </g>
   </g>
   <g id="line2d_29">
    <path d="M 76.631241 196.494433 
L 76.735592 195.087216 
L 76.944292 184.197526 
L 77.048643 184.327423 
L 77.570394 139.837732 
L 77.987795 26.567629 
L 78.092146 45.186186 
L 78.405197 197.317113 
L 78.613897 206.236701 
L 73.619034 206.951134 
L 73.827735 207.665567 
L 74.140786 211.086186 
L 74.245136 211.432577 
L 74.349486 211.129485 
L 74.453837 210.025361 
L 74.558187 210.393402 
L 75.079938 207.210928 
L 75.184289 205.175876 
L 75.288639 205.370722 
L 75.70604 200.326392 
L 76.227792 178.287216 
L 76.332142 181.426392 
L 76.645193 210.91299 
L 76.853894 213.40268 
L 77.062594 213.316082 
L 77.271295 214.376907 
L 77.375645 214.095464 
L 77.479995 214.615052 
L 77.584346 213.943918 
L 77.688696 215.199588 
L 77.793046 214.809897 
L 77.897397 215.481031 
L 78.106097 214.831546 
L 78.314798 214.831546 
L 78.523493 215.242887 
L 78.627844 215.827423 
L 78.836544 215.242887 
L 78.940895 215.416082 
L 79.045245 214.766598 
L 79.149595 215.221237 
L 79.253945 214.485155 
L 79.358296 215.329485 
L 79.462646 215.286186 
L 79.775697 215.632577 
L 79.880047 215.719175 
L 80.088748 215.394433 
L 80.193098 216.195464 
L 80.297448 215.221237 
L 80.401799 215.978969 
L 80.610499 215.221237 
L 80.71485 215.93567 
L 80.8192 215.50268 
L 81.132251 215.978969 
L 81.236601 215.242887 
L 81.549652 215.95732 
L 81.654002 216.173814 
L 81.758353 215.264536 
L 81.967053 215.870722 
L 82.071404 215.697526 
L 82.175754 215.784124 
L 82.280104 216.303711 
L 82.384455 215.069691 
L 82.488805 216.455258 
L 82.593155 215.329485 
L 82.801856 216.087216 
L 82.906206 215.437732 
L 83.114907 216.130515 
L 83.219257 215.372784 
L 83.427958 216.303711 
L 83.532308 215.567629 
L 83.741009 216.065567 
L 83.845359 216.108866 
L 84.054059 215.307835 
L 84.15841 215.892371 
L 84.26276 215.697526 
L 84.36711 216.000619 
L 84.471461 215.93567 
L 84.680161 215.242887 
L 84.784512 215.914021 
L 84.993212 215.221237 
L 85.306263 215.93567 
L 85.514964 214.723299 
L 85.828015 215.632577 
L 86.036715 215.892371 
L 86.245416 214.593402 
L 86.349766 215.156289 
L 86.454116 215.069691 
L 86.558467 215.307835 
L 86.767167 213.814021 
L 86.975868 212.818144 
L 87.080218 212.904742 
L 87.184569 212.709897 
L 87.49762 210.025361 
L 87.60197 207.817113 
L 87.81067 197.490309 
L 87.915021 197.165567 
L 88.332422 213.727423 
L 88.541123 215.156289 
L 88.645473 215.026392 
L 88.749823 215.740825 
L 88.854173 215.026392 
L 88.958524 216.152165 
L 89.062874 215.372784 
L 89.167224 215.437732 
L 89.271575 215.675876 
L 89.375925 215.545979 
L 89.480275 216.455258 
L 89.688976 216.043918 
L 89.897677 216.282062 
L 90.002027 216.217113 
L 90.106377 216.671753 
L 90.315078 215.654227 
L 90.419428 216.130515 
L 90.523778 215.784124 
L 90.628129 216.411959 
L 90.732479 215.50268 
L 90.836829 215.675876 
L 90.94118 216.173814 
L 91.04553 215.351134 
L 91.14988 216.282062 
L 91.358581 215.827423 
L 91.462931 215.870722 
L 91.567281 215.567629 
L 91.671632 215.914021 
L 91.775982 215.52433 
L 91.880332 215.762474 
L 91.984683 216.282062 
L 92.193383 215.329485 
L 92.297728 215.589278 
L 92.402079 215.978969 
L 92.506429 215.849072 
L 92.610779 215.437732 
L 92.71513 216.303711 
L 92.81948 215.567629 
L 92.92383 216.087216 
L 93.132531 215.026392 
L 93.236881 214.918144 
L 93.549932 214.030515 
L 93.654282 214.008866 
L 93.862983 212.796495 
L 94.071684 206.236701 
L 94.176034 207.297526 
L 94.384735 205.370722 
L 94.593435 207.297526 
L 94.697785 206.085155 
L 94.906486 201.387216 
L 95.010836 202.361443 
L 95.323887 214.463505 
L 95.741288 216.108866 
L 95.845639 215.610928 
L 96.054339 215.762474 
L 96.15869 215.307835 
L 96.26304 215.870722 
L 96.993492 214.983093 
L 97.097842 215.026392 
L 97.202193 214.095464 
L 97.306543 214.26866 
L 97.410893 214.225361 
L 97.723944 215.914021 
L 97.828295 216.022268 
L 97.932645 215.827423 
L 98.036995 216.606804 
L 98.245696 216.108866 
L 98.350046 215.95732 
L 98.558747 216.36866 
L 98.663097 215.892371 
L 98.767447 216.130515 
L 98.871798 215.93567 
L 98.976148 216.36866 
L 99.080498 215.654227 
L 99.184849 216.541856 
L 99.393549 216.195464 
L 99.7066 215.719175 
L 99.81095 215.654227 
L 99.915301 214.939794 
L 100.124001 215.849072 
L 100.332702 215.351134 
L 100.437052 215.545979 
L 100.541402 215.784124 
L 100.645753 215.740825 
L 100.854453 215.156289 
L 101.167504 215.610928 
L 101.271855 214.550103 
L 101.480555 214.766598 
L 101.584906 214.463505 
L 101.689256 215.048041 
L 101.897956 213.142887 
L 102.419708 209.419175 
L 102.732759 199.915052 
L 102.941459 191.861443 
L 103.567561 163.695464 
L 103.880612 153.065567 
L 104.089313 160.166598 
L 104.402364 192.900619 
L 104.506714 194.697526 
L 104.819765 187.921237 
L 105.132816 161.74701 
L 105.237166 161.811959 
L 105.341517 164.344948 
L 105.758918 208.726392 
L 106.071964 212.839794 
L 106.176314 212.125361 
L 106.385014 213.749072 
L 106.593715 215.221237 
L 106.698065 215.156289 
L 106.802416 214.744948 
L 106.906766 216.065567 
L 107.011116 215.675876 
L 107.324167 215.740825 
L 107.532868 215.286186 
L 107.637218 215.459381 
L 107.741568 216.043918 
L 107.845919 215.654227 
L 108.15897 216.390309 
L 108.36767 215.459381 
L 108.472021 216.065567 
L 108.680721 215.654227 
L 108.785071 215.719175 
L 108.889422 216.108866 
L 109.098122 215.697526 
L 109.306823 215.675876 
L 109.411173 215.459381 
L 109.619874 215.870722 
L 109.828575 214.615052 
L 109.932925 215.307835 
L 110.141625 214.398557 
L 110.245976 213.878969 
L 110.350326 214.138763 
L 110.663377 209.419175 
L 111.080778 195.022268 
L 111.185128 197.078969 
L 111.498179 212.276907 
L 111.70688 214.658351 
L 112.019931 215.610928 
L 112.124281 215.50268 
L 112.228632 216.065567 
L 112.332982 215.892371 
L 112.437332 215.93567 
L 112.750383 216.585155 
L 112.854733 216.217113 
L 112.959084 216.36866 
L 113.063434 216.000619 
L 113.167784 216.520206 
L 113.272135 216.195464 
L 113.376485 216.909897 
L 113.585185 216.108866 
L 113.689536 216.282062 
L 113.793886 216.715052 
L 114.002587 216.065567 
L 114.106937 216.195464 
L 114.211287 216.195464 
L 114.315638 216.585155 
L 114.524338 216.173814 
L 114.628689 216.108866 
L 114.733039 216.801649 
L 115.15044 216.303711 
L 115.25479 216.282062 
L 115.359141 216.390309 
L 115.463491 216.065567 
L 115.880892 217.104742 
L 115.985242 216.282062 
L 116.089593 216.606804 
L 116.193943 216.043918 
L 116.715695 216.585155 
L 116.820045 215.892371 
L 116.924395 217.018144 
L 117.028746 216.411959 
L 117.133096 216.541856 
L 117.237446 216.325361 
L 117.341796 216.390309 
L 117.550497 216.195464 
L 117.654847 215.892371 
L 117.759198 216.563505 
L 117.863548 215.740825 
L 118.072249 216.455258 
L 118.280949 216.78 
L 118.385299 215.914021 
L 118.594 216.411959 
L 118.69835 215.459381 
L 118.907051 215.805773 
L 119.115752 215.221237 
L 119.428803 214.160412 
L 119.533153 214.225361 
L 120.15925 206.821237 
L 120.2636 207.340825 
L 120.36795 207.10268 
L 120.576651 211.389278 
L 120.681001 213.229485 
L 120.785351 212.99134 
L 120.889702 214.550103 
L 120.994052 214.311959 
L 121.307103 216.217113 
L 121.411453 215.177938 
L 121.515804 215.784124 
L 121.620154 215.567629 
L 121.828854 215.849072 
L 122.037555 215.654227 
L 122.141905 215.827423 
L 122.246256 216.238763 
L 122.454956 215.762474 
L 122.559307 216.022268 
L 122.663657 215.892371 
L 122.768007 216.087216 
L 122.872357 215.069691 
L 123.081058 215.870722 
L 123.289759 214.853196 
L 123.394109 215.09134 
L 123.498459 215.004742 
L 123.60281 215.242887 
L 123.81151 214.008866 
L 123.915861 213.814021 
L 124.020211 214.030515 
L 124.437612 209.072784 
L 124.646313 204.894433 
L 124.855013 200.629485 
L 125.376765 169.75732 
L 125.481115 168.826392 
L 126.107217 211.389278 
L 126.211567 210.89134 
L 126.524618 213.077938 
L 126.942019 211.151134 
L 127.04637 209.765567 
L 127.25507 212.818144 
L 127.359421 212.818144 
L 127.463771 215.026392 
L 127.672472 214.550103 
L 127.881172 215.242887 
L 127.985522 215.134639 
L 128.089873 214.593402 
L 128.194223 215.50268 
L 128.298573 215.481031 
L 128.402924 215.394433 
L 128.507274 215.784124 
L 128.611624 215.740825 
L 128.715975 215.416082 
L 128.924675 215.740825 
L 129.029025 215.50268 
L 129.133376 215.589278 
L 129.342076 214.896495 
L 129.446427 215.849072 
L 129.550777 214.615052 
L 129.759478 215.437732 
L 129.863828 215.978969 
L 130.072529 214.939794 
L 130.176879 215.242887 
L 130.281229 214.333608 
L 130.385579 214.918144 
L 130.69863 213.510928 
L 130.802981 213.727423 
L 130.907331 211.908866 
L 131.011681 212.038763 
L 131.533433 200.629485 
L 131.846484 203.638763 
L 131.950834 203.833608 
L 132.159535 200.80268 
L 132.263885 199.222268 
L 132.472586 202.534639 
L 132.681286 200.39134 
L 132.785636 202.686186 
L 132.889987 201.993402 
L 133.098687 207.016082 
L 133.411738 209.332577 
L 133.724784 207.514021 
L 133.829134 207.990309 
L 133.933485 207.773814 
L 134.037835 208.250103 
L 134.142185 207.55732 
L 134.663937 213.900619 
L 134.768287 213.229485 
L 134.872637 213.900619 
L 134.976988 212.450103 
L 135.185688 213.792371 
L 135.290039 213.532577 
L 135.394389 212.904742 
L 135.60309 213.619175 
L 135.81179 212.99134 
L 135.91614 213.597526 
L 136.229191 213.251134 
L 136.333542 214.030515 
L 136.437892 213.684124 
L 136.542242 212.904742 
L 136.646593 213.445979 
L 136.855293 212.796495 
L 136.959644 213.575876 
L 137.063994 212.320206 
L 137.168344 212.558351 
L 137.272694 212.16866 
L 137.690096 207.037732 
L 137.794446 207.773814 
L 138.003147 204.418144 
L 138.420548 191.731546 
L 138.629248 177.486186 
L 138.837949 154.104742 
L 139.151 72.984124 
L 139.359701 17.28 
L 139.464051 18.730515 
L 139.985802 92.425361 
L 140.507554 187.358351 
L 140.716254 201.885155 
L 141.029305 207.838763 
L 141.133656 208.466598 
L 141.446707 211.930515 
L 141.655407 212.515052 
L 141.759758 212.14701 
L 142.072808 213.077938 
L 142.177159 213.684124 
L 142.281509 213.662474 
L 142.49021 212.904742 
L 142.59456 213.532577 
L 142.69891 213.489278 
L 143.011961 212.99134 
L 143.116311 213.532577 
L 143.220662 212.969691 
L 143.325012 213.83567 
L 143.533713 213.532577 
L 143.638063 212.883093 
L 143.742413 213.142887 
L 144.368515 210.609897 
L 144.472865 209.808866 
L 144.577216 209.895464 
L 144.785916 207.55732 
L 144.994617 203.119175 
L 145.098967 201.25732 
L 145.516369 176.273814 
L 145.725069 161.552165 
L 146.455521 210.306804 
L 146.664222 210.826392 
L 146.872922 212.731546 
L 146.977273 211.887216 
L 147.290324 213.85732 
L 147.394674 213.83567 
L 147.499019 214.030515 
L 147.70772 213.099588 
L 147.91642 214.26866 
L 148.125121 213.878969 
L 148.229471 212.818144 
L 148.333822 213.42433 
L 148.855573 211.32433 
L 148.959923 209.960412 
L 149.064274 210.133608 
L 149.272974 206.842887 
L 149.586025 197.078969 
L 150.212127 144.297526 
L 150.316477 145.098557 
L 150.420828 147.306804 
L 150.838229 190.410928 
L 151.15128 203.811959 
L 151.35998 206.063505 
L 151.568681 206.344948 
L 151.986082 210.609897 
L 152.299133 212.926392 
L 152.403484 212.774845 
L 152.507834 213.056289 
L 152.716534 214.073814 
L 152.820885 213.83567 
L 152.925235 213.294433 
L 153.133936 213.749072 
L 153.238286 213.121237 
L 153.342636 213.510928 
L 153.551337 212.796495 
L 153.655687 212.536701 
L 153.968738 210.934639 
L 154.803541 191.125361 
L 155.012241 183.461443 
L 155.116591 184.890309 
L 155.220942 189.415052 
L 155.951394 156.377938 
L 156.786196 207.622268 
L 157.099247 211.107835 
L 157.203598 211.410928 
L 157.412298 213.554227 
L 157.516648 213.381031 
L 157.93405 214.896495 
L 158.14275 213.316082 
L 158.351451 214.160412 
L 158.455801 214.073814 
L 158.560151 214.160412 
L 158.873202 211.843918 
L 158.977553 213.186186 
L 159.499304 202.534639 
L 159.603655 200.586186 
L 159.708005 202.361443 
L 160.021056 209.938763 
L 160.125406 210.501649 
L 160.229756 212.385155 
L 160.438457 211.887216 
L 160.647158 212.904742 
L 161.064559 208.401649 
L 161.273254 210.653196 
L 161.377605 210.783093 
L 161.690656 214.160412 
L 161.795006 214.311959 
L 161.899356 213.554227 
L 162.629808 215.242887 
L 162.734159 214.874845 
L 163.047209 215.978969 
L 163.25591 215.50268 
L 163.36026 215.351134 
L 163.464611 215.805773 
L 163.568961 215.52433 
L 163.882012 215.914021 
L 163.986362 214.939794 
L 164.090713 215.069691 
L 164.195063 215.784124 
L 164.299413 215.134639 
L 164.403763 216.173814 
L 164.508114 215.849072 
L 164.612464 215.11299 
L 164.821165 215.784124 
L 164.925515 215.069691 
L 165.238566 216.043918 
L 165.342916 215.914021 
L 165.447266 215.11299 
L 165.551617 216.043918 
L 165.655967 215.481031 
L 165.760317 215.740825 
L 165.864668 215.52433 
L 166.073368 215.697526 
L 166.177719 216.108866 
L 166.282069 215.156289 
L 166.386419 215.719175 
L 166.49077 215.351134 
L 166.59512 215.740825 
L 166.69947 215.394433 
L 166.80382 215.697526 
L 166.908171 215.372784 
L 167.012521 215.416082 
L 167.221222 215.372784 
L 167.325572 215.914021 
L 167.429922 215.221237 
L 167.534273 215.242887 
L 167.742973 214.809897 
L 167.847323 214.073814 
L 167.951674 215.004742 
L 168.160374 213.878969 
L 168.264725 214.744948 
L 168.369075 213.510928 
L 168.473425 213.922268 
L 168.995177 210.155258 
L 169.203877 206.366598 
L 169.308228 207.55732 
L 169.516928 204.353196 
L 169.93433 196.992371 
L 170.03868 196.516082 
L 170.351731 199.005773 
L 170.456081 201.560412 
L 170.560431 200.542887 
L 170.769132 202.772784 
L 170.873482 201.560412 
L 171.082183 196.797526 
L 171.812635 212.450103 
L 171.916985 212.731546 
L 172.125686 213.554227 
L 172.230036 213.510928 
L 172.334387 214.290309 
L 172.438737 214.008866 
L 172.543087 214.961443 
L 172.647438 213.987216 
L 172.751788 215.177938 
L 172.856138 214.052165 
L 172.960488 214.333608 
L 173.064839 213.705773 
L 173.169189 213.814021 
L 173.37789 212.341856 
L 173.48224 212.969691 
L 173.795291 209.830515 
L 174.317042 201.885155 
L 174.630093 188.484124 
L 174.734444 188.051134 
L 174.838794 184.284124 
L 174.943144 184.803711 
L 175.464891 206.128454 
L 175.673591 210.371753 
L 175.882292 212.515052 
L 175.986642 211.995464 
L 176.090992 213.359381 
L 176.195343 212.731546 
L 176.299693 212.926392 
L 176.404043 212.731546 
L 176.508394 212.839794 
L 176.612744 213.294433 
L 176.717094 213.229485 
L 176.925795 214.506804 
L 177.030145 214.398557 
L 177.134496 214.744948 
L 177.238846 214.138763 
L 177.551897 214.441856 
L 177.656247 213.770722 
L 177.864948 213.922268 
L 178.386699 205.652165 
L 178.69975 196.62433 
L 178.8041 198.29134 
L 178.908451 197.425361 
L 179.743253 213.792371 
L 179.847603 214.311959 
L 179.951954 213.640825 
L 180.160654 214.225361 
L 180.265005 214.701649 
L 180.369355 214.441856 
L 180.578056 215.177938 
L 180.682406 215.004742 
L 180.786756 214.528454 
L 180.891106 215.459381 
L 180.995457 215.177938 
L 181.204157 215.654227 
L 181.308508 215.372784 
L 181.412858 214.528454 
L 181.621559 215.286186 
L 181.725909 214.961443 
L 181.830259 215.567629 
L 181.93461 214.550103 
L 182.03896 214.571753 
L 182.14331 214.766598 
L 182.456361 214.073814 
L 182.560711 214.311959 
L 182.769412 213.943918 
L 182.873762 214.030515 
L 182.978113 212.515052 
L 183.082463 213.294433 
L 183.499864 206.583093 
L 183.917265 195.693402 
L 184.647717 211.475876 
L 184.856418 212.883093 
L 184.960768 212.839794 
L 185.169469 214.571753 
L 185.273819 213.272784 
L 185.48252 213.510928 
L 185.58687 213.316082 
L 185.69122 212.796495 
L 185.899921 213.077938 
L 186.108622 212.536701 
L 186.212972 212.536701 
L 186.630373 208.531546 
L 186.943424 195.78 
L 187.360825 173.459381 
L 187.778227 185.215052 
L 188.82173 212.16866 
L 189.030425 212.969691 
L 189.239126 214.030515 
L 189.343476 213.900619 
L 189.447826 214.658351 
L 189.552177 214.593402 
L 189.656527 214.376907 
L 189.865228 214.939794 
L 190.282629 213.965567 
L 190.491329 214.311959 
L 190.59568 213.445979 
L 190.70003 214.030515 
L 191.117431 209.808866 
L 191.326132 203.487216 
L 191.430482 202.881031 
L 191.534832 200.088247 
L 191.847883 204.526392 
L 191.952234 204.61299 
L 192.265285 208.986186 
L 192.369635 208.704742 
L 192.473985 209.20268 
L 192.682686 206.907835 
L 192.787036 207.622268 
L 192.995737 206.344948 
L 193.100087 207.405773 
L 193.308788 206.388247 
L 193.413138 207.210928 
L 193.726189 211.454227 
L 193.830539 211.800619 
L 194.03924 213.251134 
L 194.14359 213.554227 
L 194.352291 214.766598 
L 194.456641 214.420206 
L 194.665342 215.632577 
L 194.769692 215.481031 
L 194.874042 215.11299 
L 194.978393 215.394433 
L 195.082743 214.983093 
L 195.187093 215.307835 
L 195.291443 214.831546 
L 195.395794 215.134639 
L 195.500144 214.853196 
L 195.604494 215.329485 
L 195.917545 214.766598 
L 196.021896 214.939794 
L 196.126246 215.09134 
L 196.543647 213.575876 
L 196.647997 213.662474 
L 196.961048 210.566598 
L 197.065399 209.873814 
L 197.37845 204.851134 
L 197.4828 205.825361 
L 197.6915 209.484124 
L 198.004551 210.977938 
L 198.213252 212.904742 
L 198.317602 213.142887 
L 198.421953 214.052165 
L 198.526303 213.987216 
L 198.630653 213.705773 
L 198.839354 215.11299 
L 198.943704 214.896495 
L 199.048054 215.134639 
L 199.152405 216.022268 
L 199.256755 215.52433 
L 199.361105 216.065567 
L 199.465456 216.022268 
L 199.569806 216.325361 
L 199.674156 216.087216 
L 199.778507 216.238763 
L 199.987207 215.567629 
L 200.091557 215.849072 
L 200.195908 215.589278 
L 200.300258 216.195464 
L 200.404608 215.52433 
L 200.508959 215.784124 
L 200.613309 215.372784 
L 200.717659 216.043918 
L 200.92636 215.156289 
L 201.03071 215.329485 
L 201.13506 216.000619 
L 201.239411 215.675876 
L 201.448111 215.849072 
L 201.552462 215.394433 
L 201.656812 215.95732 
L 201.761162 215.827423 
L 201.865513 215.459381 
L 201.969863 216.238763 
L 202.282914 215.589278 
L 202.387264 215.849072 
L 202.491614 215.654227 
L 202.595965 216.043918 
L 202.70031 214.788247 
L 202.909011 215.437732 
L 203.222061 214.182062 
L 203.430762 213.186186 
L 203.535112 211.454227 
L 203.639463 212.731546 
L 203.848163 209.549072 
L 204.056864 208.79134 
L 204.474265 206.561443 
L 204.891666 211.172784 
L 204.996017 210.977938 
L 205.204717 213.381031 
L 205.309068 213.619175 
L 205.413418 215.351134 
L 205.517768 215.156289 
L 205.726469 215.567629 
L 205.830819 215.654227 
L 206.03952 215.545979 
L 206.24822 216.000619 
L 206.352571 215.978969 
L 206.456921 216.173814 
L 206.561271 216.043918 
L 206.769972 215.372784 
L 206.874322 216.043918 
L 206.978672 215.740825 
L 207.083023 215.849072 
L 207.187373 215.069691 
L 207.291723 215.740825 
L 207.500424 215.004742 
L 207.709125 214.939794 
L 208.126526 213.359381 
L 208.230876 211.843918 
L 208.335226 212.233608 
L 208.648277 209.072784 
L 208.752628 210.328454 
L 208.856978 208.509897 
L 208.961328 208.79134 
L 209.170029 207.319175 
L 209.274379 208.726392 
L 209.378729 208.250103 
L 209.58743 210.003711 
L 209.69178 209.830515 
L 209.900481 212.948041 
L 210.526583 215.264536 
L 210.630933 215.589278 
L 210.735283 215.307835 
L 210.839634 215.50268 
L 211.152685 214.311959 
L 211.257035 215.156289 
L 211.361385 214.853196 
L 211.465736 214.160412 
L 211.570086 214.333608 
L 211.778786 214.095464 
L 211.883137 214.052165 
L 212.091837 213.467629 
L 212.196188 213.034639 
L 212.300538 213.727423 
L 212.404888 212.948041 
L 212.613589 213.619175 
L 212.717939 212.688247 
L 212.92664 213.40268 
L 213.03099 213.316082 
L 213.13534 214.073814 
L 213.344041 213.640825 
L 213.552742 214.809897 
L 213.657092 214.766598 
L 213.761442 214.68 
L 213.970143 215.004742 
L 214.074493 215.177938 
L 214.178843 215.914021 
L 214.283194 215.697526 
L 214.491894 216.173814 
L 214.596245 215.654227 
L 214.700595 215.740825 
L 215.013646 216.282062 
L 215.117996 215.805773 
L 215.222347 216.238763 
L 215.431047 215.329485 
L 215.639748 215.654227 
L 215.848448 214.766598 
L 215.952799 214.896495 
L 216.057149 215.307835 
L 216.161499 214.831546 
L 216.26585 215.09134 
L 216.474545 214.68 
L 216.578895 215.351134 
L 216.683246 215.026392 
L 216.787596 215.286186 
L 216.891946 216.043918 
L 217.100647 214.853196 
L 217.309348 215.589278 
L 217.413698 214.723299 
L 217.518048 215.221237 
L 217.622398 214.658351 
L 217.726749 215.177938 
L 217.831099 214.615052 
L 218.0398 215.632577 
L 218.14415 215.11299 
L 218.2485 215.52433 
L 218.457201 215.156289 
L 218.770252 216.108866 
L 218.874602 215.762474 
L 219.187653 216.022268 
L 219.292003 215.307835 
L 219.500704 216.108866 
L 219.813755 214.463505 
L 220.126806 215.329485 
L 220.335506 214.723299 
L 220.648557 215.589278 
L 220.752908 215.134639 
L 220.961608 215.654227 
L 221.065958 215.09134 
L 221.274659 215.459381 
L 221.48336 214.073814 
L 221.58771 214.398557 
L 221.69206 212.99134 
L 221.796411 213.099588 
L 222.526863 199.222268 
L 222.839914 204.699588 
L 223.361665 211.627423 
L 223.570366 211.30268 
L 223.779066 210.090309 
L 223.883417 210.133608 
L 224.196468 208.076907 
L 224.300818 207.96866 
L 224.405168 208.315052 
L 224.509519 208.206804 
L 224.613869 208.574845 
L 224.822569 210.48 
L 224.92692 210.48 
L 225.344321 213.987216 
L 225.553022 214.593402 
L 225.657372 215.50268 
L 225.761722 214.744948 
L 225.866072 214.788247 
L 225.970423 215.50268 
L 226.074773 214.961443 
L 226.179123 213.749072 
L 226.387824 214.073814 
L 226.492174 214.355258 
L 226.596525 213.619175 
L 226.700875 213.83567 
L 226.805225 213.575876 
L 226.909576 213.814021 
L 227.013926 213.337732 
L 227.118276 213.510928 
L 227.222626 214.550103 
L 227.326977 213.965567 
L 227.431327 214.766598 
L 227.535677 213.943918 
L 227.640028 214.831546 
L 227.744378 214.809897 
L 227.848728 214.441856 
L 227.953079 215.242887 
L 228.161779 214.052165 
L 228.266129 214.528454 
L 228.47483 214.203711 
L 228.57918 212.709897 
L 228.787881 214.311959 
L 228.996582 213.640825 
L 229.100932 214.420206 
L 229.205282 214.182062 
L 229.309633 214.290309 
L 229.413983 213.42433 
L 229.518333 214.24701 
L 229.622683 213.554227 
L 229.831384 214.420206 
L 230.040085 213.40268 
L 230.248785 214.615052 
L 230.457481 213.034639 
L 230.561831 211.952165 
L 230.666181 213.316082 
L 230.874882 213.164536 
L 230.979232 213.121237 
L 231.083583 214.160412 
L 231.187933 214.095464 
L 231.292283 214.788247 
L 231.396634 214.117113 
L 231.500984 215.221237 
L 231.814035 214.788247 
L 231.918385 215.307835 
L 232.022735 215.048041 
L 232.127086 215.286186 
L 232.231436 214.68 
L 232.335786 214.788247 
L 232.440137 213.943918 
L 232.544487 214.138763 
L 232.648837 213.489278 
L 232.753187 213.705773 
L 232.857538 213.554227 
L 232.961888 213.900619 
L 233.066238 213.099588 
L 233.170589 214.073814 
L 233.274939 213.85732 
L 233.379289 214.225361 
L 233.48364 214.138763 
L 233.58799 214.615052 
L 233.69234 213.792371 
L 233.796691 214.441856 
L 233.901041 213.749072 
L 234.109741 214.983093 
L 234.318442 214.809897 
L 234.422792 214.766598 
L 234.527143 214.182062 
L 234.631493 214.528454 
L 234.840194 212.623299 
L 235.048894 210.523299 
L 235.153245 211.75732 
L 235.257595 214.355258 
L 235.361945 214.290309 
L 235.570646 213.445979 
L 235.674996 213.510928 
L 236.092397 215.697526 
L 236.196748 215.52433 
L 236.301098 214.744948 
L 236.509798 215.09134 
L 236.614149 214.593402 
L 236.718499 215.307835 
L 236.822849 214.225361 
L 236.9272 214.939794 
L 237.03155 214.788247 
L 237.240251 215.351134 
L 237.448951 214.355258 
L 237.553302 215.329485 
L 237.657652 214.983093 
L 237.866352 216.022268 
L 237.970703 215.11299 
L 238.179403 216.022268 
L 238.492454 215.221237 
L 238.596805 215.481031 
L 238.909855 214.615052 
L 239.014206 215.221237 
L 239.118556 213.597526 
L 239.222906 215.069691 
L 239.327257 214.593402 
L 239.431607 214.766598 
L 239.535957 214.24701 
L 239.744658 215.09134 
L 239.849008 214.528454 
L 239.953359 215.11299 
L 240.057709 214.636701 
L 240.162059 214.766598 
L 240.266409 213.684124 
L 240.37076 214.225361 
L 240.47511 214.008866 
L 240.57946 214.290309 
L 240.683811 214.918144 
L 240.996862 214.203711 
L 241.205562 213.943918 
L 241.414263 214.333608 
L 241.518613 214.203711 
L 241.727314 214.68 
L 242.040365 215.545979 
L 242.144715 215.589278 
L 242.353416 216.217113 
L 242.562116 216.433608 
L 242.666466 217.21299 
L 242.770817 216.411959 
L 242.875167 216.693402 
L 242.979517 216.476907 
L 243.188218 216.736701 
L 243.292568 216.390309 
L 243.396919 216.498557 
L 243.501269 216.78 
L 243.605619 216.650103 
L 243.709969 216.909897 
L 243.81432 216.693402 
L 243.91867 216.130515 
L 244.02302 216.628454 
L 244.336066 216.476907 
L 244.544767 216.520206 
L 244.649117 216.823299 
L 244.753467 216.130515 
L 244.857818 216.455258 
L 244.962168 216.282062 
L 245.066518 217.126392 
L 245.170869 216.217113 
L 245.275219 216.650103 
L 245.379569 216.000619 
L 245.48392 216.087216 
L 245.58827 216.325361 
L 246.005671 214.26866 
L 246.110021 214.398557 
L 246.318722 212.017113 
L 246.527423 209.960412 
L 246.736123 210.415052 
L 246.944824 212.276907 
L 247.362225 212.644948 
L 247.570926 214.182062 
L 247.675276 213.554227 
L 247.779626 213.727423 
L 247.988327 214.420206 
L 248.197027 212.883093 
L 248.405728 213.489278 
L 248.718779 214.441856 
L 248.823129 213.597526 
L 249.03183 214.398557 
L 249.13618 214.831546 
L 249.240531 214.463505 
L 249.344881 215.481031 
L 249.449231 215.156289 
L 249.657932 215.329485 
L 249.762282 215.069691 
L 249.866632 216.043918 
L 249.970983 215.719175 
L 250.075333 214.939794 
L 250.179683 215.416082 
L 250.284034 214.766598 
L 250.388384 215.545979 
L 250.492734 215.221237 
L 250.597084 214.441856 
L 250.701435 215.004742 
L 250.805785 214.658351 
L 251.118836 215.307835 
L 251.223186 214.961443 
L 251.327537 215.654227 
L 251.431887 214.463505 
L 251.536237 215.545979 
L 251.640588 215.09134 
L 251.849288 215.740825 
L 251.953638 215.654227 
L 252.057989 216.000619 
L 252.266689 215.632577 
L 252.37104 216.022268 
L 252.47539 215.914021 
L 252.684091 216.195464 
L 252.788441 215.545979 
L 252.892791 216.087216 
L 252.997141 215.849072 
L 253.101492 214.831546 
L 253.205842 215.351134 
L 253.310192 214.788247 
L 253.414543 215.545979 
L 253.623243 214.506804 
L 253.727594 214.420206 
L 253.831944 214.138763 
L 254.040645 212.926392 
L 254.144995 212.623299 
L 254.353695 213.878969 
L 254.458046 213.510928 
L 254.562396 213.770722 
L 254.666746 213.705773 
L 254.771097 213.40268 
L 254.979797 214.896495 
L 255.084148 214.874845 
L 255.188498 214.961443 
L 255.292848 215.892371 
L 255.501549 215.697526 
L 255.605899 215.95732 
L 255.710249 216.671753 
L 255.8146 216.043918 
L 256.0233 216.476907 
L 256.127651 215.892371 
L 256.336351 216.000619 
L 256.545052 215.632577 
L 256.649402 215.805773 
L 256.858103 215.567629 
L 257.066803 216.36866 
L 257.171154 215.481031 
L 257.275504 216.606804 
L 257.379854 215.870722 
L 257.484205 215.892371 
L 257.692905 215.892371 
L 257.901601 216.953196 
L 258.005951 216.758351 
L 258.110301 216.303711 
L 258.319002 216.801649 
L 258.423352 217.559381 
L 258.527703 216.36866 
L 258.632053 216.455258 
L 258.736403 217.061443 
L 259.153804 216.390309 
L 259.466855 217.256289 
L 259.571206 216.433608 
L 259.675556 216.736701 
L 259.779906 216.693402 
L 259.884257 215.93567 
L 259.988607 216.36866 
L 260.092957 216.087216 
L 260.197307 216.650103 
L 260.406008 216.130515 
L 260.510358 216.087216 
L 260.614709 215.52433 
L 260.823409 215.589278 
L 260.92776 214.68 
L 261.03211 215.437732 
L 261.13646 214.138763 
L 261.345161 214.896495 
L 261.449511 214.550103 
L 261.553861 215.654227 
L 261.658212 215.589278 
L 261.762562 215.264536 
L 261.866912 215.52433 
L 262.075613 214.615052 
L 262.179963 215.264536 
L 262.493014 213.943918 
L 262.597364 214.095464 
L 262.701715 213.489278 
L 262.806065 211.908866 
L 262.910415 212.060412 
L 263.014766 211.649072 
L 263.119116 210.653196 
L 263.223466 210.848041 
L 263.432167 208.444948 
L 263.536517 208.683093 
L 263.745218 207.492371 
L 263.849568 207.708866 
L 263.953918 208.748041 
L 264.058269 208.033608 
L 264.162619 208.639794 
L 264.266969 210.06866 
L 264.37132 209.938763 
L 264.47567 211.086186 
L 264.58002 210.631546 
L 264.788721 212.601649 
L 265.101772 213.684124 
L 265.310472 213.749072 
L 265.414823 213.83567 
L 265.519173 215.134639 
L 265.727874 214.918144 
L 265.832224 215.740825 
L 265.936574 215.026392 
L 266.040924 215.199588 
L 266.145275 214.809897 
L 266.249625 215.849072 
L 266.353975 215.50268 
L 266.562676 215.95732 
L 266.771377 215.740825 
L 266.875727 216.390309 
L 267.084428 215.95732 
L 267.188778 216.476907 
L 267.293128 216.152165 
L 267.397478 216.217113 
L 267.606179 216.844948 
L 267.81488 216.476907 
L 267.91923 217.234639 
L 268.02358 216.498557 
L 268.127931 217.19134 
L 268.336631 216.758351 
L 268.545332 216.823299 
L 268.649682 216.563505 
L 268.754032 216.606804 
L 268.858383 216.520206 
L 268.962733 216.065567 
L 269.171434 216.671753 
L 269.380134 216.152165 
L 269.484485 216.520206 
L 269.693185 215.481031 
L 269.797535 216.000619 
L 269.901886 215.545979 
L 270.006236 215.697526 
L 270.110586 215.351134 
L 270.319287 216.065567 
L 270.423637 215.654227 
L 270.632338 216.087216 
L 270.736688 216.065567 
L 270.945389 216.78 
L 271.049739 216.476907 
L 271.154089 216.715052 
L 271.36279 216.108866 
L 271.46714 216.628454 
L 271.675836 215.978969 
L 271.884536 214.311959 
L 272.093237 216.217113 
L 272.197587 215.805773 
L 272.406288 216.260412 
L 272.510638 215.459381 
L 272.614989 215.481031 
L 272.719339 215.286186 
L 272.928039 216.043918 
L 273.03239 215.697526 
L 273.24109 216.585155 
L 273.449791 215.740825 
L 273.554141 216.173814 
L 273.658492 216.043918 
L 273.762842 216.996495 
L 273.971543 216.087216 
L 274.075893 216.195464 
L 274.284593 215.892371 
L 274.388944 215.93567 
L 274.493294 215.675876 
L 274.701995 215.675876 
L 274.806345 214.311959 
L 274.910695 214.506804 
L 275.015046 215.286186 
L 275.328096 213.684124 
L 275.432447 214.095464 
L 275.641147 213.272784 
L 275.745498 213.077938 
L 275.849848 212.363505 
L 276.058549 212.753196 
L 276.162899 212.666598 
L 276.267249 213.01299 
L 276.3716 212.969691 
L 276.47595 212.731546 
L 276.5803 213.164536 
L 276.789001 214.68 
L 276.893351 214.550103 
L 277.206402 215.784124 
L 277.519453 215.762474 
L 277.623803 215.762474 
L 277.728154 215.52433 
L 277.832504 216.087216 
L 278.041204 214.744948 
L 278.145555 215.156289 
L 278.249905 215.307835 
L 278.354255 215.11299 
L 278.458606 215.697526 
L 278.667306 214.333608 
L 278.771657 213.878969 
L 278.876007 213.922268 
L 278.980357 213.684124 
L 279.293408 215.545979 
L 279.397758 215.09134 
L 279.606459 216.173814 
L 279.81516 215.52433 
L 279.91951 215.784124 
L 280.02386 215.416082 
L 280.128211 215.849072 
L 280.232561 215.762474 
L 280.336911 215.026392 
L 280.441261 215.740825 
L 280.545612 215.632577 
L 280.754312 216.043918 
L 280.858663 216.065567 
L 280.963013 215.870722 
L 281.067363 216.390309 
L 281.171714 215.892371 
L 281.276064 216.628454 
L 281.380414 215.805773 
L 281.484764 216.173814 
L 281.589115 216.108866 
L 281.693465 216.238763 
L 281.797815 216.563505 
L 281.902166 216.022268 
L 282.110866 216.628454 
L 282.319567 216.520206 
L 282.528268 216.953196 
L 282.632618 216.931546 
L 282.736968 217.083093 
L 282.945669 216.866598 
L 283.050019 216.909897 
L 283.154369 216.303711 
L 283.25872 216.78 
L 283.36307 216.217113 
L 283.676121 216.931546 
L 283.780471 216.455258 
L 283.884821 216.888247 
L 284.197872 216.455258 
L 284.302223 217.018144 
L 284.406573 216.022268 
L 284.510923 216.195464 
L 284.719624 215.50268 
L 284.928325 216.043918 
L 285.241375 215.567629 
L 285.345726 216.173814 
L 285.450076 216.130515 
L 285.554421 216.022268 
L 285.658772 216.563505 
L 285.763122 216.325361 
L 285.971822 216.844948 
L 286.076173 216.628454 
L 286.180523 217.516082 
L 286.389224 216.931546 
L 286.597924 217.299588 
L 286.702275 216.563505 
L 286.910975 216.953196 
L 287.015326 216.953196 
L 287.119676 216.823299 
L 287.224026 217.234639 
L 287.328376 216.563505 
L 287.432727 216.736701 
L 287.537077 216.541856 
L 287.745778 217.169691 
L 287.850128 216.325361 
L 287.954478 216.34701 
L 288.058829 216.909897 
L 288.163179 216.715052 
L 288.267529 216.866598 
L 288.371879 216.758351 
L 288.47623 216.974845 
L 288.58058 216.455258 
L 288.789281 216.888247 
L 288.893631 216.476907 
L 289.102332 216.844948 
L 289.206682 216.108866 
L 289.311032 216.476907 
L 289.415383 216.043918 
L 289.519733 216.671753 
L 289.832784 215.610928 
L 289.937134 216.130515 
L 290.041484 215.978969 
L 290.145835 215.026392 
L 290.250185 215.416082 
L 290.354535 216.303711 
L 290.458886 215.156289 
L 290.563236 215.892371 
L 290.771936 215.351134 
L 290.876287 215.567629 
L 290.980637 215.437732 
L 291.084987 215.870722 
L 291.189338 215.610928 
L 291.293688 215.675876 
L 291.398038 216.065567 
L 291.502389 215.675876 
L 291.711089 216.087216 
L 291.81544 215.892371 
L 292.02414 216.282062 
L 292.12849 216.065567 
L 292.232841 216.433608 
L 292.337191 216.152165 
L 292.441541 216.931546 
L 292.650242 216.563505 
L 292.754592 216.36866 
L 292.963293 216.736701 
L 293.067643 216.715052 
L 293.171993 217.364536 
L 293.276344 216.303711 
L 293.380694 216.953196 
L 293.485044 216.758351 
L 293.693745 217.277938 
L 293.798095 217.321237 
L 294.111146 217.083093 
L 294.215497 216.996495 
L 294.319847 217.234639 
L 294.528547 217.126392 
L 294.737248 217.451134 
L 294.945949 216.650103 
L 295.154649 217.104742 
L 295.259 216.953196 
L 295.4677 216.953196 
L 295.57205 216.801649 
L 295.676401 216.238763 
L 295.780751 216.736701 
L 296.198152 216.390309 
L 296.302503 216.736701 
L 296.406853 216.260412 
L 296.511203 216.520206 
L 296.719904 216.325361 
L 296.928604 216.173814 
L 297.032955 216.78 
L 297.137305 215.978969 
L 297.241655 216.78 
L 297.346006 216.671753 
L 297.450356 216.823299 
L 297.554706 216.282062 
L 297.659057 216.953196 
L 297.867757 216.36866 
L 297.972108 216.217113 
L 298.076458 216.693402 
L 298.180808 216.563505 
L 298.285158 215.654227 
L 298.389509 215.697526 
L 298.493859 216.541856 
L 298.598209 215.740825 
L 298.91126 216.217113 
L 299.015611 216.715052 
L 299.224311 215.870722 
L 299.328656 215.93567 
L 299.433007 215.675876 
L 299.641707 216.585155 
L 299.746058 216.909897 
L 299.954758 216.520206 
L 300.059109 216.650103 
L 300.163459 217.039794 
L 300.372159 216.563505 
L 300.47651 216.671753 
L 300.58086 217.126392 
L 300.789561 216.541856 
L 300.893911 217.169691 
L 300.998261 216.671753 
L 301.206962 216.974845 
L 301.311312 216.433608 
L 301.415662 216.801649 
L 301.520013 215.95732 
L 301.624363 216.650103 
L 301.728713 216.606804 
L 301.937414 216.173814 
L 302.041764 216.411959 
L 302.250465 215.307835 
L 302.354815 215.004742 
L 302.459166 216.152165 
L 302.563516 215.589278 
L 302.772216 216.152165 
L 302.876567 215.740825 
L 302.980917 216.000619 
L 303.189618 215.697526 
L 303.293968 216.433608 
L 303.502669 216.065567 
L 303.711369 216.909897 
L 303.815719 216.78 
L 303.92007 216.000619 
L 304.12877 216.628454 
L 304.233121 216.909897 
L 304.337471 216.325361 
L 304.441821 217.21299 
L 304.546172 216.130515 
L 304.650522 216.217113 
L 304.754872 216.888247 
L 304.963573 216.715052 
L 305.067923 216.974845 
L 305.172273 216.476907 
L 305.276624 217.083093 
L 305.485324 216.736701 
L 305.589675 217.061443 
L 305.694025 216.953196 
L 305.798375 216.455258 
L 306.007076 217.083093 
L 306.111426 216.650103 
L 306.215776 217.083093 
L 306.320127 217.018144 
L 306.424477 217.234639 
L 306.633178 216.433608 
L 306.841878 216.736701 
L 306.946229 216.108866 
L 307.050579 216.217113 
L 307.25928 216.606804 
L 307.36363 215.95732 
L 307.46798 216.628454 
L 307.781031 215.892371 
L 307.885381 215.93567 
L 307.989732 215.654227 
L 308.198432 216.065567 
L 308.302783 216.087216 
L 308.407133 216.541856 
L 308.824534 216.173814 
L 308.928884 215.675876 
L 309.033235 216.455258 
L 309.241935 215.697526 
L 309.554986 216.844948 
L 309.659337 216.671753 
L 309.763687 216.953196 
L 310.076738 216.065567 
L 310.285438 216.974845 
L 310.389789 217.148041 
L 310.598489 216.801649 
L 310.70284 217.148041 
L 310.80719 216.801649 
L 310.91154 217.169691 
L 311.01589 216.996495 
L 311.433292 217.299588 
L 311.537642 217.234639 
L 311.641992 217.407835 
L 311.746343 216.931546 
L 312.059394 217.407835 
L 312.163744 217.083093 
L 312.268094 217.364536 
L 312.372444 217.321237 
L 312.581145 217.819175 
L 312.789846 216.671753 
L 312.894196 217.342887 
L 312.998546 217.104742 
L 313.102891 217.364536 
L 313.311592 217.148041 
L 313.415942 216.606804 
L 313.728993 217.21299 
L 313.833344 216.411959 
L 313.937694 217.018144 
L 314.146395 216.000619 
L 314.250745 216.34701 
L 314.355095 216.173814 
L 314.563796 216.34701 
L 314.668146 215.221237 
L 314.876847 215.914021 
L 314.981197 215.437732 
L 315.189898 216.087216 
L 315.398598 215.675876 
L 315.607299 215.416082 
L 315.815999 214.853196 
L 315.92035 214.961443 
L 316.0247 214.809897 
L 316.12905 215.740825 
L 316.233401 214.939794 
L 316.337751 215.286186 
L 316.442101 215.156289 
L 316.546452 215.221237 
L 316.650802 215.762474 
L 316.859502 215.52433 
L 317.068203 216.195464 
L 317.172553 215.740825 
L 317.276904 216.801649 
L 317.381254 216.325361 
L 317.589955 216.585155 
L 317.694305 216.693402 
L 317.798655 217.386186 
L 317.903005 217.19134 
L 318.007356 217.494433 
L 318.111706 217.451134 
L 318.216056 217.797526 
L 318.424757 217.234639 
L 318.529107 217.126392 
L 318.842158 217.386186 
L 319.050859 217.061443 
L 319.155209 217.277938 
L 319.36391 216.36866 
L 319.781311 217.429485 
L 319.885661 216.606804 
L 319.990012 216.931546 
L 320.094362 216.411959 
L 320.198712 216.844948 
L 320.303063 216.650103 
L 320.407413 216.758351 
L 320.616113 215.827423 
L 320.720464 216.758351 
L 320.824814 216.715052 
L 320.929164 216.325361 
L 321.033515 216.931546 
L 321.137865 216.433608 
L 321.242215 216.974845 
L 321.346566 216.325361 
L 321.450916 216.715052 
L 321.659616 215.95732 
L 321.763967 216.303711 
L 321.868317 216.195464 
L 321.972667 217.169691 
L 322.181368 216.433608 
L 322.390069 217.148041 
L 322.598769 217.21299 
L 322.70312 216.758351 
L 322.80747 217.061443 
L 323.01617 216.282062 
L 323.120521 216.78 
L 323.329221 216.217113 
L 323.433572 216.671753 
L 323.746623 216.065567 
L 323.850973 216.152165 
L 323.955323 216.758351 
L 324.059673 216.000619 
L 324.268374 216.866598 
L 324.372724 216.78 
L 324.477075 217.039794 
L 324.685775 216.520206 
L 324.790126 217.061443 
L 324.894476 216.520206 
L 324.998826 217.126392 
L 325.103177 217.083093 
L 325.207527 217.581031 
L 325.520578 217.21299 
L 325.624928 217.559381 
L 325.833629 217.169691 
L 326.042329 217.645979 
L 326.14668 217.472784 
L 326.35538 217.429485 
L 326.45973 217.148041 
L 326.668431 217.60268 
L 326.772781 217.364536 
L 326.877132 217.62433 
L 327.085827 217.083093 
L 327.190178 217.451134 
L 327.398878 216.953196 
L 327.503228 217.364536 
L 327.607579 217.19134 
L 327.711929 217.797526 
L 328.02498 217.148041 
L 328.12933 217.667629 
L 328.233681 217.62433 
L 328.338031 217.451134 
L 328.651082 217.732577 
L 328.755432 217.126392 
L 328.859782 217.732577 
L 328.964133 217.148041 
L 329.068483 217.667629 
L 329.172833 217.364536 
L 329.381534 217.927423 
L 329.485884 217.364536 
L 329.694585 217.62433 
L 329.903285 217.256289 
L 330.216336 217.061443 
L 330.425037 217.234639 
L 330.633738 217.451134 
L 330.738088 216.866598 
L 330.842438 217.126392 
L 331.051139 216.152165 
L 331.259839 217.018144 
L 331.36419 216.628454 
L 331.57289 217.104742 
L 331.677241 216.996495 
L 331.885941 216.736701 
L 332.094642 217.256289 
L 332.198992 216.758351 
L 332.303342 217.277938 
L 332.407693 217.256289 
L 332.512043 217.104742 
L 332.616393 216.390309 
L 332.825094 216.563505 
L 332.929444 216.931546 
L 333.033795 216.433608 
L 333.242495 217.386186 
L 333.346845 216.541856 
L 333.451196 216.758351 
L 333.555546 216.325361 
L 333.659896 216.606804 
L 333.764247 216.217113 
L 333.868597 216.520206 
L 333.972947 216.390309 
L 334.181648 216.953196 
L 334.285998 216.758351 
L 334.390349 216.931546 
L 334.599049 216.715052 
L 334.703399 217.21299 
L 334.9121 216.520206 
L 335.01645 216.693402 
L 335.120801 217.083093 
L 335.225151 216.974845 
L 335.329501 217.299588 
L 335.538202 216.78 
L 335.746902 217.342887 
L 335.851253 217.342887 
L 335.955603 217.083093 
L 336.059953 216.520206 
L 336.164304 217.277938 
L 336.373004 216.801649 
L 336.477355 216.844948 
L 336.581705 217.061443 
L 336.686055 216.650103 
L 336.790406 217.19134 
L 336.894756 217.148041 
L 336.999106 216.931546 
L 337.103456 217.364536 
L 337.207807 216.909897 
L 337.312157 217.559381 
L 337.625208 217.083093 
L 337.729558 216.498557 
L 337.833909 217.472784 
L 337.938259 217.039794 
L 338.042609 217.451134 
L 338.14696 217.299588 
L 338.25131 216.844948 
L 338.35566 217.321237 
L 338.46001 217.19134 
L 338.564361 217.494433 
L 338.668711 217.104742 
L 338.773061 217.169691 
L 338.877412 217.494433 
L 338.981762 216.823299 
L 339.086112 217.60268 
L 339.294813 216.866598 
L 339.607864 217.234639 
L 339.816564 217.148041 
L 339.920915 217.169691 
L 340.025265 216.411959 
L 340.129615 217.451134 
L 340.338316 216.844948 
L 340.547017 216.498557 
L 340.651367 217.039794 
L 340.755712 216.736701 
L 340.860062 217.21299 
L 340.964413 217.104742 
L 341.068763 216.715052 
L 341.277464 217.342887 
L 341.381814 216.909897 
L 341.486164 217.169691 
L 341.694865 216.520206 
L 342.112266 217.386186 
L 342.216616 216.953196 
L 342.320967 217.386186 
L 342.425317 216.693402 
L 342.634018 217.21299 
L 342.738368 216.909897 
L 342.947068 217.299588 
L 343.051419 216.671753 
L 343.155769 217.732577 
L 343.36447 216.844948 
L 343.57317 217.472784 
L 343.677521 216.931546 
L 343.781871 216.953196 
L 343.886221 216.823299 
L 344.199272 217.19134 
L 344.303622 216.671753 
L 344.512323 216.974845 
L 344.616673 216.715052 
L 344.721024 217.19134 
L 344.825374 216.801649 
L 344.929724 217.104742 
L 345.034075 216.476907 
L 345.138425 217.148041 
L 345.242775 216.866598 
L 345.347125 217.451134 
L 345.660176 216.931546 
L 345.764527 216.996495 
L 345.973227 217.342887 
L 346.077578 217.537732 
L 346.181928 217.148041 
L 346.286278 217.429485 
L 346.390628 217.386186 
L 346.494979 217.970722 
L 346.599329 217.472784 
L 346.703679 217.537732 
L 346.91238 216.931546 
L 347.225431 217.62433 
L 347.329781 216.498557 
L 347.434132 216.996495 
L 347.538482 216.953196 
L 347.642832 216.563505 
L 347.747182 217.472784 
L 347.851533 217.234639 
L 348.060233 217.732577 
L 348.164584 217.472784 
L 348.268934 217.60268 
L 348.373284 218.078969 
L 348.581985 217.407835 
L 348.686335 217.429485 
L 348.790685 217.104742 
L 348.999386 217.277938 
L 349.103736 217.970722 
L 349.208087 217.407835 
L 349.312437 217.992371 
L 349.521138 217.429485 
L 349.625488 217.472784 
L 349.729838 217.169691 
L 349.834189 217.732577 
L 349.938539 217.516082 
L 350.042889 217.754227 
L 350.147239 217.386186 
L 350.25159 217.429485 
L 350.35594 217.234639 
L 350.46029 217.970722 
L 350.773341 217.018144 
L 351.086392 217.559381 
L 351.190742 218.208866 
L 351.399443 217.342887 
L 351.503793 216.996495 
L 351.712494 217.342887 
L 351.816844 217.277938 
L 352.025545 216.606804 
L 352.234246 216.996495 
L 352.442946 216.411959 
L 352.755997 217.21299 
L 352.860347 217.018144 
L 353.069048 217.256289 
L 353.173398 217.126392 
L 353.277749 217.559381 
L 353.382099 217.494433 
L 353.486449 216.455258 
L 353.590799 217.364536 
L 353.69515 217.018144 
L 353.7995 217.472784 
L 353.90385 217.277938 
L 354.008201 217.559381 
L 354.112551 216.628454 
L 354.321252 217.429485 
L 354.634297 217.581031 
L 354.738648 217.083093 
L 354.842998 217.797526 
L 355.051699 217.321237 
L 355.156049 217.429485 
L 355.260399 217.321237 
L 355.36475 217.537732 
L 355.57345 216.758351 
L 355.6778 216.996495 
L 355.782151 217.710928 
L 355.990851 216.693402 
L 356.095202 217.039794 
L 356.199552 216.606804 
L 356.303902 217.797526 
L 356.408253 217.148041 
L 356.512603 217.169691 
L 356.721304 217.386186 
L 356.825654 217.645979 
L 356.930004 217.277938 
L 357.034354 217.364536 
L 357.138705 216.909897 
L 357.243055 217.039794 
L 357.347405 216.715052 
L 357.451756 216.866598 
L 357.556106 217.494433 
L 357.660456 217.277938 
L 357.764807 217.732577 
L 357.869157 217.516082 
L 357.973507 216.996495 
L 358.077857 217.775876 
L 358.286558 217.299588 
L 358.495259 217.797526 
L 358.599609 217.667629 
L 358.703959 217.559381 
L 358.91266 217.60268 
L 359.121361 216.866598 
L 359.225711 217.559381 
L 359.538762 217.039794 
L 359.851813 217.581031 
L 359.956163 217.62433 
L 360.060513 216.888247 
L 360.164864 217.62433 
L 360.269214 217.559381 
L 360.373564 216.866598 
L 360.477914 217.299588 
L 360.582265 217.018144 
L 360.686615 217.516082 
L 360.790965 217.451134 
L 360.999666 217.537732 
L 361.104016 217.407835 
L 361.208367 217.775876 
L 361.521418 217.277938 
L 361.625768 217.256289 
L 361.834468 217.60268 
L 362.043169 217.364536 
L 362.147519 216.996495 
L 362.25187 217.126392 
L 362.35622 217.732577 
L 362.564921 217.386186 
L 362.669271 217.19134 
L 362.773621 217.364536 
L 362.877972 217.126392 
L 363.086672 217.364536 
L 363.295373 217.516082 
L 363.504073 216.844948 
L 363.712774 217.581031 
L 363.921475 217.60268 
L 364.025825 217.148041 
L 364.130175 217.234639 
L 364.234525 218.122268 
L 364.443226 216.931546 
L 364.651927 217.645979 
L 364.756277 217.60268 
L 365.069328 217.19134 
L 365.173678 217.494433 
L 365.382379 216.909897 
L 365.69543 217.321237 
L 365.79978 217.364536 
L 365.90413 217.840825 
L 366.008481 216.953196 
L 366.112831 217.559381 
L 366.217181 217.256289 
L 366.321532 217.689278 
L 366.425882 217.018144 
L 366.634582 217.429485 
L 366.843283 217.645979 
L 366.947633 217.949072 
L 367.051984 217.342887 
L 367.156334 217.429485 
L 367.260684 216.758351 
L 367.469385 217.710928 
L 367.573735 217.407835 
L 367.678086 217.905773 
L 367.782436 217.537732 
L 367.886786 218.03567 
L 367.991136 217.645979 
L 368.095487 217.992371 
L 368.199837 217.537732 
L 368.408533 217.645979 
L 368.512883 217.169691 
L 368.617233 217.732577 
L 368.825934 217.256289 
L 368.930284 217.60268 
L 369.034634 217.277938 
L 369.243335 217.840825 
L 369.347685 217.775876 
L 369.452036 216.931546 
L 369.556386 217.537732 
L 369.660736 217.21299 
L 369.765087 217.407835 
L 369.869437 216.801649 
L 369.973787 217.277938 
L 370.078137 217.104742 
L 370.182488 217.19134 
L 370.286838 216.563505 
L 370.391188 217.732577 
L 370.495539 216.650103 
L 370.599889 217.60268 
L 370.80859 217.061443 
L 371.01729 217.364536 
L 371.12164 217.234639 
L 371.225991 217.472784 
L 371.330341 217.083093 
L 371.434691 217.169691 
L 371.539042 217.039794 
L 371.747742 217.451134 
L 371.852093 217.169691 
L 372.165144 217.321237 
L 372.373844 216.888247 
L 372.582545 217.581031 
L 372.686895 217.342887 
L 372.791245 217.775876 
L 372.895596 217.039794 
L 372.999946 218.100619 
L 373.417347 217.148041 
L 373.521697 217.321237 
L 373.730398 218.014021 
L 373.834748 217.559381 
L 373.939099 217.775876 
L 374.147799 217.342887 
L 374.25215 218.014021 
L 374.46085 217.559381 
L 374.565201 217.775876 
L 374.773901 217.234639 
L 374.982602 217.775876 
L 375.191302 216.844948 
L 375.295653 217.927423 
L 375.400003 217.126392 
L 375.817404 218.230515 
L 375.921754 217.364536 
L 376.026105 217.689278 
L 376.130455 217.537732 
L 376.234805 217.819175 
L 376.339156 217.645979 
L 376.443506 217.905773 
L 376.547856 217.840825 
L 376.652207 217.386186 
L 376.756557 217.710928 
L 376.860907 217.277938 
L 376.965258 217.386186 
L 377.069608 217.277938 
L 377.173958 217.710928 
L 377.278308 217.494433 
L 377.487009 217.732577 
L 377.69571 217.429485 
L 377.80006 217.60268 
L 378.008761 217.277938 
L 378.113111 217.840825 
L 378.217461 216.844948 
L 378.321811 218.014021 
L 378.426162 217.732577 
L 378.634862 217.884124 
L 378.843563 217.494433 
L 378.947913 217.797526 
L 379.052264 217.429485 
L 379.156614 217.689278 
L 379.260964 217.407835 
L 379.365315 217.667629 
L 379.469665 217.321237 
L 379.678365 217.775876 
L 379.887066 217.104742 
L 380.095767 217.970722 
L 380.200117 217.104742 
L 380.304467 217.559381 
L 380.408818 217.19134 
L 380.513168 217.299588 
L 380.617518 217.862474 
L 380.721869 217.754227 
L 380.930569 217.407835 
L 381.034919 218.03567 
L 381.13927 217.299588 
L 381.34797 217.667629 
L 381.556671 217.494433 
L 381.661021 218.100619 
L 381.869722 217.234639 
L 382.078422 217.927423 
L 382.287118 217.299588 
L 382.495819 217.342887 
L 382.704519 217.884124 
L 382.808869 217.840825 
L 382.91322 217.537732 
L 383.12192 217.992371 
L 383.226271 217.126392 
L 383.434971 218.100619 
L 383.539322 217.299588 
L 383.748022 217.537732 
L 383.852373 217.321237 
L 383.956723 217.840825 
L 384.061073 217.62433 
L 384.165423 217.754227 
L 384.269774 217.126392 
L 384.478474 217.342887 
L 384.582825 217.169691 
L 384.687175 217.710928 
L 384.791525 217.581031 
L 384.895876 217.754227 
L 385.313277 217.364536 
L 385.417627 217.905773 
L 385.521977 217.19134 
L 385.730678 217.884124 
L 385.835028 218.122268 
L 385.939379 217.62433 
L 386.043729 218.078969 
L 386.148079 217.645979 
L 386.25243 218.03567 
L 386.46113 217.516082 
L 386.669831 217.429485 
L 386.878531 217.949072 
L 386.982882 217.472784 
L 387.087232 218.05732 
L 387.400283 217.342887 
L 387.608984 217.819175 
L 387.817684 217.321237 
L 387.922034 217.126392 
L 388.026385 217.60268 
L 388.130735 217.277938 
L 388.235085 217.60268 
L 388.339436 217.429485 
L 388.443786 218.122268 
L 388.548136 217.342887 
L 388.652487 217.364536 
L 388.756837 217.472784 
L 388.861187 217.21299 
L 389.174238 217.537732 
L 389.382939 217.451134 
L 389.591639 217.667629 
L 389.69599 217.494433 
L 389.80034 217.039794 
L 390.009041 217.667629 
L 390.113391 217.689278 
L 390.322091 217.277938 
L 390.530792 217.277938 
L 390.635142 217.732577 
L 390.739493 217.19134 
L 390.948193 217.537732 
L 391.052544 217.321237 
L 391.261244 217.797526 
L 391.469945 217.364536 
L 391.574295 216.996495 
L 391.782996 217.581031 
L 391.991696 216.585155 
L 392.200397 216.888247 
L 392.304747 216.931546 
L 392.513448 217.169691 
L 392.722148 217.083093 
L 392.826499 217.083093 
L 392.930849 217.645979 
L 393.13955 217.169691 
L 393.2439 217.21299 
L 393.34825 216.736701 
L 393.556951 216.974845 
L 393.661301 216.758351 
L 393.870002 217.516082 
L 393.974352 217.104742 
L 394.078702 217.775876 
L 394.183053 217.083093 
L 394.391753 217.299588 
L 394.496104 217.039794 
L 394.600454 217.472784 
L 394.809155 217.234639 
L 395.122205 217.797526 
L 395.226556 217.516082 
L 395.330906 217.689278 
L 395.539607 217.516082 
L 395.643957 217.169691 
L 395.852658 217.645979 
L 395.957003 216.888247 
L 396.061353 217.083093 
L 396.165703 217.884124 
L 396.270054 217.797526 
L 396.374404 217.061443 
L 396.583105 217.645979 
L 396.687455 217.018144 
L 396.791805 217.559381 
L 396.896156 217.083093 
L 397.000506 217.60268 
L 397.104856 216.931546 
L 397.209206 217.797526 
L 397.417907 217.083093 
L 397.626608 217.364536 
L 397.730958 217.407835 
L 397.835308 217.819175 
L 397.939659 217.559381 
L 398.044009 217.775876 
L 398.148359 217.429485 
L 398.252709 218.078969 
L 398.35706 217.645979 
L 398.46141 217.689278 
L 398.670111 217.862474 
L 398.774461 217.386186 
L 398.878811 217.581031 
L 399.087512 217.429485 
L 399.296213 217.927423 
L 399.400563 217.62433 
L 399.609263 217.927423 
L 399.713614 217.775876 
L 399.817964 217.342887 
L 400.026665 217.559381 
L 400.131015 217.884124 
L 400.235365 217.581031 
L 400.339716 218.273814 
L 400.548416 217.451134 
L 400.652766 217.689278 
L 400.861467 217.559381 
L 401.174518 218.338763 
L 401.278868 217.407835 
L 401.383219 217.775876 
L 401.487569 217.451134 
L 401.591919 217.754227 
L 401.69627 217.60268 
L 401.80062 217.667629 
L 401.90497 217.342887 
L 402.00932 217.710928 
L 402.113671 217.407835 
L 402.218021 217.537732 
L 402.322371 217.21299 
L 402.426722 217.927423 
L 402.635422 217.60268 
L 402.739773 217.884124 
L 402.844123 217.537732 
L 402.948473 218.100619 
L 403.052823 217.386186 
L 403.157174 217.949072 
L 403.365874 217.537732 
L 403.470225 218.295464 
L 403.574575 217.299588 
L 403.678925 217.321237 
L 403.991976 217.797526 
L 404.096327 217.21299 
L 404.305027 217.581031 
L 404.409377 217.62433 
L 404.513728 217.927423 
L 404.618078 217.364536 
L 404.931129 217.927423 
L 405.035479 217.797526 
L 405.24418 217.451134 
L 405.557231 218.122268 
L 405.974632 216.953196 
L 406.183333 218.03567 
L 406.287683 217.429485 
L 406.392033 218.100619 
L 406.496384 217.234639 
L 406.600734 217.667629 
L 406.705084 217.342887 
L 406.809434 218.014021 
L 406.913785 217.797526 
L 407.018135 217.905773 
L 407.226836 217.62433 
L 407.331186 217.732577 
L 407.435536 217.472784 
L 407.644237 217.949072 
L 407.852938 217.927423 
L 407.957288 217.775876 
L 408.061638 217.862474 
L 408.165988 217.645979 
L 408.374689 218.014021 
L 408.58339 216.974845 
L 408.68774 217.949072 
L 408.79209 217.559381 
L 408.896441 217.862474 
L 409.105141 217.862474 
L 409.209491 217.386186 
L 409.313842 217.710928 
L 409.522542 217.256289 
L 409.626893 217.905773 
L 409.731238 217.472784 
L 409.939939 217.754227 
L 410.044289 217.710928 
L 410.148639 217.884124 
L 410.252989 217.775876 
L 410.35734 217.126392 
L 410.46169 217.970722 
L 410.56604 217.429485 
L 410.774741 217.840825 
L 410.879091 217.797526 
L 410.983442 217.537732 
L 411.087792 217.819175 
L 411.192142 217.732577 
L 411.296492 218.078969 
L 411.400843 217.083093 
L 411.505193 218.05732 
L 411.609543 217.559381 
L 411.818244 217.797526 
L 412.026945 217.667629 
L 412.131295 217.667629 
L 412.235645 218.165567 
L 412.339996 217.472784 
L 412.548696 217.949072 
L 412.653046 217.299588 
L 412.757397 218.252165 
L 413.070448 217.667629 
L 413.174798 217.797526 
L 413.279148 217.429485 
L 413.383499 217.494433 
L 413.592199 217.905773 
L 413.696549 218.05732 
L 413.90525 217.386186 
L 414.0096 217.321237 
L 414.113951 217.62433 
L 414.218301 217.451134 
L 414.531352 218.05732 
L 414.635702 217.472784 
L 414.740053 217.581031 
L 414.844403 217.321237 
L 415.053103 217.710928 
L 415.261804 217.559381 
L 415.366154 217.862474 
L 415.470505 217.429485 
L 415.574855 217.494433 
L 415.887906 218.230515 
L 416.096606 217.667629 
L 416.200957 218.122268 
L 416.409657 217.754227 
L 416.514008 218.122268 
L 416.722708 217.754227 
L 416.827059 217.862474 
L 416.931409 218.576907 
L 417.14011 217.862474 
L 417.24446 217.819175 
L 417.34881 218.46866 
L 417.45316 217.667629 
L 417.557511 218.187216 
L 417.661861 217.992371 
L 417.766211 218.425361 
L 417.870562 218.014021 
L 417.974912 218.078969 
L 418.079262 217.754227 
L 418.287963 217.970722 
L 418.392313 217.884124 
L 418.496663 217.60268 
L 418.601014 217.840825 
L 418.705364 217.494433 
L 418.809714 217.970722 
L 418.914065 217.905773 
L 419.018415 217.581031 
L 419.227116 218.05732 
L 419.331466 217.819175 
L 419.435816 217.949072 
L 419.540167 217.819175 
L 419.644517 217.299588 
L 419.748867 217.364536 
L 419.853217 217.689278 
L 419.957568 217.60268 
L 420.061918 218.014021 
L 420.270619 217.429485 
L 420.374969 217.169691 
L 420.58367 217.321237 
L 420.79237 217.537732 
L 420.89672 217.516082 
L 421.001071 217.234639 
L 421.209771 217.429485 
L 421.314122 217.21299 
L 421.418472 217.60268 
L 421.522822 217.19134 
L 421.940224 217.581031 
L 422.044574 218.014021 
L 422.253274 217.559381 
L 422.357625 217.949072 
L 422.670676 217.234639 
L 422.879376 217.667629 
L 422.983727 217.667629 
L 423.088077 217.148041 
L 423.192427 217.819175 
L 423.296778 217.559381 
L 423.609823 217.840825 
L 423.714174 217.342887 
L 423.818524 217.516082 
L 423.922874 217.148041 
L 424.027225 217.927423 
L 424.131575 217.559381 
L 424.340275 217.819175 
L 424.548976 217.645979 
L 424.757677 217.905773 
L 424.966377 217.905773 
L 425.070728 218.360412 
L 425.175078 217.732577 
L 425.279428 217.970722 
L 425.488129 217.19134 
L 425.592479 217.905773 
L 425.696829 217.862474 
L 425.80118 218.273814 
L 426.00988 217.949072 
L 426.218581 218.122268 
L 426.427282 217.581031 
L 426.635982 218.252165 
L 426.740332 218.014021 
L 426.844683 218.143918 
L 427.053383 218.014021 
L 427.157734 218.05732 
L 427.366434 217.277938 
L 427.679485 218.03567 
L 427.783836 217.451134 
L 427.888186 218.165567 
L 428.096886 217.62433 
L 428.514288 217.927423 
L 428.618638 217.754227 
L 428.827339 218.078969 
L 428.931689 217.840825 
L 429.036039 218.122268 
L 429.140389 217.451134 
L 429.24474 217.884124 
L 429.34909 217.667629 
L 429.45344 217.862474 
L 429.557791 217.516082 
L 429.662141 217.732577 
L 429.766491 217.581031 
L 429.870842 217.992371 
L 429.975192 217.60268 
L 430.183893 217.949072 
L 430.288243 217.472784 
L 430.496943 217.949072 
L 430.601294 217.732577 
L 430.809994 218.490309 
L 430.914345 217.645979 
L 431.018695 218.208866 
L 431.123045 218.05732 
L 431.227396 217.645979 
L 431.436096 218.403711 
L 431.749147 217.754227 
L 431.853497 218.295464 
L 432.062198 217.710928 
L 432.166548 218.05732 
L 432.58395 217.732577 
L 433.001351 218.360412 
L 433.105701 217.970722 
L 433.210051 218.143918 
L 433.418752 217.884124 
L 433.523102 218.100619 
L 433.627453 217.819175 
L 433.836153 218.208866 
L 434.044854 217.256289 
L 434.149204 217.970722 
L 434.253554 217.732577 
L 434.357905 217.992371 
L 434.462255 217.754227 
L 434.566605 218.143918 
L 434.775306 217.667629 
L 434.984007 218.05732 
L 435.192707 217.710928 
L 435.297057 218.338763 
L 435.505758 217.840825 
L 435.714459 218.230515 
L 435.923159 218.014021 
L 436.02751 218.230515 
L 436.23621 217.451134 
L 436.444911 218.03567 
L 436.549261 217.754227 
L 436.757962 218.208866 
L 436.966662 218.05732 
L 437.071013 217.992371 
L 437.175363 217.775876 
L 437.279713 218.100619 
L 437.384058 217.905773 
L 437.488409 218.100619 
L 437.697109 217.884124 
L 437.80146 218.317113 
L 438.01016 217.537732 
L 438.114511 218.230515 
L 438.218861 217.429485 
L 438.427561 217.905773 
L 438.531912 218.100619 
L 438.949313 217.321237 
L 439.053663 217.905773 
L 439.158014 217.710928 
L 439.262364 217.840825 
L 439.366714 217.667629 
L 439.575415 217.234639 
L 439.784115 218.230515 
L 439.992816 217.732577 
L 440.097166 217.927423 
L 440.305867 217.667629 
L 440.514568 218.03567 
L 440.931969 217.927423 
L 441.140669 218.100619 
L 441.24502 217.516082 
L 441.558071 218.100619 
L 441.766771 218.122268 
L 441.871122 217.797526 
L 442.184172 218.122268 
L 442.288523 217.927423 
L 442.392873 218.05732 
L 442.705924 217.775876 
L 442.810274 218.143918 
L 442.914625 217.927423 
L 443.123325 218.360412 
L 443.227675 217.884124 
L 443.332026 217.927423 
L 443.436376 217.386186 
L 443.540726 218.05732 
L 443.645077 217.862474 
L 443.853777 218.382062 
L 443.958128 217.732577 
L 444.062478 218.382062 
L 444.166828 218.078969 
L 444.375529 218.46866 
L 444.584229 218.295464 
L 444.68858 217.840825 
L 444.79293 218.165567 
L 444.89728 217.797526 
L 445.105981 218.03567 
L 445.314682 217.905773 
L 445.419032 218.230515 
L 445.523382 218.122268 
L 445.627732 217.819175 
L 445.732083 218.078969 
L 445.836433 217.732577 
L 446.045134 217.862474 
L 446.253834 218.44701 
L 446.462535 217.840825 
L 446.566885 217.949072 
L 446.671236 217.884124 
L 446.879936 218.425361 
L 447.088637 217.62433 
L 447.192987 218.252165 
L 447.297337 217.905773 
L 447.401688 218.273814 
L 447.610388 217.970722 
L 447.714739 217.992371 
L 447.819089 218.403711 
L 447.923439 217.927423 
L 448.13214 218.143918 
L 448.23649 218.252165 
L 448.34084 217.970722 
L 448.445191 218.252165 
L 448.549541 217.949072 
L 448.653891 218.014021 
L 448.758242 217.927423 
L 448.966942 218.187216 
L 449.071293 217.992371 
L 449.175643 218.317113 
L 449.279993 218.078969 
L 449.384343 218.165567 
L 449.488694 217.797526 
L 449.593044 218.273814 
L 450.010445 217.754227 
L 450.114796 218.165567 
L 450.323496 217.949072 
L 450.427847 218.143918 
L 450.532197 217.905773 
L 450.636547 218.187216 
L 450.949598 217.732577 
L 451.053948 217.732577 
L 451.158294 218.403711 
L 451.262644 217.862474 
L 451.471344 218.165567 
L 451.575695 217.949072 
L 451.888746 218.208866 
L 452.097446 217.862474 
L 452.201797 218.165567 
L 452.306147 218.05732 
L 452.514848 218.555258 
L 452.619198 217.927423 
L 452.827898 218.382062 
L 453.036599 217.905773 
L 453.140949 218.425361 
L 453.34965 217.927423 
L 453.454 217.775876 
L 453.767051 218.425361 
L 453.871401 218.187216 
L 453.975752 218.576907 
L 454.080102 217.754227 
L 454.393153 218.187216 
L 454.497503 218.143918 
L 454.601854 217.862474 
L 454.706204 218.317113 
L 454.810554 218.05732 
L 454.914905 218.273814 
L 455.019255 218.078969 
L 455.227955 218.252165 
L 455.332306 218.014021 
L 455.436656 218.078969 
L 455.541006 217.949072 
L 455.645357 218.252165 
L 455.749707 217.581031 
L 455.854057 218.014021 
L 456.062758 218.014021 
L 456.167108 218.208866 
L 456.271458 217.62433 
L 456.375809 217.949072 
L 456.480159 217.667629 
L 456.79321 218.533608 
L 457.001911 218.03567 
L 457.106261 218.122268 
L 457.314962 217.862474 
L 457.419312 217.840825 
L 457.523662 218.187216 
L 457.628012 217.62433 
L 457.732363 217.949072 
L 457.836713 217.754227 
L 458.149764 218.295464 
L 458.254114 218.100619 
L 458.358465 218.252165 
L 458.567165 217.840825 
L 458.671515 218.338763 
L 458.775866 217.819175 
L 459.193267 218.143918 
L 459.297617 218.100619 
L 459.506318 217.754227 
L 459.610668 217.884124 
L 459.715019 218.273814 
L 460.028069 217.840825 
L 460.13242 218.143918 
L 460.23677 217.494433 
L 460.34112 218.03567 
L 460.445471 217.732577 
L 460.654171 218.078969 
L 460.758522 218.143918 
L 460.862872 217.884124 
L 460.967222 218.252165 
L 461.071572 218.078969 
L 461.175923 218.230515 
L 461.488974 217.667629 
L 461.593324 218.208866 
L 461.697674 218.187216 
L 461.802025 218.165567 
L 461.906375 217.667629 
L 462.010725 218.403711 
L 462.219426 217.840825 
L 462.323776 217.797526 
L 462.428126 218.533608 
L 462.532477 218.230515 
L 462.636827 218.273814 
L 462.845528 217.840825 
L 463.054228 218.187216 
L 463.158579 217.710928 
L 463.262929 218.230515 
L 463.367279 217.60268 
L 463.471629 218.750103 
L 463.57598 217.970722 
L 463.78468 218.46866 
L 463.889031 218.533608 
L 464.202082 217.970722 
L 464.306432 217.905773 
L 464.410782 218.425361 
L 464.515133 217.840825 
L 464.619483 218.122268 
L 464.723833 217.840825 
L 465.24558 218.165567 
L 465.34993 218.46866 
L 465.55863 218.338763 
L 465.662981 218.511959 
L 466.080382 217.927423 
L 466.184732 218.014021 
L 466.289083 218.403711 
L 466.393433 217.970722 
L 466.602134 218.533608 
L 466.810834 217.862474 
L 466.915184 217.970722 
L 467.228235 218.295464 
L 467.436936 218.014021 
L 467.541286 218.360412 
L 467.645637 218.100619 
L 467.749987 218.555258 
L 468.063038 217.927423 
L 468.271738 217.992371 
L 468.480439 218.317113 
L 468.584789 218.230515 
L 468.68914 217.840825 
L 468.79349 218.88 
L 469.002191 218.165567 
L 469.210891 218.208866 
L 469.315241 217.905773 
L 469.419592 218.533608 
L 469.523942 217.949072 
L 469.732643 218.706804 
L 469.836993 217.992371 
L 469.941343 218.230515 
L 470.045694 217.970722 
L 470.150044 218.576907 
L 470.358745 218.05732 
L 470.463095 218.03567 
L 470.567445 218.663505 
L 470.671795 218.078969 
L 470.776146 218.46866 
L 470.984846 218.100619 
L 471.089197 218.360412 
L 471.193547 218.273814 
L 471.402248 217.949072 
L 471.610948 218.360412 
L 471.715298 218.208866 
L 471.923999 218.685155 
L 472.550101 218.05732 
L 472.654451 218.165567 
L 472.758802 218.05732 
L 472.863152 218.273814 
L 472.967502 218.078969 
L 473.071852 218.425361 
L 473.280553 218.165567 
L 473.384903 218.100619 
L 473.489254 218.403711 
L 473.697954 218.014021 
L 473.802305 218.382062 
L 474.011005 217.797526 
L 474.219706 218.295464 
L 474.324056 218.143918 
L 474.532757 218.425361 
L 474.741457 218.03567 
L 474.950158 218.403711 
L 475.054508 218.360412 
L 475.158859 217.927423 
L 475.263209 218.208866 
L 475.367559 218.078969 
L 475.471909 218.511959 
L 475.78496 218.252165 
L 475.993661 218.576907 
L 476.098011 217.905773 
L 476.202362 217.970722 
L 476.306712 218.360412 
L 476.411062 217.970722 
L 476.619763 218.425361 
L 476.828463 218.252165 
L 477.037164 218.338763 
L 477.141514 218.122268 
L 477.350215 218.317113 
L 477.454565 218.771753 
L 477.558916 218.05732 
L 477.767616 218.620206 
L 477.871966 218.620206 
L 477.976317 218.165567 
L 478.080667 218.555258 
L 478.185017 218.03567 
L 478.289368 218.511959 
L 478.393718 218.208866 
L 478.498068 218.598557 
L 478.706769 217.60268 
L 478.811114 218.273814 
L 478.915464 217.970722 
L 479.019815 218.143918 
L 479.124165 217.992371 
L 479.228515 218.598557 
L 479.332866 218.295464 
L 479.437216 218.490309 
L 479.437216 218.490309 
" clip-path="url(#p9303e2bf03)" style="fill: none; stroke: #1f77b4; stroke-width: 1.5; stroke-linecap: square"/>
   </g>
   <g id="patch_3">
    <path d="M 53.328125 228.96 
L 53.328125 7.2 
" style="fill: none; stroke: #000000; stroke-width: 0.8; stroke-linejoin: miter; stroke-linecap: square"/>
   </g>
   <g id="patch_4">
    <path d="M 499.728125 228.96 
L 499.728125 7.2 
" style="fill: none; stroke: #000000; stroke-width: 0.8; stroke-linejoin: miter; stroke-linecap: square"/>
   </g>
   <g id="patch_5">
    <path d="M 53.328125 228.96 
L 499.728125 228.96 
" style="fill: none; stroke: #000000; stroke-width: 0.8; stroke-linejoin: miter; stroke-linecap: square"/>
   </g>
   <g id="patch_6">
    <path d="M 53.328125 7.2 
L 499.728125 7.2 
" style="fill: none; stroke: #000000; stroke-width: 0.8; stroke-linejoin: miter; stroke-linecap: square"/>
   </g>
  </g>
 </g>
 <defs>
  <clipPath id="p9303e2bf03">
   <rect x="53.328125" y="7.2" width="446.4" height="221.76"/>
  </clipPath>
 </defs>
</svg>
